<svg width="145" height="144" viewBox="0 0 145 144" fill="none" xmlns="http://www.w3.org/2000/svg">
<rect x="13" y="12" width="120" height="120" rx="60" fill="#7D67FF" fill-opacity="0.2"/>
<path fill-rule="evenodd" clip-rule="evenodd" d="M101.598 61.7131C102.289 60.9635 102.828 60.0828 103.184 59.1214C103.54 58.16 103.706 57.1368 103.674 56.11C103.641 55.0832 103.409 54.0731 102.992 53.1373C102.575 52.2014 101.981 51.3582 101.244 50.6558C100.506 49.9534 99.6401 49.4055 98.6943 49.0435C97.7486 48.6814 96.7419 48.5122 95.7319 48.5456C94.7218 48.579 93.7281 48.8144 92.8075 49.2381C91.887 49.6619 91.0575 50.2659 90.3665 51.0155L66.6503 76.743L54.9344 66.1627C53.3994 64.8655 51.4285 64.2256 49.4381 64.3783C47.4476 64.531 45.5935 65.4642 44.2673 66.9808C42.9411 68.4974 42.2469 70.4786 42.3311 72.506C42.4153 74.5333 43.2715 76.448 44.7187 77.8456L62.027 93.4853C63.5247 94.8377 65.4822 95.5428 67.4833 95.4508C69.4844 95.3588 71.3713 94.4769 72.7428 92.9927L101.598 61.7131Z" fill="#7D67FF"/>
</svg>
