<svg width="164" height="152" viewBox="0 0 164 152" fill="none" xmlns="http://www.w3.org/2000/svg">
<path d="M104.578 17.8964L111.379 5.36584C111.379 5.36584 113.75 -0.589009 120.721 5.36584C120.721 5.36584 144.145 21.0855 137.795 41.9133" fill="#C2A282"/>
<path d="M137.795 44.2839C137.569 44.2839 137.343 44.2557 137.089 44.171C135.819 43.7759 135.114 42.4495 135.509 41.2077C141.266 22.2707 119.62 7.45418 119.394 7.31307C119.31 7.25663 119.253 7.20018 119.168 7.14373C117.39 5.61975 115.81 4.85775 114.822 5.11175C114.032 5.30931 113.609 6.21241 113.609 6.21241C113.581 6.29707 113.524 6.38174 113.496 6.46641L106.694 18.997C106.073 20.1541 104.606 20.5774 103.449 19.9565C102.292 19.3356 101.868 17.8681 102.489 16.711L109.234 4.26509C109.545 3.55954 110.843 1.16067 113.693 0.45512C116.262 -0.165764 119.112 0.822005 122.188 3.41843C124.277 4.82953 146.713 20.8596 140.081 42.5624C139.771 43.5784 138.839 44.2557 137.795 44.2557V44.2839Z" fill="#947054"/>
<path d="M56.8539 19.5048L50.0524 6.97423C50.0524 6.97423 47.6817 1.01939 40.7109 6.97423C40.7109 6.97423 17.2867 22.6939 23.6366 43.5217" fill="#C2A282"/>
<path d="M23.6368 45.8924C22.6208 45.8924 21.6613 45.215 21.3508 44.1991C14.7469 22.4681 37.1834 6.46622 39.2436 5.05512C42.2916 2.45869 45.142 1.47093 47.7384 2.12003C50.5889 2.82558 51.8588 5.22445 52.1692 5.93L58.9426 18.3759C59.5634 19.533 59.1401 20.9723 57.983 21.5932C56.8259 22.2141 55.3866 21.7908 54.7657 20.6337L47.9642 8.1031C47.9642 8.1031 47.8795 7.93376 47.8513 7.8491C47.8513 7.8491 47.428 6.91777 46.6096 6.74844C45.6218 6.52266 44.0695 7.25644 42.2915 8.78043C42.2069 8.83687 42.1504 8.89331 42.0658 8.94976C41.84 9.09087 20.1938 23.9356 25.951 42.8444C26.3179 44.1144 25.6124 45.4408 24.3706 45.8077C24.1448 45.8642 23.9191 45.9206 23.6651 45.9206L23.6368 45.8924Z" fill="#947054"/>
<path d="M160.796 104.622C160.062 99.7118 158.735 94.8576 156.675 90.3421C155.659 88.1125 154.446 85.9394 153.035 83.9357C151.99 82.4117 150.1 80.5208 149.958 78.5735C149.225 68.0467 146.798 57.6045 141.83 48.4042C140.165 45.328 138.246 42.3929 136.017 39.6553C131.614 34.2367 126.421 29.4954 120.607 25.6572C116.797 23.1173 112.705 21.0006 108.416 19.3355C100.288 16.1746 89.8737 13.4653 81.0966 13.7758C71.9245 14.0862 62.7241 16.5133 54.2011 20.1539C51.5482 21.2828 48.9518 22.5246 46.4683 23.851C38.5943 28.0279 31.5389 34.3778 26.2332 41.772C24.0318 44.8482 22.1127 48.0937 20.5605 51.4239C16.6659 59.8341 14.6339 69.3731 14.013 78.6017C13.9001 80.4079 12.1504 82.2706 11.1344 83.6817C9.8926 85.4032 8.73552 87.1248 7.80419 89.0439C5.43354 93.9263 3.96593 99.3167 3.14749 104.679C0.57929 121.471 9.38459 134.905 24.8785 141.142C42.0939 148.056 63.5708 149.383 81.9434 149.383C100.316 149.383 121.793 148.084 139.008 141.142C154.502 134.905 163.307 121.471 160.739 104.679L160.796 104.622Z" fill="#C2A282"/>
<path d="M24.935 142.412C42.1504 148.197 63.6274 149.298 81.9999 149.298C100.372 149.298 121.849 148.197 139.065 142.412C154.559 137.191 163.364 125.959 160.796 111.904C160.118 108.235 162.15 108.574 160.429 105.131C137.456 102.167 108.811 96.5229 81.9999 96.5229C55.189 96.5229 26.4591 102.167 3.45812 105.159C1.79303 108.602 3.85324 108.263 3.20414 111.904C0.635933 125.959 9.44115 137.191 24.935 142.412Z" fill="#A98668"/>
<path d="M81.9998 151.697C66.0826 151.697 42.7713 150.822 24.0319 143.287C7.09866 136.485 -1.79128 121.528 0.833369 104.256C1.7647 98.1034 3.40157 92.6283 5.68756 87.9434C6.78822 85.6575 8.17109 83.6819 9.21531 82.2144C9.41286 81.9321 9.63861 81.6499 9.89261 81.3395C10.5699 80.4646 11.5859 79.1382 11.6424 78.3762C12.3479 68.0751 14.6903 58.3668 18.4156 50.3517C20.0243 46.8804 21.9998 43.4938 24.314 40.3047C25.076 39.2322 26.5718 39.0065 27.6443 39.7685C28.7167 40.5305 28.9424 42.0262 28.1804 43.0987C26.0638 46.062 24.2011 49.1664 22.7336 52.3837C19.2341 59.8625 17.061 68.9782 16.3836 78.7148C16.2425 80.9161 14.8032 82.7788 13.6461 84.2746C13.4485 84.5568 13.251 84.8108 13.0535 85.0366C11.6424 86.9839 10.6828 88.5079 9.94902 90.0319C7.86059 94.2934 6.39303 99.3169 5.51815 104.961C3.20394 120.145 10.7957 132.816 25.7816 138.856C43.7308 146.081 66.4495 146.927 81.9716 146.927C97.4937 146.927 120.184 146.081 138.162 138.856C153.147 132.816 160.739 120.145 158.425 104.961C157.663 99.966 156.337 95.3658 154.502 91.3018C153.514 89.1288 152.357 87.0968 151.087 85.2623C150.862 84.9237 150.579 84.585 150.325 84.2463C149.168 82.7788 147.757 80.9161 147.588 78.7148C146.826 67.5671 144.173 57.7459 139.742 49.5051C138.133 46.4853 136.243 43.6913 134.154 41.1231C133.307 40.1071 133.477 38.6114 134.493 37.7647C135.509 36.9463 137.005 37.0874 137.851 38.1034C140.137 40.8973 142.169 43.9735 143.919 47.2473C148.688 56.109 151.511 66.5794 152.329 78.4044C152.385 79.1664 153.373 80.4364 154.079 81.3677C154.417 81.791 154.728 82.2144 155.01 82.6095C156.449 84.6697 157.748 86.9557 158.848 89.3828C160.88 93.8418 162.348 98.8654 163.166 104.284C165.791 121.556 156.901 136.514 139.968 143.315C121.257 150.85 97.917 151.725 81.9998 151.725V151.697Z" fill="#947054"/>
<path d="M108.443 19.3072C100.316 16.1463 89.9016 13.437 81.1246 13.7474C71.9524 14.0579 62.752 16.485 54.229 20.1256" fill="#C2A282"/>
<path d="M54.2291 22.4683C53.2978 22.4683 52.4229 21.932 52.0278 21.0289C51.5198 19.8154 52.0843 18.4043 53.2979 17.8963C62.8369 13.8323 72.1783 11.631 81.04 11.3488C92.2442 10.9537 104.549 15.2434 109.29 17.0779C110.504 17.5576 111.125 18.9405 110.645 20.1541C110.165 21.3958 108.782 21.9885 107.569 21.5087C98.0861 17.8116 88.4624 15.8361 81.2094 16.0901C72.9121 16.3723 64.1633 18.4607 55.1605 22.2707C54.8501 22.4118 54.5396 22.4683 54.2291 22.4683Z" fill="#947054"/>
<path d="M50.0524 87.9433C50.0524 83.8229 43.8154 80.4927 36.139 80.4927C28.4626 80.4927 22.2256 83.8229 22.2256 87.9433C22.2256 92.0637 28.4626 95.3939 36.139 95.3939C43.8154 95.3939 50.0524 92.0637 50.0524 87.9433Z" fill="#A98668"/>
<path d="M113.947 87.9433C113.947 83.8229 120.184 80.4927 127.861 80.4927C135.537 80.4927 141.774 83.8229 141.774 87.9433C141.774 92.0637 135.537 95.3939 127.861 95.3939C120.184 95.3939 113.947 92.0637 113.947 87.9433Z" fill="#A98668"/>
<path d="M77.4841 105.441C78.8388 105.441 79.9395 104.002 79.9395 102.252C79.9395 100.502 78.8388 99.063 77.4841 99.063C76.1295 99.063 75.0288 100.502 75.0288 102.252C75.0288 104.002 76.1295 105.441 77.4841 105.441Z" fill="#3F3B3A"/>
<path d="M86.5154 105.441C87.87 105.441 88.9707 104.002 88.9707 102.252C88.9707 100.502 87.87 99.063 86.5154 99.063C85.1607 99.063 84.0601 100.502 84.0601 102.252C84.0601 104.002 85.1607 105.441 86.5154 105.441Z" fill="#3F3B3A"/>
<path d="M70.4008 86.4757C70.4008 89.7777 67.7197 92.4588 64.4177 92.4588C61.1157 92.4588 58.4346 89.7777 58.4346 86.4757C58.4346 83.1738 61.1157 80.4927 64.4177 80.4927C67.7197 80.4927 70.4008 83.1738 70.4008 86.4757Z" fill="#3F3B3A"/>
<path d="M105.706 86.4757C105.706 89.7777 103.025 92.4588 99.7233 92.4588C96.4213 92.4588 93.7402 89.7777 93.7402 86.4757C93.7402 83.1738 96.4213 80.4927 99.7233 80.4927C103.025 80.4927 105.706 83.1738 105.706 86.4757Z" fill="#3F3B3A"/>
<path d="M85.2173 13.4371C85.048 18.5735 82.1411 24.5002 77.174 26.9555C74.7187 28.2819 64.7281 29.947 62.4985 27.6328C65.2925 23.4277 67.6914 19.2791 66.7037 13.9169C65.857 9.26027 71.8118 8.24427 75.0291 7.82094C79.4882 7.22828 84.7093 6.55095 89.1401 7.5105C91.539 8.0185 94.1355 9.90937 94.1355 12.7034C94.1355 20.8595 93.5145 23.2302 86.7412 25.7419C85.443 26.2217 80.6453 26.8426 79.3753 25.5444" fill="#947054"/>
<path d="M67.3526 31.1326C64.6433 31.1326 62.1316 30.6528 60.8051 29.2417C60.0149 28.4515 59.902 27.2097 60.5229 26.2784C63.204 22.2144 65.2077 18.7713 64.3893 14.3122C64.0506 12.506 64.3893 10.8409 65.4053 9.45806C67.3808 6.74874 71.2472 5.87386 74.7467 5.42231C78.9518 4.85787 84.7091 4.09587 89.6762 5.14009C93.0064 5.84564 96.5624 8.49851 96.5624 12.6471C96.5624 21.142 95.744 24.8955 87.616 27.9152C86.9387 28.1692 82.649 29.1852 79.6574 28.2539C79.2059 28.5361 78.7543 28.8184 78.2463 29.0441C76.8352 29.8061 71.8117 31.1043 67.3526 31.1043V31.1326ZM66.1108 26.363C69.0741 26.5324 74.3234 25.7704 76.0732 24.8391C80.3629 22.7224 82.7054 17.4731 82.8465 13.3527C82.903 12.0263 83.9754 11.0103 85.3018 11.0667C86.6283 11.1232 87.6442 12.2238 87.5878 13.522C87.4749 16.7393 86.346 20.6058 84.1447 23.8231C84.8785 23.7384 85.584 23.6255 85.9509 23.4844C91.2566 21.5371 91.7928 20.5211 91.7928 12.6754C91.7928 11.2643 90.1842 10.1354 88.6602 9.82494C84.5116 8.95006 79.234 9.65561 75.3676 10.1636C72.0092 10.6152 69.949 11.3207 69.2435 12.2803C69.0742 12.506 68.933 12.8165 69.0459 13.4656C69.9772 18.5173 68.3686 22.5248 66.0826 26.363H66.1108Z" fill="#87634C"/>
</svg>
