<svg width="164" height="156" viewBox="0 0 164 156" fill="none" xmlns="http://www.w3.org/2000/svg">
<path d="M145.274 64.3726C145.274 64.3726 158.99 32.7357 148.999 11.0048C148.999 11.0048 128.877 8.09792 98.0869 18.5683" fill="#D4D4D3"/>
<path d="M145.274 66.743C144.963 66.743 144.625 66.6866 144.314 66.5455C143.101 66.0093 142.565 64.6264 143.073 63.4128C143.214 63.1024 155.744 33.6951 147.362 13.2341C142.508 12.839 124.333 12.1617 98.877 20.8258C97.6352 21.2492 96.2805 20.5718 95.8572 19.3301C95.4339 18.0883 96.1112 16.7336 97.3529 16.3103C128.312 5.78349 148.519 8.52102 149.366 8.66213C150.156 8.77502 150.862 9.28302 151.201 10.0168C161.53 32.4533 148.068 63.9773 147.503 65.3037C147.108 66.2068 146.233 66.743 145.302 66.743H145.274Z" fill="#BEBAB7"/>
<path d="M18.7826 64.3726C18.7826 64.3726 5.06674 32.7357 15.0573 11.0048C15.0573 11.0048 35.1796 8.09792 65.9416 18.5683" fill="#D4D4D3"/>
<path d="M18.7825 66.7432C17.8512 66.7432 16.9763 66.207 16.5812 65.3039C16.0168 63.9775 2.55486 32.4253 12.8841 10.017C13.2228 9.2832 13.9001 8.7752 14.7185 8.66231C15.5652 8.54942 35.7721 5.78367 66.7317 16.3105C67.9734 16.7338 68.6507 18.0885 68.2274 19.3302C67.8041 20.572 66.4495 21.2493 65.2077 20.826C39.7515 12.1618 21.5765 12.8392 16.6941 13.2343C8.31217 33.7235 20.8427 63.1026 20.9838 63.413C21.4918 64.6266 20.9556 66.0377 19.742 66.5457C19.4316 66.6868 19.1212 66.7432 18.7825 66.7432Z" fill="#BEBAB7"/>
<path d="M160.768 108.455C159.949 103.121 158.51 97.7026 156.139 92.8484C155.208 90.9293 154.079 89.2077 152.809 87.4862C151.793 86.0751 150.071 84.2407 149.93 82.4062C149.338 73.7703 147.503 64.8521 144.06 56.8371C143.975 56.8371 143.891 56.8371 143.834 56.8089C144.935 60.8164 147.616 71.2021 147.814 71.6254C147.503 71.3714 147.221 71.1457 146.911 70.9199C145.979 67.251 144.568 61.5784 143.863 58.8126C143.637 57.8813 143.467 57.2887 143.411 57.1758C141.859 53.6762 139.94 50.2614 137.738 47.0158C132.404 39.2548 125.377 32.5662 117.503 28.1918C114.992 26.8089 112.423 25.5107 109.77 24.3253C101.247 20.5154 92.047 17.9472 82.9031 17.6367C82.6209 17.6367 82.3387 17.6367 82.0564 17.6367C81.7742 17.6367 81.492 17.6367 81.2097 17.6367C72.0376 17.9754 62.8655 20.5154 54.3424 24.3253C51.6896 25.5107 49.0931 26.8089 46.6095 28.1918C38.7356 32.5662 31.7084 39.2548 26.4027 47.0158C24.2013 50.2331 22.2822 53.648 20.73 57.1758C20.7018 57.2604 20.5324 57.8813 20.2784 58.8126C19.5729 61.5784 18.1618 67.251 17.2023 70.9199C16.8918 71.1739 16.6096 71.3997 16.2991 71.6254C16.4967 71.2021 19.1778 60.8164 20.2784 56.8089C20.1938 56.8089 20.1092 56.8089 20.0527 56.8371C16.6096 64.8521 14.7751 73.7703 14.1825 82.4062C14.0696 84.2124 12.3199 86.0751 11.3039 87.4862C10.0621 89.2077 8.90502 90.9293 7.97369 92.8484C5.60305 97.7308 4.16368 103.121 3.34525 108.455C0.777044 125.247 9.58234 138.653 25.0762 144.89C42.2634 151.804 63.7403 153.102 82.1129 153.102C100.485 153.102 121.962 151.804 139.15 144.89C154.643 138.653 163.42 125.247 160.852 108.455H160.768Z" fill="#D4D4D3"/>
<path d="M3.26046 108.456C0.720477 125.248 9.49755 138.653 24.9914 144.89C42.1786 151.805 63.6555 153.103 82.0281 153.103C100.401 153.103 121.878 151.805 139.065 144.89C154.559 138.653 163.336 125.248 160.767 108.456" fill="#D4D4D3"/>
<path d="M82.0283 155.501C66.1111 155.501 42.7997 154.627 24.0885 147.091C7.1553 140.29 -1.73464 125.332 0.89001 108.089C1.08756 106.79 2.30109 105.887 3.5993 106.085C4.89751 106.282 5.80059 107.496 5.60304 108.794C3.28883 123.977 10.8524 136.621 25.8382 142.66C43.7874 149.885 66.4779 150.704 81.9718 150.704C97.4656 150.704 120.184 149.885 138.134 142.66C153.119 136.621 160.711 123.977 158.397 108.794C158.199 107.496 159.103 106.282 160.401 106.085C161.699 105.887 162.912 106.79 163.11 108.089C165.735 125.332 156.845 140.29 139.94 147.091C121.229 154.627 97.9172 155.501 82 155.501H82.0283Z" fill="#BEBAB7"/>
<path d="M3.28906 108.455C4.02283 103.544 5.34924 98.6901 7.40945 94.1746C8.42544 91.9451 9.63898 89.8002 11.0219 87.7682C12.0661 86.2443 13.9569 84.3534 14.0981 82.3778C14.8036 71.851 17.2589 61.4089 22.1978 52.2085" fill="#D4D4D3"/>
<path d="M3.28888 110.826C3.28888 110.826 3.06309 110.826 2.92198 110.826C1.62377 110.628 0.720687 109.415 0.918241 108.117C1.73668 102.698 3.20422 97.6744 5.2362 93.2153C6.36508 90.7882 7.63503 88.5022 9.07435 86.442C9.35657 86.0469 9.66698 85.6518 10.0056 85.2003C10.7676 84.2407 11.699 83.0272 11.7555 82.2652C12.5739 70.4684 15.3961 59.998 20.1374 51.1363C20.7583 49.9792 22.1976 49.5559 23.3547 50.1767C24.5118 50.7976 24.9351 52.237 24.3142 53.3941C19.8834 61.6349 17.2305 71.4561 16.4685 82.6038C16.3274 84.8334 14.8881 86.6678 13.731 88.1354C13.4487 88.5022 13.1948 88.8409 12.969 89.1513C11.699 90.9858 10.5419 93.0178 9.55417 95.1909C7.69151 99.2548 6.36504 103.855 5.63127 108.822C5.46193 110.007 4.44598 110.854 3.28888 110.854V110.826Z" fill="#BEBAB7"/>
<path d="M108.472 23.1681C100.627 20.1201 90.636 17.4672 82.0283 17.5801L108.472 23.1681Z" fill="#D4D4D3"/>
<path d="M108.472 25.5671C108.19 25.5671 107.88 25.5106 107.597 25.3977C98.51 21.87 89.225 19.9227 82.0566 19.9791H82.0284C80.7301 19.9791 79.6577 18.9349 79.6577 17.6367C79.6577 16.3103 80.7019 15.2378 82.0001 15.2378C89.7612 15.1532 99.6953 17.2416 109.319 20.9951C110.533 21.4749 111.153 22.8578 110.674 24.0713C110.307 25.0026 109.404 25.5953 108.444 25.5953L108.472 25.5671Z" fill="#BEBAB7"/>
<path d="M55.6123 23.1681C63.458 20.1201 73.4487 17.4672 82.0281 17.5801L55.6123 23.1681Z" fill="#D4D4D3"/>
<path d="M55.6122 25.5671C54.6527 25.5671 53.7497 24.9744 53.3828 24.0431C52.903 22.8296 53.5238 21.4467 54.7374 20.9669C64.3611 17.2134 74.3235 15.1532 82.0563 15.2096C83.3828 15.2096 84.4269 16.3103 84.3987 17.6085C84.3987 18.9067 83.3263 19.9509 82.0281 19.9509C81.887 19.9509 81.7176 19.9509 81.5483 19.9509C74.4646 19.9509 65.3489 21.9265 56.459 25.3695C56.1767 25.4824 55.8945 25.5389 55.6122 25.5389V25.5671Z" fill="#BEBAB7"/>
<path d="M160.796 108.455C160.034 103.544 158.736 98.6901 156.675 94.1746C155.659 91.9451 154.446 89.8002 153.063 87.7682C151.991 86.2443 150.128 84.3534 149.987 82.3778C149.281 71.851 146.826 61.4089 141.859 52.2085" fill="#D4D4D3"/>
<path d="M160.796 110.826C159.639 110.826 158.623 109.979 158.453 108.794C157.691 103.798 156.365 99.1983 154.531 95.1625C153.543 92.9894 152.386 90.9575 151.116 89.123C150.89 88.8126 150.636 88.4739 150.354 88.107C149.197 86.6113 147.757 84.7768 147.616 82.5473C146.854 71.4278 144.23 61.6066 139.77 53.3657C139.15 52.2086 139.573 50.7693 140.73 50.1484C141.887 49.5275 143.327 49.9509 143.947 51.108C148.717 59.9697 151.539 70.44 152.357 82.2369C152.414 83.0271 153.345 84.2124 154.107 85.2002C154.446 85.6235 154.756 86.0468 155.039 86.4137C156.478 88.4739 157.776 90.7599 158.877 93.187C160.909 97.6461 162.348 102.641 163.195 108.088C163.392 109.386 162.489 110.6 161.191 110.798C161.078 110.798 160.937 110.798 160.824 110.798L160.796 110.826Z" fill="#BEBAB7"/>
<path d="M86.7978 111.673C86.7978 110.318 84.653 109.217 82.0283 109.217C79.4037 109.217 77.2588 110.318 77.2588 111.673C77.2588 113.027 79.4037 114.128 82.0283 114.128C84.653 114.128 86.7978 113.027 86.7978 111.673Z" fill="#3F3B3A"/>
<path d="M68.8203 103.262C68.8203 99.9605 66.1392 97.3076 62.8654 97.3076C59.5917 97.3076 56.9106 99.9887 56.9106 103.262C56.9106 106.536 59.5917 109.217 62.8654 109.217C66.1392 109.217 68.8203 106.536 68.8203 103.262Z" fill="#3F3B3A"/>
<path d="M95.2363 103.262C95.2363 99.9605 97.9175 97.3076 101.191 97.3076C104.465 97.3076 107.146 99.9887 107.146 103.262C107.146 106.536 104.493 109.217 101.191 109.217C97.8892 109.217 95.2363 106.536 95.2363 103.262Z" fill="#3F3B3A"/>
<path d="M71.1343 18.7093C71.1343 18.7093 90.5793 17.1289 92.9499 2.82031C92.9499 2.82031 101.163 16.7338 89.5068 23.8739" fill="#D4D4D3"/>
<path d="M89.5069 26.2727C88.7166 26.2727 87.9264 25.8776 87.4749 25.1439C86.7693 24.015 87.1362 22.5474 88.2651 21.8701C93.6273 18.5681 93.853 13.4599 93.0064 9.5653C86.9104 19.697 72.0657 21.0517 71.3319 21.1081C70.0337 21.221 68.8766 20.2332 68.7637 18.935C68.6508 17.6368 69.6386 16.4797 70.9368 16.3668C71.219 16.3668 88.5473 14.7017 90.5793 2.48158C90.7486 1.4938 91.5106 0.703587 92.4984 0.534255C93.4862 0.364922 94.4739 0.816474 94.9819 1.66313C98.2275 7.16643 101.529 19.3301 90.7486 25.9623C90.3535 26.2163 89.9302 26.301 89.5069 26.301V26.2727Z" fill="#BEBAB7"/>
<path d="M65.9701 95.3602C65.9701 95.3602 65.7725 95.3602 65.6597 95.3602L56.2618 94.1749C54.9636 94.0055 54.0322 92.8202 54.2015 91.522C54.3709 90.2238 55.5562 89.2924 56.8544 89.4618L66.2524 90.6471C67.5506 90.8164 68.4819 92.0018 68.3125 93.3282C68.1714 94.5417 67.1272 95.4166 65.9419 95.4166L65.9701 95.3602Z" fill="#BEBAB7"/>
<path d="M98.0868 95.36C96.9015 95.36 95.8855 94.4851 95.7162 93.2716C95.5468 91.9733 96.4781 90.7598 97.7763 90.5905L107.174 89.4051C108.473 89.2358 109.686 90.1671 109.827 91.4653C109.997 92.7636 109.065 93.9489 107.767 94.1182L98.3691 95.3035C98.3691 95.3035 98.1715 95.3035 98.0586 95.3035L98.0868 95.36Z" fill="#BEBAB7"/>
</svg>
