<svg width="196" height="154" viewBox="0 0 196 154" fill="none" xmlns="http://www.w3.org/2000/svg">
<path d="M74.1807 75.8884C74.1807 56.1895 58.207 40.2158 38.5081 40.2158C18.8091 40.2158 2.83545 56.1895 2.83545 75.8884C2.83545 95.5874 18.8091 111.561 38.5081 111.561C58.207 111.561 74.1807 95.5874 74.1807 75.8884Z" fill="#EBC0A1"/>
<path d="M38.5364 113.932C17.5675 113.932 0.493164 96.8574 0.493164 75.8885C0.493164 54.9195 17.5675 37.8452 38.5364 37.8452C59.5054 37.8452 76.5797 54.9195 76.5797 75.8885C76.5797 96.8574 59.5054 113.932 38.5364 113.932ZM38.5364 42.5865C20.1921 42.5865 5.26269 57.516 5.26269 75.8603C5.26269 94.2046 20.1921 109.134 38.5364 109.134C56.8807 109.134 71.8102 94.2046 71.8102 75.8603C71.8102 57.516 56.8807 42.5865 38.5364 42.5865Z" fill="#987356"/>
<path d="M193.137 75.8884C193.137 56.1895 177.163 40.2158 157.464 40.2158C137.765 40.2158 121.792 56.1895 121.792 75.8884C121.792 95.5874 137.765 111.561 157.464 111.561C177.163 111.561 193.137 95.5874 193.137 75.8884Z" fill="#EBC0A1"/>
<path d="M157.464 113.932C136.495 113.932 119.421 96.8574 119.421 75.8885C119.421 54.9195 136.495 37.8452 157.464 37.8452C178.433 37.8452 195.507 54.9195 195.507 75.8885C195.507 96.8574 178.433 113.932 157.464 113.932ZM157.464 42.5865C139.12 42.5865 124.19 57.516 124.19 75.8603C124.19 94.2046 139.12 109.134 157.464 109.134C175.808 109.134 190.738 94.2046 190.738 75.8603C190.738 57.516 175.808 42.5865 157.464 42.5865Z" fill="#987356"/>
<path d="M152.977 85.795C152.977 85.795 152.44 40.5269 117.897 37.366C117.897 37.366 103.334 35.9831 98.1131 46.51C92.8638 35.9831 78.3295 37.366 78.3295 37.366C43.7576 40.5551 43.2495 85.795 43.2495 85.795C5.12162 123.951 52.6475 146.642 54.0021 147.263C68.3389 150.677 84.1432 151.439 98.1413 151.439C112.139 151.439 127.944 150.677 142.281 147.263C143.522 146.67 191.189 124.008 153.033 85.795H152.977Z" fill="#EBC0A1"/>
<path d="M98.0849 153.838C79.7688 153.838 65.5731 152.483 53.3812 149.577C53.2119 149.548 53.0708 149.492 52.9297 149.407C51.9983 148.956 29.7876 138.372 26.4574 119.351C24.4819 108.175 29.3361 96.5474 40.8506 84.7788C41.2175 77.9491 44.7452 38.0432 78.0754 34.9952C78.0754 34.9952 78.781 34.9388 79.9946 34.9388C83.9174 34.9388 92.7509 35.7008 98.0849 42.1636C105.056 33.7534 118.094 34.9952 118.094 34.9952C151.424 38.0714 154.952 77.9491 155.291 84.7788C166.805 96.5474 171.66 108.203 169.684 119.379C166.326 138.429 144.143 148.984 143.212 149.435C143.071 149.492 142.93 149.548 142.76 149.605C130.597 152.512 116.401 153.866 98.0849 153.866V153.838ZM54.7359 145.005C66.4762 147.77 80.2486 149.069 98.0849 149.069C115.921 149.069 129.694 147.77 141.406 145.005C143.72 143.876 162.177 134.478 164.999 118.561C166.721 108.796 162.121 98.3254 151.283 87.4882C150.832 87.0366 150.606 86.4439 150.578 85.8231C150.578 84.0733 149.646 42.6716 117.643 39.7365C117.586 39.7365 117.05 39.6801 116.175 39.6801C112.563 39.6801 103.757 40.442 100.202 47.554C99.8064 48.3724 98.9597 48.8804 98.0849 48.8804C97.21 48.8804 96.3633 48.3724 95.94 47.554C92.4122 40.442 83.607 39.6801 79.9663 39.6801C79.0915 39.6801 78.5552 39.7365 78.4988 39.7365C46.4386 42.6716 45.5637 85.3997 45.5637 85.8231C45.5637 86.4439 45.3097 87.0366 44.8582 87.4882C34.0209 98.3254 29.4207 108.768 31.114 118.532C33.908 134.421 52.3652 143.876 54.7076 145.005H54.7359Z" fill="#987356"/>
<path d="M176.852 106.792C175.667 99.0026 173.212 91.6931 168.527 85.3149C167.595 84.0731 166.128 82.3798 166.015 80.7429C165.056 66.6884 161.02 52.8314 152.073 41.8248C144.764 32.8502 135.309 25.71 124.5 21.5049C116.401 18.3441 105.987 15.6348 97.2098 15.9452C85.1873 16.3403 73.1364 20.4043 62.6096 25.9922C51.4619 31.8906 42.0076 42.1634 36.7019 53.5651C32.8072 61.9753 30.7752 71.5143 30.1543 80.7429C30.0415 82.2669 28.7433 83.7627 27.9248 84.948C26.9088 86.3591 25.8364 87.7702 24.9897 89.2942C22.0546 94.5999 20.2484 100.809 19.3171 106.792C16.7771 123.584 25.5542 136.989 41.048 143.226C45.1402 144.863 49.4864 146.19 53.9455 147.262C52.6191 146.641 5.06496 123.951 43.1929 85.7947C43.1929 85.7947 43.7291 40.5266 78.2729 37.3657C78.2729 37.3657 92.8354 35.9828 98.0565 46.5096C103.306 35.9828 117.84 37.3657 117.84 37.3657C152.412 40.5548 152.92 85.7947 152.92 85.7947C191.076 124.007 143.437 146.67 142.167 147.262C146.655 146.19 150.973 144.863 155.093 143.226C170.587 136.989 179.364 123.584 176.796 106.792H176.852Z" fill="#987356"/>
<path d="M142.224 149.633C141.236 149.633 140.305 149.012 139.966 148.024C139.571 146.867 140.107 145.597 141.208 145.089C142.055 144.694 162.064 135.155 164.999 118.532C166.721 108.767 162.121 98.297 151.283 87.4597C150.832 87.0082 150.606 86.4155 150.578 85.7946C150.578 84.0449 149.646 42.6432 117.643 39.7081C117.586 39.7081 117.05 39.6516 116.175 39.6516C112.563 39.6516 103.757 40.4136 100.202 47.5256C99.8064 48.344 98.9598 48.852 98.0849 48.852C97.21 48.852 96.3633 48.344 95.94 47.5256C92.4122 40.4136 83.607 39.6516 79.9664 39.6516C79.0915 39.6516 78.5552 39.7081 78.4988 39.7081C46.4386 42.6432 45.5637 85.3713 45.5637 85.7946C45.5637 86.4155 45.3097 87.0082 44.8582 87.4597C34.0209 98.297 29.4207 108.739 31.114 118.504C33.908 134.449 52.4781 143.904 54.7076 144.976C55.639 145.315 56.3163 146.19 56.3163 147.234C56.3163 148.532 55.2721 149.605 53.9457 149.605C53.7199 149.605 53.5505 149.605 53.353 149.548C48.5552 148.391 44.0962 147.008 40.1169 145.4C23.1837 138.598 14.2938 123.64 16.9466 106.397C17.9908 99.5388 20.051 93.217 22.8732 88.0806C23.6352 86.6695 24.5665 85.3995 25.4414 84.186L26.3728 82.916C26.909 82.2104 27.6992 81.138 27.7274 80.5453C28.433 70.2443 30.7754 60.5359 34.5007 52.5209C40.1451 40.3854 49.9663 29.9151 61.4527 23.8473C73.4753 17.4691 85.8083 13.885 97.0971 13.5181C97.5486 13.5181 98.0284 13.5181 98.5082 13.5181C106.156 13.5181 115.921 15.6065 125.347 19.2754C136.297 23.5369 146.175 30.8182 153.908 40.3008C162.403 50.7429 167.257 64.2895 168.386 80.5736C168.442 81.2509 169.345 82.4644 169.966 83.2829L170.446 83.9038C174.962 90.0562 177.84 97.4221 179.195 106.425C181.82 123.669 172.93 138.626 156.025 145.428C152.045 147.036 147.586 148.419 142.789 149.576C142.591 149.633 142.422 149.633 142.224 149.633ZM98.5646 18.2876C98.1413 18.2876 97.718 18.2876 97.3229 18.2876C86.7396 18.6545 75.1404 22.0411 63.7387 28.0806C53.3248 33.6121 44.0397 43.4898 38.8751 54.5529C35.4038 62.0317 33.2025 71.1474 32.5251 80.884C32.384 82.8596 31.1423 84.5529 30.2392 85.7946L29.3361 87.0364C28.4894 88.1935 27.6992 89.2942 27.0501 90.4513C24.4819 95.0797 22.6192 100.837 21.6597 107.159C19.543 121.072 25.7237 132.869 38.3389 139.388C33.0049 134.421 27.8967 127.704 26.4574 119.379C24.4819 108.203 29.3361 96.5755 40.8507 84.8069C41.2175 77.9771 44.7453 38.0712 78.0754 35.0232C78.0754 35.0232 78.781 34.9668 79.9946 34.9668C83.9174 34.9668 92.7509 35.7288 98.0849 42.1916C105.056 33.7815 118.094 35.0232 118.094 35.0232C151.424 38.0994 154.952 77.9771 155.291 84.8069C166.805 96.5755 171.66 108.231 169.684 119.407C168.217 127.733 163.137 134.449 157.831 139.388C170.418 132.869 176.598 121.072 174.482 107.159C173.24 98.9179 170.644 92.2575 166.608 86.726L166.185 86.1615C165.169 84.8351 163.786 83.0007 163.645 80.884C162.6 65.6159 158.085 52.9724 150.239 43.3205C143.042 34.4588 133.842 27.6855 123.654 23.7344C114.792 20.2913 105.62 18.3158 98.5646 18.3158V18.2876Z" fill="#987356"/>
<path d="M102.854 110.009C102.854 108.654 100.71 107.554 98.085 107.554C95.4603 107.554 93.3154 108.654 93.3154 110.009C93.3154 111.364 95.4603 112.464 98.085 112.464C100.71 112.464 102.854 111.364 102.854 110.009Z" fill="#3F3B3A"/>
<path d="M67.0404 110.009C67.0404 105.578 60.3236 101.966 52.0263 101.966C43.729 101.966 37.0122 105.578 37.0122 110.009C37.0122 114.44 43.729 118.052 52.0263 118.052C60.3236 118.052 67.0404 114.468 67.0404 110.009Z" fill="#D7A686"/>
<path d="M129.157 110.009C129.157 105.578 135.874 101.966 144.171 101.966C152.469 101.966 159.185 105.578 159.185 110.009C159.185 114.44 152.469 118.052 144.171 118.052C135.874 118.052 129.157 114.468 129.157 110.009Z" fill="#D7A686"/>
<path d="M81.7158 18.3442C81.7158 18.3442 101.161 16.7637 103.531 2.4834C103.531 2.4834 111.744 16.3969 100.088 23.537" fill="#987356"/>
<path d="M100.088 25.9075C99.2981 25.9075 98.5079 25.5124 98.0564 24.7786C97.379 23.6497 97.7177 22.1822 98.8466 21.5049C104.209 18.2029 104.435 13.0947 103.588 9.20006C97.492 19.3318 82.6754 20.6864 81.9134 20.7429C80.6152 20.8558 79.4581 19.868 79.3452 18.5698C79.2323 17.2716 80.2201 16.1145 81.5183 16.0016C81.8005 16.0016 99.1288 14.3365 101.161 2.11634C101.33 1.12857 102.092 0.338352 103.08 0.16902C104.068 -0.000311941 105.055 0.451239 105.563 1.2979C108.809 6.80119 112.111 18.9649 101.33 25.5971C100.935 25.851 100.512 25.9357 100.088 25.9357V25.9075Z" fill="#987356"/>
<path d="M84.877 101.599C84.877 104.901 82.1959 107.554 78.9221 107.554C75.6484 107.554 72.9673 104.873 72.9673 101.599C72.9673 98.3251 75.6484 95.644 78.9221 95.644C82.1959 95.644 84.877 98.2969 84.877 101.599Z" fill="#3F3B3A"/>
<path d="M123.23 101.599C123.23 104.901 120.549 107.554 117.276 107.554C114.002 107.554 111.321 104.873 111.321 101.599C111.321 98.3251 113.974 95.644 117.276 95.644C120.578 95.644 123.23 98.2969 123.23 101.599Z" fill="#3F3B3A"/>
<path d="M94.3593 119.068C91.9604 119.068 89.8437 117.686 89.5615 117.46C88.4891 116.698 88.2069 115.23 88.9688 114.13C89.7026 113.057 91.1984 112.775 92.2709 113.509C92.9482 113.96 94.2464 114.468 94.7262 114.186C95.093 113.988 95.7139 112.888 95.7139 109.953C95.7139 108.626 96.7864 107.582 98.1128 107.582C99.4392 107.582 100.483 108.654 100.483 109.953C100.483 114.327 99.2981 117.178 96.9275 118.391C96.0808 118.843 95.2059 119.012 94.3593 119.012V119.068Z" fill="#3F3B3A"/>
<path d="M101.81 119.069C100.964 119.069 100.089 118.899 99.242 118.448C96.8996 117.206 95.686 114.356 95.686 110.009C95.686 108.683 96.7585 107.639 98.0567 107.639C99.3549 107.639 100.456 108.711 100.456 110.009C100.456 112.944 101.076 114.045 101.443 114.243C101.923 114.497 103.221 114.017 103.899 113.565C104.971 112.832 106.467 113.114 107.201 114.186C107.934 115.259 107.68 116.726 106.58 117.488C106.269 117.686 104.181 119.097 101.782 119.097L101.81 119.069Z" fill="#3F3B3A"/>
</svg>
