<svg width="164" height="154" viewBox="0 0 164 154" fill="none" xmlns="http://www.w3.org/2000/svg">
<path d="M156.285 129.497C156.426 129.271 156.595 129.045 156.736 128.819C158.147 126.533 159.22 124.05 159.925 121.51C159.925 121.481 159.925 121.425 159.954 121.397C160.179 120.635 160.348 119.845 160.49 119.083C160.546 118.829 160.603 118.575 160.631 118.321C160.744 117.643 160.857 116.966 160.913 116.26C160.941 115.922 160.97 115.583 160.998 115.244C161.054 114.595 161.082 113.918 161.11 113.269C161.11 112.958 161.11 112.676 161.11 112.394C161.11 111.576 161.111 110.785 161.026 109.967C161.026 109.882 161.026 109.826 161.026 109.741C160.941 108.753 160.857 107.766 160.687 106.806C159.954 101.895 158.627 97.0412 156.567 92.5257C155.551 90.2961 154.337 88.1513 152.954 86.1193C151.882 84.5953 150.019 82.7044 149.878 80.7571C149.173 70.2303 146.717 59.7881 141.75 50.5878C140.085 47.5116 138.166 44.6047 135.937 41.8389C131.534 36.4203 126.341 31.679 120.527 27.8408C116.717 25.3291 112.653 23.1842 108.364 21.5191C100.236 18.3582 89.8217 15.6489 81.0729 15.9594C71.9007 16.2698 62.7285 18.6969 54.2055 22.3375C51.5526 23.4664 48.9562 24.7082 46.4727 26.0346C38.5987 30.2115 31.5717 36.5614 26.2377 43.9556C24.0364 47.0318 22.1173 50.2773 20.5651 53.6075C16.6704 62.0177 14.6382 71.5567 14.0174 80.7853C13.9045 82.5915 12.1547 84.4542 11.1387 85.8653C9.8969 87.5868 8.73999 89.3084 7.80866 91.2275C5.43801 96.0817 3.99865 101.5 3.18021 106.834C0.612011 123.626 9.41714 137.032 24.911 143.269C42.0982 150.183 63.5754 151.481 81.9479 151.481C100.32 151.481 121.797 150.183 138.984 143.269C146.238 140.362 151.966 135.875 155.805 130.202C155.974 129.976 156.115 129.751 156.256 129.525L156.285 129.497Z" fill="#E3D3A9"/>
<path d="M82.3427 110.785C42.719 110.785 12.9728 113.184 5.15527 127.154C8.42903 134.802 15.5128 140.785 25.3058 144.256C42.493 150.324 63.9702 151.481 82.3427 151.481C100.715 151.481 122.192 150.324 139.379 144.256C146.632 141.716 152.361 137.765 156.199 132.798C156.369 132.601 156.51 132.403 156.651 132.206C156.792 132.008 156.962 131.811 157.103 131.613C157.752 130.71 158.316 129.75 158.796 128.791C152.672 113.41 123.462 110.813 82.3427 110.813V110.785Z" fill="white"/>
<path d="M81.976 103.307C95.1274 103.307 99.8968 50.1928 100.207 18.7817C93.9138 16.9755 87.1404 15.762 81.1009 15.9595C74.7227 16.1853 68.3447 17.4271 62.1641 19.4026C62.6156 50.8701 68.9091 103.307 81.9477 103.307H81.976Z" fill="#ADA081"/>
<path d="M58.7775 20.3337C58.7775 20.3337 46.9525 11.6695 36.9902 17.0035C36.9902 17.0035 17.771 25.7523 20.7625 53.3817" fill="#E3D3A9"/>
<path d="M20.7341 55.7521C19.5487 55.7521 18.5046 54.849 18.3635 53.6355C15.2309 24.6515 35.7764 14.9431 35.974 14.8302C47.0088 8.9036 59.6242 18.0193 60.1604 18.3862C61.2329 19.1764 61.4585 20.644 60.6682 21.7164C59.878 22.7888 58.4107 23.0146 57.3382 22.2244C57.3382 22.2244 46.5854 14.5198 38.0624 19.0917C37.2157 19.4869 20.3109 27.643 23.0767 53.0993C23.2178 54.3975 22.2583 55.5828 20.96 55.7239C20.8754 55.7239 20.7905 55.7239 20.7058 55.7239L20.7341 55.7521Z" fill="#C9B38F"/>
<path d="M105.175 20.3337C105.175 20.3337 117 11.6695 126.962 17.0035C126.962 17.0035 146.181 25.7523 143.19 53.3817" fill="#E3D3A9"/>
<path d="M143.218 55.7523C143.218 55.7523 143.048 55.7523 142.964 55.7523C141.666 55.6112 140.706 54.4259 140.847 53.1277C143.613 27.5303 126.172 19.2613 126.002 19.1766C117.338 14.5482 106.698 22.1681 106.586 22.2528C105.513 23.0148 104.045 22.789 103.255 21.7448C102.465 20.6724 102.719 19.2048 103.763 18.4146C104.3 18.0195 116.943 8.932 128.091 14.9151C128.147 14.9151 148.693 24.6517 145.56 53.6357C145.419 54.8492 144.403 55.7523 143.189 55.7523H143.218Z" fill="#C9B38F"/>
<path d="M3.23682 106.806C3.97059 101.895 5.29691 97.0408 7.35712 92.5253C8.37311 90.2958 9.58674 88.1509 10.9696 86.1189C12.0421 84.5949 13.9046 82.7041 14.0457 80.7567C14.7513 70.2299 17.2066 59.7878 22.1737 50.5874" fill="#E3D3A9"/>
<path d="M3.23655 109.176C3.23655 109.176 3.01076 109.176 2.86965 109.176C1.57144 108.979 0.668443 107.765 0.865997 106.467C1.68443 101.049 3.15172 96.025 5.1837 91.5659C6.28436 89.1388 7.58253 86.8528 9.02185 84.7926C9.30407 84.3975 9.61473 84.0024 9.9534 83.5508C10.7154 82.5913 11.6467 81.3778 11.7031 80.6158C12.5216 68.819 15.3437 58.3486 20.1133 49.4869C20.7341 48.3298 22.1735 47.9064 23.3306 48.5273C24.4877 49.1482 24.9392 50.5875 24.2901 51.7446C19.8592 59.9855 17.2062 69.8067 16.4443 80.9544C16.3031 83.184 14.8639 85.0184 13.7068 86.4859C13.4246 86.8528 13.1705 87.1915 12.9448 87.5019C11.6748 89.3364 10.5178 91.3684 9.53 93.5414C7.66735 97.6054 6.34087 102.177 5.6071 107.173C5.43777 108.358 4.4219 109.205 3.2648 109.205L3.23655 109.176Z" fill="#C9B38F"/>
<path d="M108.42 21.5187C100.574 18.4707 90.5838 15.8178 81.9761 15.9307L108.42 21.5187Z" fill="#E3D3A9"/>
<path d="M108.42 23.9177C108.138 23.9177 107.827 23.8612 107.545 23.7483C98.4573 20.2206 89.1443 18.2733 82.0041 18.3297C80.6212 18.3297 79.605 17.2855 79.605 15.9873C79.605 14.6609 80.6494 13.5884 81.9476 13.5884C89.7087 13.5037 99.6426 15.5922 109.266 19.3457C110.508 19.8255 111.101 21.2084 110.621 22.4219C110.254 23.3815 109.351 23.9459 108.392 23.9459L108.42 23.9177Z" fill="#C9B38F"/>
<path d="M55.5605 21.5187C63.4063 18.4707 73.4251 15.8178 82.0045 15.9307L55.5605 21.5187Z" fill="#E3D3A9"/>
<path d="M55.5602 23.9177C54.6006 23.9177 53.6974 23.3533 53.3305 22.3937C52.8508 21.1802 53.4716 19.7973 54.6851 19.3175C64.3088 15.564 74.2996 13.5038 82.0042 13.5602C83.3306 13.5602 84.3747 14.6609 84.3465 15.9591C84.3465 17.2855 83.2176 18.3015 81.9194 18.3015C81.7783 18.3015 81.6371 18.3015 81.4678 18.3015C74.3841 18.3015 65.2683 20.2771 56.3784 23.7201C56.0962 23.833 55.8141 23.8895 55.5037 23.8895L55.5602 23.9177Z" fill="#C9B38F"/>
<path d="M81.9761 153.852C66.0588 153.852 42.7474 152.977 24.0362 145.47C7.10301 138.668 -1.78681 123.711 0.866058 106.467C1.06361 105.169 2.30527 104.266 3.57526 104.463C4.87347 104.661 5.77646 105.874 5.57891 107.173C3.26471 122.356 10.8566 135 25.8425 141.039C43.7916 148.264 66.4822 149.082 82.0043 149.082C97.5264 149.082 120.217 148.236 138.166 141.039C153.152 135 160.715 122.356 158.429 107.173C158.232 105.874 159.135 104.661 160.433 104.463C161.731 104.266 162.945 105.141 163.143 106.467C165.767 123.711 156.877 138.668 139.972 145.47C121.261 153.005 97.9498 153.852 82.0326 153.852H81.9761Z" fill="#C9B38F"/>
<path d="M160.743 106.806C159.981 101.896 158.683 97.0413 156.623 92.5258C155.607 90.2963 154.394 88.1514 153.011 86.1194C151.938 84.5954 150.076 82.7045 149.935 80.7572C149.229 70.2304 146.774 59.7883 141.807 50.5879" fill="#E3D3A9"/>
<path d="M160.743 109.177C159.586 109.177 158.57 108.33 158.401 107.145C157.639 102.149 156.313 97.5493 154.45 93.5135C153.462 91.3404 152.333 89.3367 151.035 87.474C150.809 87.1353 150.555 86.8249 150.273 86.458C149.116 84.9623 147.677 83.1278 147.536 80.8983C146.774 69.7788 144.149 59.9575 139.69 51.6885C139.069 50.5314 139.492 49.0921 140.649 48.4712C141.807 47.8503 143.246 48.2736 143.867 49.4307C148.636 58.2924 151.458 68.7628 152.277 80.5596C152.333 81.3216 153.265 82.5352 154.027 83.5229C154.365 83.9463 154.676 84.3414 154.93 84.7365C156.369 86.7967 157.667 89.0827 158.768 91.5098C160.8 95.9688 162.239 100.992 163.086 106.411C163.284 107.709 162.38 108.923 161.082 109.12C160.969 109.12 160.828 109.12 160.715 109.12L160.743 109.177Z" fill="#C9B38F"/>
<path d="M68.768 101.613C68.768 98.3111 66.087 95.6582 62.8132 95.6582C59.5394 95.6582 56.8584 98.3393 56.8584 101.613C56.8584 104.887 59.5394 107.568 62.8132 107.568C66.087 107.568 68.768 104.887 68.768 101.613Z" fill="#3F3B3A"/>
<path d="M95.1836 101.613C95.1836 98.3111 97.8646 95.6582 101.138 95.6582C104.412 95.6582 107.093 98.3393 107.093 101.613C107.093 104.887 104.44 107.568 101.138 107.568C97.8364 107.568 95.1836 104.887 95.1836 101.613Z" fill="#3F3B3A"/>
<path d="M86.7451 105.113C86.7451 103.758 84.6286 102.657 81.9758 102.657C79.3229 102.657 77.2061 103.758 77.2061 105.113C77.2061 106.467 79.3511 107.568 81.9758 107.568C84.6004 107.568 86.7451 106.467 86.7451 105.113Z" fill="#3F3B3A"/>
<path d="M78.2503 113.156C75.9644 113.156 73.9323 112.055 73.6219 111.886C72.4648 111.237 72.0698 109.797 72.7189 108.64C73.3681 107.511 74.8074 107.088 75.9645 107.737C76.783 108.189 78.2788 108.612 78.8432 108.273C79.1819 108.076 79.6049 107.173 79.6049 105.31C79.6049 104.012 80.6776 102.939 81.9758 102.939C83.2741 102.939 84.3746 104.012 84.3746 105.31C84.3746 108.81 83.3305 111.18 81.242 112.394C80.2825 112.958 79.2381 113.156 78.2503 113.156Z" fill="#3F3B3A"/>
<path d="M85.701 113.156C84.7132 113.156 83.6974 112.958 82.7096 112.394C80.6494 111.18 79.5767 108.81 79.5767 105.31C79.5767 104.012 80.6494 102.939 81.9758 102.939C83.3022 102.939 84.3464 104.012 84.3464 105.31C84.3464 107.173 84.7415 108.048 85.1084 108.273C85.7293 108.64 87.3098 108.132 87.9871 107.737C89.116 107.088 90.5833 107.483 91.2324 108.64C91.8815 109.769 91.4865 111.237 90.3294 111.886C90.019 112.055 87.9869 113.156 85.701 113.156Z" fill="#3F3B3A"/>
<path d="M65.6069 18.3582C65.6069 18.3582 85.0518 16.7778 87.4225 2.46924C87.4225 2.46924 95.6352 16.3827 83.9795 23.5229" fill="#ADA081"/>
<path d="M83.9794 25.9217C83.1892 25.9217 82.3991 25.5265 81.9475 24.7928C81.242 23.6639 81.609 22.1964 82.7378 21.519C88.1 18.217 88.3256 13.1089 87.4789 9.21422C81.383 19.3459 66.5384 20.7006 65.8046 20.757C64.5064 20.8699 63.3492 19.8821 63.2363 18.5839C63.1234 17.2575 64.1113 16.1286 65.4095 16.0157C65.5788 16.0157 83.0199 14.4071 85.0519 2.1305C85.2212 1.14273 85.9834 0.352512 86.9711 0.18318C87.9589 0.0138482 88.9463 0.465399 89.4543 1.31206C92.6999 6.81535 96.0018 18.979 85.221 25.6112C84.8259 25.8652 84.4028 25.9499 83.9794 25.9499V25.9217Z" fill="#C9B38F"/>
</svg>
