<svg width="196" height="142" viewBox="0 0 196 142" fill="none" xmlns="http://www.w3.org/2000/svg">
<path d="M117.425 6.3826C117.425 6.3826 145.139 -3.21288 179.034 32.9677C212.928 69.1766 176.353 93.0242 161.565 85.0656" fill="white"/>
<path d="M168.31 88.9886C165.459 88.9886 162.778 88.396 160.436 87.1542C159.279 86.5333 158.827 85.094 159.476 83.9369C160.097 82.7798 161.537 82.3564 162.722 82.9773C168.451 86.0817 179.711 83.2595 186.146 74.9058C194.443 64.125 191.226 49.4496 177.341 34.633C144.885 -0.0236216 118.498 8.5841 118.244 8.66876C117.002 9.09209 115.647 8.44298 115.224 7.20122C114.801 5.95945 115.45 4.60479 116.692 4.15324C117.877 3.72991 146.268 -5.52691 180.84 31.3593C203.079 55.094 194.613 71.745 189.956 77.8127C184.538 84.84 175.93 89.0451 168.366 89.0451L168.31 88.9886Z" fill="#E2CAB6"/>
<path d="M78.4794 6.3826C78.4794 6.3826 50.7652 -3.21288 16.8706 32.9677C-17.024 69.1766 19.5518 93.0242 34.3402 85.0656" fill="white"/>
<path d="M27.6231 88.9886C20.0596 88.9886 11.4518 84.8118 6.0332 77.7563C1.37657 71.6885 -7.06187 55.0376 15.1488 31.3028C49.7208 -5.61155 78.0839 3.67349 79.2974 4.09682C80.5392 4.52015 81.1883 5.87481 80.765 7.1448C80.3417 8.38657 78.9872 9.03568 77.7454 8.61235C77.4914 8.52768 50.9343 0.0892985 18.6483 34.5766C4.76312 49.3932 1.54583 64.0968 9.8431 74.8494C16.2777 83.2314 27.5384 86.0253 33.2675 82.9209C34.4246 82.3 35.8636 82.7234 36.5128 83.8805C37.1336 85.0376 36.7104 86.4769 35.5533 87.0978C33.2109 88.3395 30.53 88.9322 27.6796 88.9322L27.6231 88.9886Z" fill="#E2CAB6"/>
<path d="M176.748 94.0969C176.014 89.1863 174.688 84.3321 172.627 79.8166C171.611 77.5871 170.398 75.414 168.987 73.4102C167.914 71.8862 166.052 69.9953 165.911 68.048C165.177 57.5212 162.75 47.0791 157.783 37.8505C156.117 34.7743 154.198 31.8392 151.969 29.1016C147.566 23.683 142.373 18.9417 136.56 15.1035C132.75 12.5918 128.657 10.4469 124.368 8.78179C116.24 5.62092 105.826 2.91161 97.0488 3.22205C87.8766 3.53249 78.6762 5.95959 70.1531 9.60023C67.5003 10.7291 64.9039 11.9709 62.4203 13.2973C54.5464 17.4742 47.4908 23.8241 42.1851 31.2183C39.9837 34.2945 38.0646 37.54 36.5124 40.8702C32.6178 49.2804 30.5859 58.8194 29.965 68.048C29.8522 69.8542 28.1023 71.7169 27.0863 73.128C25.8446 74.8495 24.6877 76.5711 23.7563 78.4902C21.3857 83.3726 19.9181 88.763 19.0996 94.1252C16.5314 110.917 25.3366 124.351 40.8305 130.588C58.0459 137.502 79.5227 138.829 97.8953 138.829C116.268 138.829 137.745 137.531 154.96 130.588C170.454 124.351 179.259 110.917 176.691 94.1252L176.748 94.0969Z" fill="white"/>
<path d="M124.396 8.78179C116.268 5.62092 105.854 2.91161 97.0773 3.22205C87.9051 3.53249 78.7047 5.95959 70.1816 9.60023" fill="white"/>
<path d="M70.1818 11.9425C69.2505 11.9425 68.3756 11.4063 67.9804 10.5032C67.4724 9.28966 68.0371 7.87856 69.2506 7.37056C78.7897 3.30659 88.131 1.10527 96.9927 0.823054C108.225 0.456167 120.502 4.71769 125.243 6.55212C126.457 7.0319 127.077 8.41478 126.598 9.62832C126.118 10.8419 124.735 11.4628 123.521 10.983C114.039 7.2859 104.444 5.33858 97.1622 5.56435C88.8932 5.84657 80.1159 7.90678 71.113 11.745C70.8026 11.8861 70.4923 11.9425 70.1818 11.9425Z" fill="#E2CAB6"/>
<path d="M42.2134 31.19C40.0121 34.2662 38.0929 37.5117 36.5407 40.8419C32.6461 49.2521 30.6143 58.7911 29.9934 68.0197C29.8805 69.8259 28.1307 71.6886 27.1147 73.0997C25.8729 74.8212 24.716 76.5428 23.7847 78.4619C21.414 83.3443 19.9464 88.7347 19.128 94.0969C16.5598 110.889 25.3649 124.323 40.8588 130.56C58.0742 137.474 79.551 138.801 97.9236 138.801C116.296 138.801 137.773 137.502 154.989 130.56C170.483 124.323 179.288 110.889 176.72 94.0969C175.986 89.1862 174.659 84.332 172.599 79.8165C171.583 77.587 170.37 75.4139 168.958 73.4101C167.886 71.8861 166.023 69.9953 165.882 68.0479C165.149 57.5211 162.721 47.079 157.754 37.8504C156.089 34.7742 154.17 31.8391 151.941 29.1016" fill="white"/>
<path d="M97.952 141.171C82.0348 141.171 58.7237 140.296 39.9843 132.761C23.0511 125.959 14.1609 111.002 16.7855 93.7299C17.7168 87.6057 19.354 82.1024 21.64 77.4175C22.7406 75.1316 24.1235 73.156 25.1677 71.6885C25.3653 71.4063 25.591 71.124 25.845 70.8136C26.5223 69.9387 27.5383 68.6123 27.5948 67.8503C28.3003 57.521 30.6428 47.8409 34.3681 39.8258C35.9768 36.3545 37.9522 32.9961 40.2664 29.7788C41.0566 28.7064 42.524 28.4806 43.5964 29.2426C44.6688 30.0046 44.8948 31.5003 44.1328 32.5728C42.0162 35.5361 40.1534 38.6405 38.6858 41.8578C35.1863 49.3367 33.0132 58.4524 32.3359 68.189C32.1947 70.3903 30.7555 72.2529 29.5984 73.7487C29.4009 74.0027 29.2034 74.2567 29.0341 74.5107C27.623 76.458 26.6632 78.0102 25.9294 79.506C23.841 83.7675 22.3736 88.791 21.4987 94.4354C19.1845 109.619 26.7764 122.291 41.7623 128.33C59.7114 135.555 82.4299 136.402 97.952 136.402C113.474 136.402 136.165 135.555 154.142 128.33C169.128 122.291 176.72 109.619 174.406 94.4354C173.644 89.4401 172.317 84.8399 170.483 80.8042C169.495 78.6311 168.338 76.5991 167.068 74.7647C166.842 74.426 166.56 74.0874 166.306 73.7487C165.149 72.2529 163.737 70.4185 163.568 68.189C162.806 57.0413 160.182 47.22 155.723 38.9792C154.114 35.9594 152.223 33.1654 150.163 30.5972C149.316 29.5812 149.485 28.0855 150.501 27.2388C151.517 26.4204 153.013 26.5615 153.86 27.5775C156.118 30.3715 158.178 33.4477 159.928 36.7214C164.697 45.5831 167.519 56.0535 168.338 67.8785C168.394 68.6405 169.382 69.9105 170.088 70.8418C170.426 71.2652 170.737 71.6885 171.019 72.0836C172.458 74.1438 173.756 76.4298 174.857 78.8569C176.889 83.316 178.357 88.3395 179.175 93.7581C181.8 111.03 172.91 125.988 155.977 132.789C137.265 140.324 113.926 141.199 98.0085 141.199L97.952 141.171Z" fill="#E2CAB6"/>
<path d="M69.194 101.83C69.194 97.7091 62.9568 94.3789 55.2804 94.3789C47.6041 94.3789 41.3672 97.7091 41.3672 101.83C41.3672 105.95 47.6041 109.28 55.2804 109.28C62.9568 109.28 69.194 105.95 69.194 101.83Z" fill="#E2CAB6"/>
<path d="M126.71 101.83C126.71 97.7091 132.947 94.3789 140.624 94.3789C148.3 94.3789 154.537 97.7091 154.537 101.83C154.537 105.95 148.3 109.28 140.624 109.28C132.947 109.28 126.71 105.95 126.71 101.83Z" fill="#E2CAB6"/>
<path d="M102.722 101.83C102.722 100.475 100.577 99.3745 97.952 99.3745C95.3273 99.3745 93.1826 100.475 93.1826 101.83C93.1826 103.184 95.3273 104.285 97.952 104.285C100.577 104.285 102.722 103.184 102.722 101.83Z" fill="#3F3B3A"/>
<path d="M84.7727 93.4479C84.7727 96.7499 82.0917 99.431 78.7897 99.431C75.4877 99.431 72.8066 96.7499 72.8066 93.4479C72.8066 90.1459 75.4877 87.4648 78.7897 87.4648C82.0917 87.4648 84.7727 90.1459 84.7727 93.4479Z" fill="#3F3B3A"/>
<path d="M123.239 93.4479C123.239 96.7499 120.558 99.431 117.256 99.431C113.954 99.431 111.273 96.7499 111.273 93.4479C111.273 90.1459 113.954 87.4648 117.256 87.4648C120.558 87.4648 123.239 90.1459 123.239 93.4479Z" fill="#3F3B3A"/>
<path d="M91.4333 18.5465C89.2038 18.49 86.438 19.6189 84.6882 20.9171C83.0231 22.1589 81.5556 23.824 80.8218 25.7431C79.6647 28.7064 79.5517 32.347 81.0192 35.2257C81.8377 36.8625 83.4748 38.3865 85.1681 39.0356C87.2848 39.8259 89.6836 39.7412 91.8567 39.2614C94.3685 38.697 97.0776 37.7374 99.0814 36.0723C99.6176 35.649 100.097 35.1128 100.521 34.5483C100.944 33.9839 101.311 33.2784 101.537 32.601C101.565 34.9999 102.891 37.0601 104.839 38.4148C105.488 38.8663 106.334 39.2332 107.125 39.3461C108.253 39.5154 109.383 39.4307 110.511 39.1768C111.358 38.9792 112.148 38.6405 112.854 38.1325C114.66 36.8343 116.099 34.9717 116.015 32.6575C115.958 31.3593 115.62 30.1175 115.083 28.9322" fill="white"/>
<path d="M88.639 42.0273C87.2561 42.0273 85.7602 41.8297 84.2927 41.2653C82.0631 40.4186 79.9746 38.4995 78.8457 36.2982C77.1806 32.9962 77.0678 28.7347 78.5635 24.8965C79.636 22.1025 81.6962 20.1552 83.2202 19.0263C85.1958 17.5306 88.4979 16.0913 91.4612 16.1759C92.7876 16.2041 93.8034 17.3048 93.7752 18.6312C93.747 19.9577 92.6181 21.0019 91.3199 20.9454C89.7677 20.889 87.5664 21.7357 86.0707 22.8645C84.6031 23.9652 83.5026 25.2916 82.9946 26.6463C82.0068 29.2145 82.0348 32.0931 83.079 34.1816C83.6716 35.3387 84.857 36.4111 85.9577 36.8627C87.7639 37.54 89.8241 37.3142 91.2634 36.9755C93.9163 36.3829 96.0896 35.4516 97.5007 34.2662C97.8676 33.9558 98.2344 33.5889 98.4884 33.1938C98.7706 32.7705 99.0246 32.2907 99.194 31.8674C99.5609 30.7667 100.69 30.1176 101.818 30.2869C102.976 30.4563 103.822 31.444 103.822 32.6011C103.851 34.6331 105.262 35.9313 106.108 36.4958C106.475 36.778 106.955 36.9473 107.378 37.032C108.14 37.1449 108.93 37.0884 109.89 36.8909C110.398 36.778 110.906 36.5522 111.329 36.2418C112.345 35.508 113.559 34.3227 113.502 32.7987C113.474 31.9238 113.248 30.9925 112.769 29.92C112.261 28.7065 112.797 27.3236 114.011 26.7874C115.224 26.2794 116.635 26.8438 117.143 28.0292C117.849 29.666 118.216 31.1336 118.244 32.6294C118.357 35.4516 116.861 38.1326 114.095 40.1082C113.136 40.8137 112.035 41.2935 110.878 41.5475C109.354 41.8862 107.971 41.9426 106.645 41.7451C105.488 41.5757 104.302 41.096 103.343 40.4186C102.27 39.6849 101.367 38.7818 100.662 37.7658C100.605 37.8222 100.52 37.8786 100.464 37.9351C98.4318 39.6002 95.666 40.842 92.2511 41.604C91.2069 41.8297 89.9371 42.0273 88.5542 42.0273H88.639Z" fill="#E2CAB6"/>
<path d="M94.2269 109.675C91.9409 109.675 89.9089 108.575 89.5985 108.405C88.4414 107.756 88.0464 106.317 88.6955 105.16C89.3446 104.031 90.7837 103.608 91.9408 104.257C92.7592 104.708 94.255 105.132 94.8195 104.793C95.1581 104.595 95.5815 103.692 95.5815 101.83C95.5815 100.503 96.6539 99.459 97.9803 99.459C99.3067 99.459 100.351 100.531 100.351 101.83C100.351 105.301 99.3067 107.7 97.2183 108.913C96.2587 109.478 95.2147 109.675 94.2269 109.675Z" fill="#3F3B3A"/>
<path d="M101.678 109.675C100.69 109.675 99.6736 109.478 98.6858 108.913C96.5974 107.7 95.5532 105.329 95.5532 101.83C95.5532 100.503 96.6256 99.459 97.9238 99.459C99.222 99.459 100.323 100.531 100.323 101.83C100.323 103.692 100.718 104.567 101.085 104.793C101.706 105.16 103.286 104.624 103.935 104.257C105.064 103.608 106.532 104.003 107.181 105.16C107.83 106.317 107.435 107.756 106.278 108.405C105.967 108.575 103.935 109.675 101.649 109.675H101.678Z" fill="#3F3B3A"/>
<path d="M97.952 116.251C95.5813 116.251 94.142 115.179 93.38 114.276C91.1787 111.736 91.6869 107.785 91.7433 107.333C91.9408 106.035 93.1543 105.132 94.4525 105.329C95.7507 105.527 96.654 106.712 96.4565 108.01C96.3436 108.914 96.4281 110.522 96.9643 111.143C97.049 111.228 97.2464 111.454 97.9237 111.454C99.2502 111.454 100.323 112.526 100.323 113.824C100.323 115.122 99.2502 116.195 97.9237 116.195L97.952 116.251Z" fill="#3F3B3A"/>
<path d="M97.9521 116.251C96.6539 116.251 95.5815 115.179 95.5815 113.881C95.5815 112.582 96.6539 111.51 97.9521 111.51C98.6294 111.51 98.8272 111.284 98.9119 111.199C99.4763 110.55 99.5608 108.942 99.4197 108.067C99.2504 106.769 100.153 105.555 101.452 105.386C102.75 105.216 103.964 106.091 104.133 107.389C104.189 107.841 104.697 111.792 102.524 114.332C101.734 115.235 100.323 116.308 97.9521 116.308V116.251Z" fill="#3F3B3A"/>
</svg>
