<svg width="164" height="146" viewBox="0 0 164 146" fill="none" xmlns="http://www.w3.org/2000/svg">
<path d="M156.295 120.933C156.436 120.707 156.605 120.481 156.747 120.256C158.158 117.97 159.23 115.486 159.936 112.946C159.936 112.918 159.936 112.862 159.964 112.833C160.19 112.071 160.359 111.281 160.5 110.519C160.557 110.265 160.613 110.011 160.641 109.757C160.754 109.08 160.867 108.402 160.924 107.697C160.952 107.358 160.98 107.02 161.008 106.681C161.065 106.032 161.093 105.354 161.121 104.705C161.121 104.423 161.121 104.113 161.121 103.83C161.121 103.012 161.121 102.222 161.065 101.403C161.065 101.319 161.065 101.234 161.065 101.178C160.98 100.19 160.895 99.2021 160.726 98.2425C159.992 93.3319 158.666 88.4777 156.606 83.9622C155.59 81.7327 154.376 79.5878 152.993 77.5558C151.921 76.0318 150.058 74.1409 149.917 72.1936C149.183 61.6668 146.756 51.2247 141.789 42.0243C140.124 38.9481 138.205 36.0412 135.975 33.2755C131.573 27.8568 126.38 23.1155 120.594 19.2773C116.784 16.7656 112.72 14.6207 108.431 12.9556C100.303 9.79475 89.8888 7.08544 81.1399 7.39588C71.9678 7.70632 62.7956 10.1334 54.2725 13.7741C51.6197 14.9029 49.0233 16.1447 46.5397 17.4711C38.6658 21.648 31.6386 27.9979 26.3046 35.3921C24.1033 38.4683 22.1842 41.7138 20.632 45.044C16.7373 53.4542 14.7053 62.9932 14.0844 72.2218C13.9715 74.0281 12.2217 75.8907 11.2057 77.3018C9.96396 79.0233 8.80688 80.7449 7.87556 82.664C5.50491 87.5464 4.06572 92.9368 3.24728 98.2708C0.7073 115.063 9.4842 128.468 24.9781 134.705C42.1653 141.62 63.6423 142.918 82.0148 142.918C100.387 142.918 121.864 141.62 139.052 134.705C146.276 131.799 152.034 127.311 155.872 121.639C156.013 121.413 156.182 121.187 156.323 120.961L156.295 120.933Z" fill="#8F93AE"/>
<path d="M20.6035 44.9877C20.6035 44.9877 11.7418 23.4825 21.7042 6.40822C21.7042 6.40822 38.5244 -2.93327 65.3635 9.82308" fill="#8F93AE"/>
<path d="M20.6035 47.3867C19.6721 47.3867 18.7691 46.8222 18.4022 45.9191C18.0354 44.9878 9.2301 23.1157 19.644 5.22296C19.8698 4.85608 20.1803 4.54563 20.5471 4.34808C21.2809 3.95297 38.7503 -5.41674 66.3796 7.7065C67.565 8.27094 68.0729 9.71026 67.5084 10.8956C66.944 12.0809 65.5329 12.5889 64.3476 12.0245C41.6853 1.27188 26.4454 6.91628 23.4257 8.27094C14.7333 24.047 22.7202 43.9153 22.8331 44.1129C23.3411 45.3264 22.7484 46.7375 21.5348 47.2173C21.2244 47.3302 20.9422 47.3867 20.6317 47.3867H20.6035Z" fill="#787C95"/>
<path d="M143.369 44.9877C143.369 44.9877 152.231 23.4825 142.269 6.40822C142.269 6.40822 125.448 -2.93327 98.6094 9.82308" fill="#8F93AE"/>
<path d="M143.369 47.3867C143.059 47.3867 142.777 47.3302 142.466 47.2173C141.253 46.7093 140.66 45.3264 141.168 44.1129C141.253 43.9153 149.211 23.9906 140.575 8.27094C137.556 6.91628 122.316 1.24366 99.6253 12.0245C98.44 12.5889 97.0289 12.0809 96.4645 10.8956C95.9 9.71026 96.4081 8.29916 97.5934 7.7065C125.251 -5.41674 142.72 3.95297 143.454 4.34808C143.821 4.54563 144.132 4.85608 144.357 5.22296C154.799 23.1157 145.994 44.9878 145.599 45.9191C145.232 46.8504 144.329 47.3867 143.398 47.3867H143.369Z" fill="#787C95"/>
<path d="M3.24707 98.2143C3.98084 93.3037 5.30717 88.4495 7.36737 83.934C8.38336 81.7045 9.59699 79.5596 10.9799 77.5276C12.0241 76.0036 13.9149 74.1127 14.056 72.1654C14.7615 61.6386 17.2168 51.1965 22.1557 41.9961" fill="#8F93AE"/>
<path d="M3.24721 100.585C3.24721 100.585 3.02143 100.585 2.88032 100.585C1.5821 100.388 0.678937 99.174 0.876491 97.8758C1.69493 92.4572 3.16256 87.4337 5.19454 82.9746C6.2952 80.5475 7.59337 78.2615 9.03269 76.2013C9.28669 75.8062 9.6254 75.4111 9.96406 74.9595C10.7261 74 11.6574 72.7864 11.7138 72.0245C12.5323 60.2277 15.3544 49.7573 20.1239 40.8956C20.7448 39.7385 22.1842 39.3151 23.3413 39.936C24.4984 40.5569 24.9216 41.9962 24.3007 43.1533C19.8699 51.3942 17.2171 61.2154 16.4551 72.3631C16.314 74.5927 14.8746 76.4271 13.7175 77.8946C13.4352 78.2615 13.1814 78.6002 12.9556 78.9106C11.6856 80.7451 10.5284 82.777 9.54067 84.9501C7.67801 89.0141 6.37976 93.6143 5.61777 98.5814C5.44843 99.7667 4.43239 100.613 3.27529 100.613L3.24721 100.585Z" fill="#787C95"/>
<path d="M108.43 12.9274C100.585 9.87939 90.5658 7.22653 81.9863 7.33941L108.43 12.9274Z" fill="#8F93AE"/>
<path d="M108.43 15.3264C108.148 15.3264 107.838 15.2699 107.555 15.157C98.4679 11.6293 89.1829 9.68196 82.0145 9.73841C80.6316 9.73841 79.6157 8.69419 79.6157 7.39598C79.6157 6.06954 80.6598 4.99711 81.958 4.99711C89.6909 4.91244 99.6532 7.00087 109.277 10.7544C110.49 11.2342 111.111 12.617 110.632 13.8306C110.265 14.7619 109.362 15.3546 108.402 15.3546L108.43 15.3264Z" fill="#787C95"/>
<path d="M55.5708 12.9274C63.4165 9.87939 73.4071 7.22653 81.9866 7.33941L55.5708 12.9274Z" fill="#8F93AE"/>
<path d="M55.5707 15.3264C54.6112 15.3264 53.7082 14.7619 53.3413 13.8024C52.8615 12.5888 53.4823 11.206 54.6959 10.7262C64.3196 6.97266 74.2537 4.91246 82.0147 4.9689C83.3412 4.9689 84.3854 6.06956 84.3572 7.36778C84.3572 8.69421 83.2282 9.7102 81.9582 9.7102C81.8171 9.7102 81.6479 9.7102 81.5068 9.7102C74.423 9.7102 65.3073 11.6857 56.4174 15.1288C56.1352 15.2417 55.853 15.2982 55.5707 15.2982V15.3264Z" fill="#787C95"/>
<path d="M73.0402 25.4298C70.8106 25.3733 68.0448 26.5022 66.2951 27.8004C64.63 29.0422 63.1625 30.7073 62.4287 32.6264C61.2716 35.5897 61.1587 39.2303 62.6263 42.109C63.4447 43.7459 65.0815 45.2698 66.7748 45.9189C68.8915 46.7092 71.2905 46.6245 73.4636 46.1447C75.9753 45.5803 78.6846 44.6207 80.6884 42.9556C81.2246 42.5323 81.7043 41.9961 82.1276 41.4316C82.5509 40.839 82.9179 40.1617 83.1437 39.5125C83.2001 41.9114 84.4983 43.9716 86.4456 45.3263C87.0947 45.7778 87.9414 46.1447 88.7316 46.2576C89.8887 46.4269 90.9894 46.3423 92.1183 46.0883C92.9649 45.8907 93.755 45.5521 94.4606 45.0441C96.2668 43.7458 97.7063 41.8832 97.6216 39.569C97.5652 38.2426 97.2264 37.029 96.6902 35.8437" fill="#8F93AE"/>
<path d="M70.2462 48.9106C68.8633 48.9106 67.3675 48.7131 65.8999 48.1768C63.6704 47.3302 61.582 45.4111 60.4531 43.2098C58.788 39.9078 58.6752 35.6463 60.1709 31.8081C61.2434 29.0141 63.3035 27.0668 64.8275 25.9379C66.803 24.4704 70.1051 23.0028 73.0684 23.0875C74.3949 23.1157 75.4109 24.2164 75.3826 25.5428C75.3544 26.8692 74.2256 27.9134 72.9273 27.857C71.3751 27.8006 69.1737 28.6472 67.6497 29.7479C66.1821 30.8485 65.1098 32.175 64.5736 33.5296C63.5576 36.0978 63.6139 38.9765 64.6581 41.0649C65.2508 42.222 66.4362 43.2944 67.5368 43.746C69.3431 44.4233 71.4033 44.1975 72.8426 43.8589C75.4955 43.2662 77.6686 42.3349 79.0797 41.1496C79.4466 40.8391 79.8134 40.4722 80.0674 40.0771C80.3496 39.682 80.6036 39.174 80.773 38.7507C81.1399 37.65 82.2687 37.0009 83.3976 37.1703C84.5265 37.3396 85.4014 38.3274 85.4014 39.4845C85.4296 41.5165 86.8407 42.7864 87.6874 43.3791C88.0825 43.6331 88.5623 43.8307 88.9574 43.9153C89.7194 44.0282 90.5095 43.9718 91.469 43.7742C91.977 43.6613 92.4851 43.4356 92.9084 43.1251C93.9244 42.3913 95.138 41.206 95.0815 39.682C95.0533 38.8071 94.8275 37.8758 94.3477 36.8034C93.8397 35.5898 94.4042 34.207 95.5895 33.6707C96.8031 33.1345 98.2141 33.699 98.7221 34.9125C99.4277 36.5494 99.7664 38.0169 99.8228 39.5127C99.9357 42.3349 98.44 45.016 95.6743 46.9915C94.7147 47.6971 93.614 48.1768 92.4569 48.4308C90.9329 48.7695 89.5501 48.826 88.2236 48.6284C87.0665 48.4591 85.9095 47.9793 84.9217 47.302C83.8493 46.5682 82.9461 45.6651 82.2688 44.6491C82.1841 44.7055 82.1277 44.762 82.0712 44.8184C80.0393 46.4835 77.2734 47.7253 73.8585 48.4873C72.8143 48.7131 71.5443 48.9106 70.1615 48.9106H70.2462Z" fill="#787C95"/>
<path d="M3.21895 98.2148C0.678973 115.007 9.45605 128.412 24.9499 134.649C42.1371 141.564 63.614 142.862 81.9865 142.862C100.359 142.862 121.836 141.564 139.023 134.649C154.517 128.412 163.294 115.007 160.726 98.2148" fill="#8F93AE"/>
<path d="M81.9864 145.261C66.0692 145.261 42.7579 144.386 24.0467 136.851C7.11354 130.049 -1.74823 115.091 0.876413 97.8478C1.07397 96.5496 2.28757 95.6465 3.58579 95.844C4.884 96.0416 5.78699 97.2551 5.58944 98.5533C3.27523 113.737 10.8387 126.38 25.8528 132.42C43.802 139.645 66.4926 140.463 82.0147 140.463C97.5368 140.463 120.227 139.616 138.177 132.42C153.162 126.38 160.726 113.737 158.412 98.5533C158.214 97.2551 159.117 96.0416 160.415 95.844C161.714 95.6465 162.927 96.5496 163.125 97.8478C165.749 115.091 156.859 130.049 139.955 136.851C121.243 144.386 97.9319 145.261 82.0147 145.261H81.9864Z" fill="#787C95"/>
<path d="M160.754 98.2143C159.992 93.3037 158.694 88.4495 156.634 83.934C155.618 81.7045 154.404 79.5596 153.021 77.5276C151.949 76.0036 150.086 74.1127 149.945 72.1654C149.212 61.6386 146.784 51.1965 141.817 41.9961" fill="#8F93AE"/>
<path d="M160.754 100.585C159.597 100.585 158.581 99.7383 158.412 98.553C157.65 93.5577 156.323 88.9575 154.489 84.9217C153.501 82.7486 152.344 80.7166 151.074 78.8822C150.849 78.5718 150.594 78.2331 150.312 77.8662C149.155 76.3704 147.716 74.536 147.575 72.3065C146.813 61.187 144.188 51.3657 139.729 43.0967C139.108 41.9396 139.531 40.5003 140.688 39.8794C141.846 39.2585 143.285 39.6818 143.906 40.8389C148.675 49.7006 151.497 60.171 152.316 71.9678C152.372 72.758 153.304 73.9433 154.066 74.9311C154.405 75.3545 154.715 75.7496 154.997 76.1447C156.436 78.2049 157.735 80.4909 158.835 82.918C160.867 87.377 162.307 92.4005 163.153 97.8192C163.351 99.1174 162.448 100.331 161.149 100.528C161.037 100.528 160.895 100.528 160.783 100.528L160.754 100.585Z" fill="#787C95"/>
<path d="M41.7418 104.903H21.7325C20.4061 104.903 19.3618 103.83 19.3618 102.532C19.3618 101.234 20.4343 100.162 21.7325 100.162H41.7418C43.0683 100.162 44.1126 101.234 44.1126 102.532C44.1126 103.83 43.0401 104.903 41.7418 104.903Z" fill="#787C95"/>
<path d="M41.7418 115.571H21.7325C20.4061 115.571 19.3618 114.498 19.3618 113.2C19.3618 111.902 20.4343 110.83 21.7325 110.83H41.7418C43.0683 110.83 44.1126 111.902 44.1126 113.2C44.1126 114.498 43.0401 115.571 41.7418 115.571Z" fill="#787C95"/>
<path d="M142.269 104.903H122.259C120.961 104.903 119.889 103.83 119.889 102.532C119.889 101.234 120.961 100.162 122.259 100.162H142.269C143.595 100.162 144.668 101.234 144.668 102.532C144.668 103.83 143.595 104.903 142.269 104.903Z" fill="#787C95"/>
<path d="M142.269 115.571H122.259C120.961 115.571 119.889 114.498 119.889 113.2C119.889 111.902 120.961 110.83 122.259 110.83H142.269C143.595 110.83 144.668 111.902 144.668 113.2C144.668 114.498 143.595 115.571 142.269 115.571Z" fill="#787C95"/>
<path d="M86.7558 96.5212C86.7558 95.1666 84.611 94.0659 81.9863 94.0659C79.3617 94.0659 77.2168 95.1666 77.2168 96.5212C77.2168 97.8759 79.3617 98.9765 81.9863 98.9765C84.611 98.9765 86.7558 97.8759 86.7558 96.5212Z" fill="#3F3B3A"/>
<path d="M68.7787 93.0217C68.7787 89.7198 66.0977 87.0669 62.8239 87.0669C59.5502 87.0669 56.8691 89.748 56.8691 93.0217C56.8691 96.2955 59.5502 98.9766 62.8239 98.9766C66.0977 98.9766 68.7787 96.3237 68.7787 93.0217Z" fill="#3F3B3A"/>
<path d="M60.1993 88.6754C60.1993 89.6067 59.4655 90.3404 58.5341 90.3404C57.6028 90.3404 56.8691 89.6067 56.8691 88.6754C56.8691 87.744 57.6028 87.0103 58.5341 87.0103C59.4655 87.0103 60.1993 87.744 60.1993 88.6754Z" fill="#3F3B3A"/>
<path d="M58.5341 87.0103H62.8239V92.9651H56.8691V88.6754" fill="#3F3B3A"/>
<path d="M95.1943 93.0217C95.1943 89.7198 97.8756 87.0669 101.149 87.0669C104.423 87.0669 107.104 89.748 107.104 93.0217C107.104 96.2955 104.451 98.9766 101.149 98.9766C97.8473 98.9766 95.1943 96.3237 95.1943 93.0217Z" fill="#3F3B3A"/>
<path d="M103.802 88.6754C103.802 89.6067 104.536 90.3404 105.467 90.3404C106.399 90.3404 107.132 89.6067 107.132 88.6754C107.132 87.744 106.399 87.0103 105.467 87.0103C104.536 87.0103 103.802 87.744 103.802 88.6754Z" fill="#3F3B3A"/>
<path d="M105.467 87.0103H101.149V92.9651H107.132V88.6754" fill="#3F3B3A"/>
</svg>
