<svg width="164" height="156" viewBox="0 0 164 156" fill="none" xmlns="http://www.w3.org/2000/svg">
<path d="M145.274 64.3722C145.274 64.3722 158.99 32.7354 149 11.0326C149 11.0326 128.877 8.12576 98.0869 18.5961" fill="#F6AD3C"/>
<path d="M145.274 66.743C144.963 66.743 144.625 66.6866 144.314 66.5455C143.101 66.0093 142.565 64.6264 143.073 63.4128C143.214 63.1024 155.744 33.6951 147.362 13.2341C142.508 12.839 124.333 12.1617 98.8771 20.8258C97.6354 21.2492 96.2805 20.5718 95.8572 19.3301C95.4338 18.0883 96.1113 16.7336 97.353 16.3103C128.313 5.78349 148.52 8.52102 149.366 8.66213C150.157 8.77502 150.862 9.28302 151.201 10.0168C161.53 32.4533 148.068 63.9773 147.504 65.3037C147.108 66.2068 146.233 66.743 145.302 66.743H145.274Z" fill="#F3981D"/>
<path d="M18.7833 64.3722C18.7833 64.3722 5.0672 32.7354 15.0578 11.0326C15.0578 11.0326 35.1802 8.12576 65.9421 18.5961" fill="#F6AD3C"/>
<path d="M18.7829 66.743C17.8516 66.743 16.9766 66.2068 16.5815 65.3037C16.0171 63.9773 2.55538 32.4251 12.8846 10.0168C13.2233 9.28302 13.9004 8.77502 14.7188 8.66213C15.5655 8.52102 35.7726 5.78349 66.7321 16.3103C67.9739 16.7336 68.6513 18.0883 68.2279 19.3301C67.8046 20.5718 66.4498 21.2492 65.208 20.8258C39.7517 12.1617 21.5769 12.839 16.6945 13.2341C8.3126 33.7233 20.8432 63.1024 20.9843 63.4128C21.4923 64.6264 20.9559 66.0375 19.7424 66.5455C19.4319 66.6866 19.1216 66.743 18.7829 66.743Z" fill="#F3981D"/>
<path d="M160.768 108.455C159.949 103.093 158.51 97.7028 156.139 92.8486C155.208 90.9295 154.079 89.208 152.809 87.4864C151.793 86.0753 150.072 84.2409 149.93 82.4064C149.338 73.7423 147.503 64.8241 144.06 56.8373C143.976 56.8373 143.891 56.8373 143.834 56.8091C144.935 60.8166 147.616 71.1741 147.814 71.6256C93.7969 27.5429 85.6689 106.649 85.6689 106.649H78.3595C78.3595 106.649 70.2597 27.5146 16.2146 71.6256C16.4121 71.2023 19.0933 60.8166 20.194 56.8091C20.1093 56.8091 20.0248 56.8091 19.9683 56.8373C16.5252 64.8524 14.6906 73.7705 14.0979 82.4064C13.985 84.2127 12.2352 86.0753 11.2192 87.4864C9.97746 89.208 8.82055 90.9295 7.88923 92.8486C5.51858 97.731 4.07922 103.121 3.26078 108.455C0.692577 125.247 9.4977 138.653 24.9916 144.89C42.1788 151.804 63.656 153.103 82.0285 153.103C100.401 153.103 121.878 151.804 139.065 144.89C154.559 138.653 163.336 125.247 160.768 108.455Z" fill="#FCE3CD"/>
<path d="M3.26046 108.456C0.720484 125.248 9.49739 138.654 24.9913 144.891C42.1785 151.805 63.6556 153.103 82.0282 153.103C100.401 153.103 121.878 151.805 139.065 144.891C154.559 138.654 163.335 125.248 160.767 108.456" fill="#FCE3CD"/>
<path d="M82.0283 155.501C66.1111 155.501 42.7996 154.627 24.0884 147.091C7.15521 140.29 -1.73463 125.332 0.890013 108.089C1.08757 106.79 2.301 105.887 3.59921 106.085C4.89743 106.282 5.80042 107.496 5.60287 108.794C3.28866 123.977 10.8523 136.621 25.8382 142.66C43.7874 149.885 66.4779 150.704 81.9718 150.704C97.4656 150.704 120.184 149.857 138.134 142.66C153.119 136.621 160.711 123.977 158.397 108.794C158.199 107.496 159.102 106.282 160.4 106.085C161.699 105.887 162.912 106.79 163.11 108.089C165.735 125.332 156.844 140.29 139.94 147.091C121.228 154.627 97.9172 155.501 82 155.501H82.0283Z" fill="#F3981D"/>
<path d="M143.834 58.7844C143.609 57.8531 143.439 57.2604 143.383 57.1475C141.831 53.648 139.912 50.2331 137.71 47.0158C132.376 39.2548 125.349 32.5662 117.475 28.1918C114.963 26.8089 112.395 25.5107 109.742 24.3253C101.219 20.5154 92.0188 17.9472 82.8748 17.6367C82.5926 17.6367 82.3106 17.6367 82.0284 17.6367C81.7462 17.6367 81.4638 17.6367 81.1816 17.6367C72.0094 17.9472 62.8372 20.5154 54.3142 24.3253C51.6613 25.5107 49.0649 26.8089 46.5814 28.1918C38.7075 32.5662 31.6801 39.2548 26.3743 47.0158C24.173 50.2331 22.2539 53.648 20.7017 57.1475C20.6735 57.2604 20.5044 57.8531 20.2504 58.7844C19.1497 62.9895 16.4686 73.8832 16.271 74.3347C70.2879 27.9942 78.4159 111.136 78.4159 111.136H85.7253C85.7253 111.136 93.8251 28.0224 147.87 74.3347C147.673 73.8832 144.991 62.9895 143.891 58.7844H143.834Z" fill="#F6AD3C"/>
<path d="M3.28906 108.455C4.02283 103.544 5.34916 98.6902 7.40936 94.1747C8.42536 91.9452 9.63899 89.8003 11.0219 87.7683C12.0943 86.2443 13.9569 84.3535 14.098 82.4061C14.8035 71.8793 17.2588 61.4372 22.2259 52.2368" fill="#F6AD3C"/>
<path d="M3.28879 110.826C3.28879 110.826 3.03478 110.826 2.92189 110.826C1.62368 110.628 0.720689 109.415 0.918243 108.117C1.73668 102.698 3.20396 97.6744 5.23595 93.2153C6.36483 90.7882 7.63478 88.5022 9.0741 86.442C9.35632 86.0469 9.66698 85.6518 10.0056 85.2003C10.7676 84.2407 11.699 83.0272 11.7554 82.2652C12.5738 70.4684 15.396 59.998 20.1372 51.1363C20.7581 49.9792 22.1975 49.5559 23.3546 50.1767C24.5117 50.7976 24.9349 52.237 24.314 53.3941C19.8832 61.6349 17.2302 71.4561 16.4682 82.6038C16.3271 84.8334 14.8879 86.6678 13.7308 88.1354C13.4486 88.5022 13.1945 88.8409 12.9687 89.1513C11.6988 90.9858 10.5418 93.0178 9.554 95.1909C7.69134 99.2548 6.36487 103.855 5.6311 108.822C5.46176 110.007 4.4459 110.854 3.28879 110.854V110.826Z" fill="#F3981D"/>
<path d="M108.472 23.1681C100.627 20.1201 90.636 17.4672 82.0283 17.5801L108.472 23.1681Z" fill="#F6AD3C"/>
<path d="M108.472 25.567C108.19 25.567 107.879 25.5105 107.597 25.3977C98.5096 21.8699 89.2248 19.9226 82.0564 19.979H82.0281C80.7299 19.979 79.6572 18.9348 79.6572 17.6084C79.6572 16.2819 80.7017 15.2095 81.9999 15.2095C89.7609 15.1248 99.6949 17.2133 109.319 20.9668C110.532 21.4466 111.153 22.8295 110.673 24.043C110.306 24.9743 109.403 25.567 108.444 25.567H108.472Z" fill="#F3981D"/>
<path d="M55.6123 23.1681C63.458 20.1201 73.4486 17.4672 82.0281 17.5801L55.6123 23.1681Z" fill="#F6AD3C"/>
<path d="M55.6124 25.5671C54.6529 25.5671 53.7497 25.0027 53.3828 24.0431C52.903 22.8296 53.5238 21.4467 54.7374 20.9669C64.3611 17.2134 74.3236 15.1532 82.0564 15.2096C83.3829 15.2096 84.4269 16.3103 84.3987 17.6085C84.3987 18.9067 83.3264 19.9791 82.0282 19.9791C81.8871 19.9791 81.7176 19.9791 81.5483 19.9791C74.4646 19.9791 65.3488 21.9547 56.4589 25.3978C56.1767 25.5107 55.8946 25.5671 55.6124 25.5671Z" fill="#F3981D"/>
<path d="M41.7835 115.144H21.7739C20.4474 115.144 19.4033 114.071 19.4033 112.773C19.4033 111.475 20.4757 110.402 21.7739 110.402H41.7835C43.11 110.402 44.1823 111.475 44.1823 112.773C44.1823 114.071 43.11 115.144 41.7835 115.144Z" fill="#F6AD3C"/>
<path d="M41.7835 125.812H21.7739C20.4474 125.812 19.4033 124.739 19.4033 123.441C19.4033 122.143 20.4757 121.07 21.7739 121.07H41.7835C43.11 121.07 44.1823 122.143 44.1823 123.441C44.1823 124.739 43.11 125.812 41.7835 125.812Z" fill="#F6AD3C"/>
<path d="M142.31 115.144H122.301C121.003 115.144 119.93 114.071 119.93 112.773C119.93 111.475 121.003 110.402 122.301 110.402H142.31C143.637 110.402 144.709 111.475 144.709 112.773C144.709 114.071 143.637 115.144 142.31 115.144Z" fill="#F6AD3C"/>
<path d="M142.31 125.812H122.301C121.003 125.812 119.93 124.739 119.93 123.441C119.93 122.143 121.003 121.07 122.301 121.07H142.31C143.637 121.07 144.709 122.143 144.709 123.441C144.709 124.739 143.637 125.812 142.31 125.812Z" fill="#F6AD3C"/>
<path d="M86.7978 111.673C86.7978 110.318 84.6531 109.217 82.0285 109.217C79.4038 109.217 77.2588 110.318 77.2588 111.673C77.2588 113.027 79.4038 114.128 82.0285 114.128C84.6531 114.128 86.7978 113.027 86.7978 111.673Z" fill="#3F3B3A"/>
<path d="M103.618 100.468C103.674 101.4 104.464 102.105 105.367 102.049C106.299 101.992 106.976 101.202 106.92 100.299C106.863 99.3959 106.073 98.6904 105.17 98.7468C104.239 98.8033 103.561 99.5935 103.618 100.497V100.468Z" fill="#3F3B3A"/>
<path d="M105.198 98.7188L100.909 98.9727L101.191 104.081L107.146 103.742L106.948 100.045" fill="#3F3B3A"/>
<path d="M95.2643 104.448C95.095 101.625 97.635 99.1701 100.909 98.9726C104.211 98.775 107.005 100.92 107.146 103.742C107.315 106.564 104.775 109.02 101.501 109.217C98.2275 109.415 95.4055 107.27 95.2643 104.448Z" fill="#3F3B3A"/>
<path d="M60.4386 100.468C60.3821 101.4 59.5919 102.105 58.6888 102.049C57.7857 101.992 57.08 101.202 57.1365 100.299C57.1929 99.3959 57.9831 98.6904 58.8862 98.7468C59.7893 98.8033 60.495 99.5935 60.4386 100.497V100.468Z" fill="#3F3B3A"/>
<path d="M58.8578 98.7188L63.1476 98.9727L62.8654 104.081L56.9106 103.742L57.1363 100.045" fill="#3F3B3A"/>
<path d="M68.8205 104.448C68.9898 101.625 66.4499 99.1701 63.1761 98.9726C59.8741 98.775 57.0803 100.92 56.9392 103.742C56.7698 106.564 59.3098 109.02 62.5836 109.217C65.8855 109.415 68.6794 107.27 68.8205 104.448Z" fill="#3F3B3A"/>
<path d="M71.1348 18.7093C71.1348 18.7093 90.5797 17.1289 92.9503 2.82031C92.9503 2.82031 101.163 16.7338 89.507 23.8739" fill="#F6AD3C"/>
<path d="M89.5068 26.2727C88.7166 26.2727 87.9264 25.8776 87.4749 25.1439C86.7693 24.015 87.1363 22.5474 88.2652 21.8701C93.6274 18.5681 93.8533 13.4599 93.0066 9.5653C86.9107 19.697 72.0657 21.0517 71.332 21.1081C70.0338 21.221 68.8766 20.2332 68.7637 18.935C68.6508 17.6368 69.6386 16.4797 70.9368 16.3668C71.219 16.3668 88.5472 14.7017 90.5792 2.48158C90.7486 1.4938 91.5107 0.703587 92.4985 0.534255C93.4862 0.364922 94.474 0.816474 94.982 1.66313C98.2276 7.16643 101.53 19.3301 90.7487 25.9623C90.3536 26.1881 89.9301 26.301 89.5068 26.301V26.2727Z" fill="#F3981D"/>
<path d="M160.796 108.455C160.034 103.544 158.736 98.6902 156.675 94.1747C155.659 91.9452 154.446 89.8003 153.063 87.7683C151.991 86.2443 150.128 84.3535 149.987 82.4061C149.281 71.8793 146.826 61.4372 141.859 52.2368" fill="#F6AD3C"/>
<path d="M160.796 110.826C159.639 110.826 158.623 109.979 158.453 108.794C157.691 103.798 156.365 99.1982 154.531 95.1624C153.543 92.9893 152.386 90.9574 151.116 89.1229C150.89 88.8125 150.636 88.4738 150.354 88.1069C149.197 86.6112 147.757 84.7767 147.616 82.5472C146.854 71.4277 144.23 61.6065 139.771 53.3374C139.15 52.1803 139.573 50.741 140.73 50.1201C141.887 49.4992 143.326 49.9226 143.947 51.0797C148.717 59.9414 151.539 70.4117 152.357 82.2085C152.414 82.9987 153.345 84.1841 154.107 85.1718C154.446 85.5952 154.756 85.9903 155.039 86.3854C156.478 88.4456 157.776 90.7316 158.877 93.1587C160.909 97.6178 162.348 102.641 163.195 108.06C163.392 109.358 162.489 110.572 161.191 110.769C161.078 110.769 160.937 110.769 160.824 110.769L160.796 110.826Z" fill="#F3981D"/>
</svg>
