<svg width="164" height="150" viewBox="0 0 164 150" fill="none" xmlns="http://www.w3.org/2000/svg">
<path d="M19.8695 52.8247C18.0068 49.6356 16.6239 46.0514 15.6079 42.5237C10.782 25.8444 16.4828 7.13326 34.9682 3.29506C42.8704 1.65819 50.8854 2.22262 58.1949 5.80682C60.2269 6.79459 62.2307 7.95169 64.0651 9.2499C66.0124 10.6328 67.8469 12.1568 69.5684 13.7654" fill="#C8A287"/>
<path d="M19.8694 55.2234C19.051 55.2234 18.2608 54.8 17.8092 54.038C16.0312 50.9901 14.5354 47.3494 13.3219 43.2008C10.2457 32.5329 11.2899 21.7521 16.1723 13.6523C20.1516 7.02018 26.5016 2.64576 34.4884 0.98066C43.3219 -0.853771 51.8732 0.0775574 59.2673 3.66175C61.4686 4.73419 63.5571 5.94774 65.4479 7.3024C67.3106 8.62883 69.2015 10.181 71.2052 12.0155C72.1648 12.9186 72.2494 14.4143 71.3463 15.3739C70.4432 16.3334 68.9475 16.3899 67.9879 15.515C66.1253 13.8217 64.4037 12.3824 62.7104 11.197C61.0453 10.0117 59.1262 8.88283 57.1789 7.9515C50.6596 4.79063 43.3783 4.00042 35.4762 5.6373C28.8158 7.02017 23.5665 10.6326 20.2645 16.1077C16.1159 22.9938 15.241 32.6175 17.9221 41.8744C19.0227 45.6279 20.3492 48.9299 21.9296 51.6392C22.5787 52.7681 22.2118 54.2356 21.083 54.9129C20.7161 55.1387 20.2927 55.2516 19.8976 55.2516L19.8694 55.2234Z" fill="#B3896F"/>
<path d="M144.103 52.8247C145.965 49.6356 147.348 46.0514 148.364 42.5237C153.19 25.8444 147.489 7.13326 129.004 3.29506C121.102 1.65819 113.087 2.22262 105.777 5.80682C103.774 6.79459 101.742 7.95169 99.9071 9.2499C97.9598 10.6328 96.1254 12.1568 94.4038 13.7654" fill="#C8A287"/>
<path d="M144.103 55.2234C143.708 55.2234 143.284 55.1105 142.917 54.8847C141.789 54.2074 141.393 52.7681 142.071 51.6392C143.651 48.9299 145.006 45.6279 146.078 41.8744C148.759 32.6175 147.884 22.9938 143.736 16.1077C140.434 10.6326 135.185 7.02017 128.552 5.6373C120.65 4.00042 113.341 4.76241 106.85 7.9515C104.902 8.91105 102.983 10.0399 101.318 11.197C99.6249 12.4106 97.9033 13.8217 96.0407 15.515C95.0811 16.4181 93.5571 16.3617 92.6823 15.3739C91.7792 14.4143 91.8638 12.8903 92.8234 12.0155C94.8271 10.1528 96.718 8.62883 98.5807 7.3024C100.472 5.94774 102.56 4.73419 104.761 3.66175C112.127 0.0775574 120.707 -0.853771 129.54 0.98066C137.527 2.64576 143.849 7.02018 147.856 13.6523C152.739 21.7521 153.783 32.5329 150.707 43.2008C149.521 47.3212 147.997 50.9901 146.219 54.038C145.768 54.8 144.978 55.2234 144.159 55.2234H144.103Z" fill="#B3896F"/>
<path d="M160.782 102.834C160.048 97.9232 158.721 93.069 156.661 88.5535C155.645 86.324 154.432 84.1509 153.049 82.1471C151.976 80.6231 150.114 78.7322 149.973 76.7849C149.239 66.2581 146.812 55.816 141.845 46.6156C140.18 43.5394 138.26 40.6043 136.031 37.8668C131.628 32.4481 126.435 27.7068 120.622 23.8687C116.812 21.3287 112.72 19.212 108.43 17.5469C100.302 14.3861 89.8879 11.6767 81.1109 11.9872C71.9388 12.2976 62.7384 14.7247 54.2153 18.3654C51.5625 19.4942 48.9943 20.736 46.4825 22.0624C38.6086 26.2393 31.5531 32.5893 26.2473 39.9834C24.046 43.0596 22.1269 46.3052 20.5747 49.6353C16.6801 58.0455 14.6481 67.5845 14.0272 76.8131C13.9143 78.6193 12.1646 80.482 11.1486 81.8931C9.90681 83.6147 8.74971 85.3362 7.81838 87.2553C5.44773 92.1377 4.00841 97.5281 3.18997 102.89C0.621772 119.682 9.42703 133.116 24.9209 139.353C42.1363 146.268 63.6133 147.594 81.9858 147.594C100.358 147.594 121.863 146.296 139.051 139.353C154.545 133.116 163.35 119.682 160.782 102.89V102.834Z" fill="#C8A287"/>
<path d="M108.43 17.4908C100.302 14.3299 89.8879 11.6206 81.1109 11.931C71.9387 12.2415 62.7384 14.6686 54.2153 18.3092" fill="#C8A287"/>
<path d="M54.2155 20.6797C53.2842 20.6797 52.4093 20.1435 52.0142 19.2404C51.5062 18.0268 52.0706 16.6157 53.2842 16.1077C62.8232 12.0438 72.1647 9.84244 81.0264 9.56022C92.2023 9.16511 104.535 13.4549 109.277 15.2893C110.49 15.7691 111.111 17.1519 110.631 18.3655C110.151 19.6073 108.769 20.1999 107.555 19.7201C98.0725 16.0231 88.477 14.0475 81.1957 14.3015C72.8985 14.5837 64.1496 16.6722 55.1468 20.4821C54.8364 20.6232 54.5259 20.6797 54.2155 20.6797Z" fill="#B3896F"/>
<path d="M26.2473 39.9269C24.046 43.0031 22.1269 46.2486 20.5747 49.5788C16.6801 57.989 14.6481 67.528 14.0272 76.7566C13.9143 78.5628 12.1646 80.4255 11.1486 81.8366C9.90681 83.5581 8.74971 85.2797 7.81838 87.1988C5.44773 92.0812 4.00841 97.4716 3.18997 102.834C0.621772 119.626 9.42703 133.06 24.9209 139.297C42.1363 146.211 63.6133 147.537 81.9858 147.537C100.358 147.537 121.863 146.239 139.051 139.297C154.545 133.06 163.35 119.626 160.782 102.834C160.048 97.9231 158.721 93.069 156.661 88.5534C155.645 86.3239 154.432 84.1508 153.049 82.147C151.976 80.6231 150.114 78.7322 149.973 76.7849C149.239 66.258 146.812 55.8159 141.845 46.6155C140.18 43.5393 138.26 40.6042 136.031 37.8667" fill="#C8A287"/>
<path d="M81.9859 149.908C66.0687 149.908 42.7573 149.033 24.0179 141.498C7.08473 134.696 -1.80519 119.739 0.819453 102.467C1.75078 96.3144 3.38765 90.8393 5.67364 86.1545C6.77429 83.8685 8.15717 81.8929 9.20139 80.4536C9.39894 80.1714 9.62471 79.8892 9.87871 79.5787C10.556 78.7039 11.572 77.3774 11.6285 76.6154C12.334 66.3144 14.6765 56.606 18.4018 48.591C20.0104 45.1197 21.986 41.7612 24.3002 38.5439C25.0622 37.4715 26.5579 37.2457 27.6304 38.0077C28.7028 38.7697 28.9286 40.2655 28.1666 41.3379C26.0217 44.3012 24.1873 47.4339 22.7197 50.623C19.2484 58.13 17.0471 67.2175 16.3698 76.9541C16.2287 79.1554 14.7893 81.0181 13.6322 82.5138C13.4347 82.7678 13.2371 83.0218 13.0678 83.2758C11.6567 85.2231 10.6972 86.7471 9.96338 88.2711C7.90317 92.5326 6.40741 97.5562 5.53253 103.201C3.21832 118.384 10.7818 131.056 25.7959 137.095C43.7451 144.32 66.4638 145.167 81.9859 145.167C97.508 145.167 120.227 144.32 138.176 137.095C153.19 131.056 160.754 118.384 158.439 103.201C157.677 98.2053 156.351 93.6051 154.516 89.5411C153.529 87.368 152.372 85.336 151.102 83.5016C150.876 83.1629 150.622 82.8243 150.34 82.4856C149.183 81.0181 147.771 79.1554 147.602 76.9541C146.84 65.8064 144.187 55.9851 139.756 47.7443C138.148 44.7246 136.257 41.9306 134.168 39.3624C133.35 38.3464 133.491 36.8506 134.507 36.004C135.523 35.1855 137.019 35.3266 137.865 36.3426C140.123 39.1366 142.183 42.2128 143.933 45.4865C148.703 54.3483 151.525 64.8186 152.343 76.6437C152.4 77.4056 153.388 78.6756 154.093 79.5787C154.432 80.0021 154.742 80.4254 155.024 80.8205C156.464 82.8807 157.762 85.1667 158.863 87.5938C160.895 92.0529 162.334 97.0764 163.181 102.495C165.805 119.767 156.915 134.725 139.982 141.526C121.271 149.061 97.9314 149.936 82.0141 149.936L81.9859 149.908Z" fill="#B3896F"/>
<path d="M53.2278 110.567C53.2278 106.446 46.9907 103.116 39.3143 103.116C31.6379 103.116 25.4009 106.446 25.4009 110.567C25.4009 114.687 31.6379 118.017 39.3143 118.017C46.9907 118.017 53.2278 114.687 53.2278 110.567Z" fill="#B3896F"/>
<path d="M110.744 110.567C110.744 106.446 116.981 103.116 124.658 103.116C132.334 103.116 138.571 106.446 138.571 110.567C138.571 114.687 132.334 118.017 124.658 118.017C116.981 118.017 110.744 114.687 110.744 110.567Z" fill="#B3896F"/>
<path d="M93.7826 108.168C93.7826 108.168 92.2021 102.891 81.9858 102.891C71.7694 102.891 70.189 108.168 70.189 108.168" fill="#C8A287"/>
<path d="M70.1891 110.567C69.9634 110.567 69.7376 110.539 69.4836 110.454C68.2136 110.087 67.508 108.704 67.9032 107.462C67.9878 107.18 70.1045 100.463 81.9859 100.463C93.8674 100.463 95.984 107.18 96.0687 107.462C96.4356 108.732 95.73 110.059 94.4601 110.426C93.2183 110.793 91.9201 110.115 91.525 108.874C91.4121 108.62 89.9445 105.233 81.9859 105.233C74.0273 105.233 72.5033 108.732 72.4469 108.902C72.1365 109.918 71.2051 110.567 70.1891 110.567Z" fill="#B3896F"/>
<path d="M86.7553 110.567C86.7553 109.212 84.6105 108.111 81.9858 108.111C79.3612 108.111 77.2163 109.212 77.2163 110.567C77.2163 111.921 79.3612 113.022 81.9858 113.022C84.6105 113.022 86.7553 111.921 86.7553 110.567Z" fill="#3F3B3A"/>
<path d="M68.8065 102.185C68.8065 105.487 66.1254 108.168 62.8234 108.168C59.5214 108.168 56.8403 105.487 56.8403 102.185C56.8403 98.8827 59.5214 96.2017 62.8234 96.2017C66.1254 96.2017 68.8065 98.8827 68.8065 102.185Z" fill="#3F3B3A"/>
<path d="M107.273 102.185C107.273 105.487 104.592 108.168 101.29 108.168C97.9877 108.168 95.3066 105.487 95.3066 102.185C95.3066 98.8827 97.9877 96.2017 101.29 96.2017C104.592 96.2017 107.273 98.8827 107.273 102.185Z" fill="#3F3B3A"/>
<path d="M75.3538 26.7754C75.9464 32.194 73.2089 36.1451 70.1045 40.1244C72.1647 42.6079 82.24 41.7048 84.8082 40.576C89.9163 38.5157 93.2748 32.8149 93.8392 27.7067" fill="#C8A287"/>
<path d="M76.6802 44.0755C73.2371 44.0755 69.8505 43.4829 68.2983 41.6202C67.5927 40.7453 67.5645 39.5036 68.2418 38.6287C71.2334 34.7905 73.4629 31.4885 73.0113 27.0012C72.8702 25.703 73.8298 24.5177 75.128 24.3766C76.4544 24.2355 77.6115 25.195 77.7526 26.4932C78.2889 31.6014 76.398 35.496 73.8298 39.1367C76.7649 39.5318 82.0706 39.1367 83.8768 38.3747C88.3077 36.5967 91.0452 31.5167 91.4967 27.4245C91.6379 26.1263 92.8514 25.1668 94.1214 25.3079C95.4196 25.449 96.3792 26.6343 96.238 27.9325C95.6454 33.2665 92.0894 40.1809 85.7112 42.7491C84.4695 43.3135 80.5466 44.0473 76.6802 44.0473V44.0755Z" fill="#B3896F"/>
</svg>
