<svg width="164" height="180" viewBox="0 0 164 180" fill="none" xmlns="http://www.w3.org/2000/svg">
<path d="M143.482 83.1892C143.482 83.1892 163.293 10.828 130.866 3.20805C130.866 3.20805 96.3791 -3.84746 95.0244 60.6963" fill="white"/>
<path d="M143.482 85.5881C143.284 85.5881 143.058 85.5881 142.861 85.5034C141.591 85.1647 140.857 83.8383 141.196 82.5683C141.337 82.0885 154.037 34.8167 141.76 14.1864C138.994 9.52974 135.241 6.70754 130.33 5.55044C130.076 5.49399 121.864 3.99822 113.707 10.574C103.576 18.7583 97.9313 36.1149 97.3951 60.7809C97.3951 62.1073 96.3226 63.1233 94.968 63.1233C93.6416 63.1233 92.5973 61.9945 92.6256 60.6963C93.19 34.1111 99.3142 15.9926 110.829 6.7922C120.763 -1.13818 130.923 0.837358 131.346 0.922024C137.583 2.38957 142.437 6.03021 145.852 11.7875C159.173 34.1676 146.36 81.8628 145.796 83.8665C145.514 84.939 144.554 85.6163 143.51 85.6163L143.482 85.5881Z" fill="#F8C6BE"/>
<path d="M20.5182 83.1892C20.5182 83.1892 0.706337 10.828 33.1334 3.20805C33.1334 3.20805 67.6207 -3.84746 68.9753 60.6963" fill="white"/>
<path d="M20.5181 85.5879C19.4739 85.5879 18.5144 84.8824 18.2322 83.8381C17.6677 81.8062 4.85494 34.1392 18.1757 11.7591C21.5906 6.00183 26.4447 2.36119 32.6254 0.921866C33.1334 0.808978 43.2933 -1.13834 53.1992 6.79204C64.7138 15.9924 70.838 34.111 71.4024 60.6961C71.4024 62.0225 70.3864 63.095 69.06 63.1232C69.06 63.1232 69.0317 63.1232 69.0035 63.1232C67.7053 63.1232 66.6611 62.079 66.6329 60.7808C66.1249 36.03 60.424 18.6453 50.2359 10.5173C42.0233 3.96984 33.726 5.5785 33.6414 5.5785C28.7872 6.70738 25.0337 9.5578 22.2679 14.1862C9.96311 34.8447 22.6912 82.0884 22.8323 82.5681C23.171 83.8381 22.4372 85.1364 21.1672 85.5032C20.9697 85.5597 20.7439 85.5879 20.5464 85.5879H20.5181Z" fill="#F8C6BE"/>
<path d="M160.81 132.295C160.076 127.385 158.75 122.53 156.69 118.015C155.674 115.785 154.46 113.612 153.077 111.609C152.005 110.085 150.142 108.194 150.001 106.246C149.295 95.7195 146.84 85.2774 141.873 76.077C140.208 73.0008 138.289 70.0657 136.059 67.3282C131.657 61.9096 126.464 57.1683 120.65 53.3301C116.84 50.8183 112.748 48.6735 108.458 47.0084C100.33 43.8475 89.9163 41.1382 81.1392 41.4486C71.9671 41.7591 62.7667 44.1861 54.2437 47.8268C51.5908 48.9557 48.9944 50.1974 46.5108 51.5239C38.6369 55.7007 31.6096 62.0507 26.2757 69.4449C24.0743 72.5211 22.1553 75.7666 20.6031 79.0968C16.6802 87.5069 14.6764 97.046 14.0555 106.275C13.9426 108.081 12.1929 109.943 11.1769 111.355C9.93513 113.076 8.77803 114.798 7.8467 116.717C5.47605 121.599 4.00851 126.99 3.21829 132.352C0.650092 149.144 9.45535 162.577 24.9492 168.815C42.1646 175.729 63.6416 177.055 82.0141 177.055C100.387 177.055 121.864 175.757 139.079 168.815C154.573 162.577 163.35 149.144 160.81 132.352V132.295Z" fill="white"/>
<path d="M108.429 46.98C100.301 43.8192 89.8874 41.1099 81.1104 41.4203C71.9383 41.7307 62.7379 44.1578 54.2148 47.7985" fill="white"/>
<path d="M54.2433 50.1691C53.312 50.1691 52.4371 49.6329 52.042 48.7298C51.534 47.5162 52.0984 46.1051 53.312 45.5971C62.851 41.5332 72.1925 39.3318 81.0542 39.0496C92.2866 38.6827 104.563 42.9443 109.304 44.7787C110.518 45.2585 111.139 46.6413 110.659 47.8549C110.179 49.0684 108.796 49.6893 107.583 49.2095C98.1003 45.5125 88.5048 43.5651 81.2235 43.7909C72.9263 44.0731 64.1775 46.1616 55.1746 49.9715C54.8642 50.0844 54.5538 50.1691 54.2433 50.1691Z" fill="#F8C6BE"/>
<path d="M26.2474 69.3888C24.0461 72.465 22.1269 75.7105 20.5747 79.0407C16.6519 87.4509 14.6481 96.9899 14.0272 106.219C13.9143 108.025 12.1646 109.887 11.1486 111.299C9.90681 113.02 8.74971 114.742 7.81838 116.661C5.44773 121.543 3.98019 126.933 3.18997 132.296C0.621771 149.088 9.42705 162.521 24.9209 168.759C42.1363 175.673 63.6133 176.999 81.9858 176.999C100.358 176.999 121.835 175.701 139.051 168.759C154.545 162.521 163.322 149.088 160.782 132.296C160.048 127.385 158.721 122.531 156.661 118.015C155.645 115.786 154.432 113.613 153.049 111.609C151.976 110.085 150.114 108.194 149.973 106.247C149.267 95.72 146.812 85.2778 141.845 76.0774C140.18 73.0012 138.26 70.0661 136.031 67.3286" fill="white"/>
<path d="M81.9857 179.37C66.0685 179.37 42.7289 178.495 24.0177 170.96C7.0845 164.158 -1.80544 149.2 0.819209 131.929C1.75054 125.804 3.38741 120.301 5.6734 115.616C6.77405 113.359 8.15693 111.383 9.20115 109.887C9.3987 109.605 9.62447 109.323 9.87847 109.012C10.5558 108.137 11.5718 106.811 11.6282 106.049C12.3338 95.7198 14.6762 86.0396 18.4015 78.0246C20.0102 74.5533 21.9857 71.1948 24.2999 67.9775C25.0619 66.9051 26.5577 66.6793 27.6301 67.4413C28.7025 68.2033 28.9283 69.6991 28.1663 70.7715C26.0497 73.7348 24.2153 76.8392 22.7195 80.0566C19.2482 87.5636 17.0469 96.6511 16.3695 106.388C16.2284 108.589 14.7891 110.452 13.632 111.947C13.4344 112.201 13.2369 112.455 13.0675 112.709C12.108 114.008 10.9227 115.757 9.96313 117.705C7.8747 121.966 6.40716 126.99 5.53228 132.634C3.21807 147.818 10.8098 160.489 25.7957 166.529C43.7449 173.754 66.4636 174.6 81.9857 174.6C97.5078 174.6 120.227 173.754 138.176 166.529C153.19 160.489 160.753 147.818 158.439 132.634C157.677 127.639 156.351 123.039 154.516 119.003C153.528 116.83 152.371 114.798 151.101 112.963C150.876 112.625 150.622 112.286 150.339 111.947C149.182 110.452 147.743 108.617 147.602 106.388C146.84 95.24 144.187 85.4187 139.756 77.1779C138.147 74.1864 136.257 71.3642 134.168 68.796C133.35 67.78 133.491 66.2842 134.507 65.4375C135.523 64.6191 137.019 64.7602 137.865 65.7762C140.123 68.5702 142.183 71.6464 143.933 74.9201C148.702 83.7819 151.525 94.2522 152.343 106.077C152.4 106.867 153.387 108.109 154.093 109.041C154.432 109.464 154.742 109.887 155.024 110.254C156.464 112.314 157.762 114.6 158.862 117.027C160.894 121.486 162.362 126.51 163.18 131.929C165.805 149.2 156.915 164.158 139.982 170.96C121.271 178.495 97.9311 179.37 82.0139 179.37H81.9857Z" fill="#F8C6BE"/>
<path d="M53.2273 140.028C53.2273 135.908 46.9902 132.578 39.3138 132.578C31.6374 132.578 25.4004 135.908 25.4004 140.028C25.4004 144.149 31.6374 147.479 39.3138 147.479C46.9902 147.479 53.2273 144.149 53.2273 140.028Z" fill="#F8C6BE"/>
<path d="M110.772 140.028C110.772 135.908 117.009 132.578 124.685 132.578C132.362 132.578 138.599 135.908 138.599 140.028C138.599 144.149 132.362 147.479 124.685 147.479C117.009 147.479 110.772 144.149 110.772 140.028Z" fill="#F8C6BE"/>
<path d="M86.7554 140.028C86.7554 138.673 84.6105 137.573 81.9858 137.573C79.3612 137.573 77.2163 138.673 77.2163 140.028C77.2163 141.383 79.3612 142.483 81.9858 142.483C84.6105 142.483 86.7554 141.383 86.7554 140.028Z" fill="#3F3B3A"/>
<path d="M68.806 131.646C68.806 134.948 66.1249 137.629 62.8229 137.629C59.5209 137.629 56.8398 134.948 56.8398 131.646C56.8398 128.344 59.5209 125.663 62.8229 125.663C66.1249 125.663 68.806 128.344 68.806 131.646Z" fill="#3F3B3A"/>
<path d="M107.301 131.646C107.301 134.948 104.619 137.629 101.318 137.629C98.0155 137.629 95.3345 134.948 95.3345 131.646C95.3345 128.344 98.0155 125.663 101.318 125.663C104.619 125.663 107.301 128.344 107.301 131.646Z" fill="#3F3B3A"/>
<path d="M75.3816 56.2368C75.9461 61.6554 73.2367 65.6065 70.1323 69.5858C72.1925 72.0694 82.2678 71.1663 84.836 70.0374C89.9441 67.9772 93.3026 62.2763 93.867 57.1681" fill="white"/>
<path d="M76.6797 73.5653C73.2649 73.5653 69.85 72.9726 68.2978 71.11C67.5922 70.2633 67.564 69.0215 68.2413 68.1184C71.2329 64.2802 73.4624 60.9783 72.9826 56.491C72.8415 55.1928 73.8011 54.0074 75.0993 53.8663C76.4257 53.7252 77.5828 54.6848 77.7239 55.983C78.2601 61.0911 76.3693 64.9858 73.8011 68.6264C76.7362 69.0215 82.0419 68.6264 83.8481 67.8644C88.279 66.0864 91.0165 61.0065 91.4681 56.9143C91.6092 55.6161 92.8227 54.6565 94.0927 54.7976C95.3909 54.9388 96.3504 56.1241 96.2093 57.4223C95.6167 62.7562 92.0607 69.6706 85.6825 72.2388C84.4408 72.8033 80.5179 73.5653 76.6515 73.5653H76.6797Z" fill="#F8C6BE"/>
<path d="M81.9857 145.08C81.1108 145.08 80.4053 144.374 80.4053 143.499V139.153C80.4053 138.278 81.1108 137.573 81.9857 137.573C82.8606 137.573 83.5661 138.278 83.5661 139.153V143.499C83.5661 144.374 82.8606 145.08 81.9857 145.08Z" fill="#3F3B3A"/>
</svg>
