<svg width="164" height="142" viewBox="0 0 164 142" fill="none" xmlns="http://www.w3.org/2000/svg">
<path d="M159.766 112.782C161.205 107.985 161.6 102.707 160.753 97.0063C159.568 88.9631 157.113 81.4278 152.428 74.8238C151.496 73.5256 150.029 71.8041 149.916 70.1108C148.957 55.6329 144.949 41.3243 135.974 29.9508C128.665 20.694 119.211 13.3281 108.402 8.98187C100.302 5.73634 89.8879 2.91414 81.1109 3.22459C69.0883 3.64792 57.0375 7.853 46.5107 13.6103C35.363 19.7062 25.9086 30.3177 20.6029 42.0863C16.7083 50.7505 14.6763 60.5999 14.0554 70.1108C13.9425 71.6912 12.6442 73.2434 11.8257 74.4569C10.8097 75.9245 9.76559 77.3638 8.89071 78.9442C5.95562 84.4475 4.14941 90.8257 3.24631 97.0063C2.39965 102.679 2.79469 107.985 4.23401 112.754C26.1625 108.408 52.9735 105.812 81.9858 105.812C110.998 105.812 137.837 108.38 159.737 112.754L159.766 112.782Z" fill="#A0C649"/>
<path d="M24.9777 130.873C42.1649 137.505 63.6418 138.747 82.0143 138.747C100.387 138.747 121.864 137.505 139.051 130.873C149.465 126.865 156.831 119.697 159.766 110.581C137.838 106.517 110.998 104.118 82.0143 104.118C53.0303 104.118 26.1912 106.517 4.2627 110.553C7.19778 119.697 14.5638 126.837 24.9777 130.844V130.873Z" fill="#FAE4CF"/>
<path d="M77.0752 26.3666C77.555 30.9386 79.6998 29.2735 77.0752 32.6319C78.825 34.7203 87.3198 33.9583 89.4647 32.9988C93.7827 31.249 96.6049 26.4513 97.0847 22.1333" fill="#A0C649"/>
<path d="M82.6351 36.3572C79.6435 36.3572 76.652 35.821 75.2409 34.1277C74.5354 33.281 74.5071 32.0393 75.1844 31.1362C75.4384 30.7975 75.636 30.5435 75.7771 30.3742C75.3538 29.5557 74.9022 28.4551 74.7047 26.5924C74.5636 25.2942 75.5231 24.1089 76.8213 23.9678C78.1196 23.8267 79.3049 24.7862 79.446 26.0844C79.5871 27.4391 79.8693 27.9471 80.1233 28.3986C80.8006 29.6122 80.8571 30.5717 80.5467 31.5031C82.9455 31.7571 87.0942 31.4184 88.5053 30.7975C92.1177 29.33 94.3471 25.2095 94.714 21.8511C94.8551 20.5529 96.0124 19.5934 97.3388 19.7345C98.637 19.8756 99.5966 21.0609 99.4554 22.3591C98.9474 26.9593 95.8711 32.9424 90.3396 35.1719C89.239 35.6517 85.9088 36.329 82.6068 36.329L82.6351 36.3572Z" fill="#83AD35"/>
<path d="M82.0141 141.146C66.1251 141.146 42.7856 140.271 24.0744 132.764C7.14122 125.962 -1.7488 111.005 0.875846 93.7609C1.92006 86.9029 3.98037 80.553 6.80257 75.4448C7.59279 74.0337 8.49581 72.7637 9.3707 71.5501L10.3021 70.2519C10.8383 69.5464 11.6284 68.4739 11.6567 67.8813C12.3622 57.5802 14.7047 47.8719 18.43 39.8568C24.0744 27.7214 33.8956 17.2792 45.382 11.1833C57.4046 4.80509 69.7376 1.24911 81.0264 0.854004C81.478 0.854004 81.9577 0.854004 82.4375 0.854004C90.0857 0.854004 99.8505 2.94243 109.277 6.61129C120.227 10.8728 130.104 18.1541 137.837 27.6367C146.332 38.0788 151.186 51.6254 152.315 67.9095C152.372 68.5868 153.275 69.8004 153.896 70.6188L154.375 71.2397C158.891 77.3921 161.741 84.758 163.124 93.7609C165.749 111.005 156.859 125.962 139.954 132.764C121.243 140.299 97.9313 141.146 82.0141 141.146ZM82.494 5.62353C82.0707 5.62353 81.6473 5.62353 81.2522 5.62353C70.669 5.99041 59.0697 9.34883 47.668 15.4166C37.2541 20.9481 27.969 30.8258 22.8044 41.8888C19.3331 49.3676 17.1318 58.4834 16.4827 68.2199C16.3416 70.1955 15.0998 71.8888 14.1967 73.1024L13.2936 74.3441C12.4752 75.5012 11.6568 76.6019 11.0359 77.759C8.46767 82.3874 6.60492 88.1447 5.64537 94.4664C3.33117 109.65 10.8948 122.293 25.9089 128.333C43.8581 135.558 66.5485 136.376 82.0706 136.376C97.5927 136.376 120.283 135.529 138.232 128.333C153.218 122.293 160.782 109.65 158.496 94.4664C157.254 86.2538 154.658 79.5652 150.622 74.0337L150.199 73.4692C149.183 72.1428 147.8 70.3084 147.659 68.2199C146.614 52.9518 142.099 40.3084 134.253 30.6564C127.056 21.7947 117.856 15.0215 107.668 11.0704C98.8063 7.62729 89.6623 5.65175 82.5786 5.65175L82.494 5.62353Z" fill="#83AD35"/>
<path d="M50.9418 96.075C50.9418 91.6442 44.225 88.0317 35.9277 88.0317C27.6304 88.0317 20.9136 91.6442 20.9136 96.075C20.9136 100.506 27.6304 104.118 35.9277 104.118C44.225 104.118 50.9418 100.506 50.9418 96.075Z" fill="#F5B2B2"/>
<path d="M113.086 96.075C113.086 91.6442 119.803 88.0317 128.101 88.0317C136.398 88.0317 143.115 91.6442 143.115 96.075C143.115 100.506 136.398 104.118 128.101 104.118C119.803 104.118 113.086 100.506 113.086 96.075Z" fill="#F5B2B2"/>
<path d="M68.8061 88.9065C68.8061 92.2085 66.125 94.8614 62.8513 94.8614C59.5775 94.8614 56.8965 92.1803 56.8965 88.9065C56.8965 85.6328 59.5775 82.9517 62.8513 82.9517C66.125 82.9517 68.8061 85.6045 68.8061 88.9065Z" fill="#3F3B3A"/>
<path d="M107.132 88.9065C107.132 92.2085 104.451 94.8614 101.177 94.8614C97.9032 94.8614 95.2222 92.1803 95.2222 88.9065C95.2222 85.6328 97.875 82.9517 101.177 82.9517C104.479 82.9517 107.132 85.6045 107.132 88.9065Z" fill="#3F3B3A"/>
<path d="M93.2181 118.483C93.1899 117.975 93.1334 117.411 92.9923 116.931C92.4843 115.266 91.4118 113.855 90.1418 112.698C89.3799 112.021 88.5051 111.484 87.8278 110.694C87.1505 109.904 87.0093 108.86 86.8682 107.844C86.8117 107.307 86.7552 106.743 86.7834 106.207L79.7279 105.586C79.5868 105.586 79.841 108.634 79.8692 108.775C80.1514 110.638 80.6593 112.557 81.8728 114.024C82.6913 114.984 83.6791 115.774 84.7515 116.451C85.7957 117.129 86.4166 118.512 86.3037 119.725C87.0375 119.02 87.7431 118.314 88.4768 117.609C89.5211 116.621 90.537 117.439 91.5812 117.891C92.0892 118.117 92.6819 118.286 93.2181 118.455V118.483Z" fill="#F5B2B2"/>
<path d="M86.3039 121.362C86.0781 121.362 85.8241 121.306 85.5984 121.193C85.0057 120.91 84.6388 120.261 84.6952 119.612C84.7517 118.963 84.4131 118.173 83.8769 117.834C82.4658 116.931 81.4497 116.056 80.6313 115.097C79.0226 113.149 78.5147 110.722 78.2607 109.057C77.7527 105.473 78.2606 104.824 78.4864 104.598C78.7968 104.259 79.2485 104.034 79.7001 104.034L86.9249 104.683C87.7998 104.767 88.4205 105.529 88.3641 106.376C88.3359 106.828 88.3641 107.307 88.4206 107.703C88.5052 108.521 88.6464 109.255 89.0133 109.706C89.3237 110.045 89.7188 110.384 90.1703 110.722C90.5372 111.005 90.8759 111.259 91.2145 111.569C92.8796 113.121 94.0086 114.786 94.5166 116.536C94.686 117.129 94.7423 117.721 94.7988 118.258C94.827 118.794 94.6294 119.358 94.206 119.697C93.7827 120.036 93.2466 120.205 92.7386 120.036C92.146 119.866 91.5251 119.64 90.9606 119.415C90.7631 119.33 90.5372 119.217 90.3396 119.132C90.0856 119.02 89.6906 118.822 89.5495 118.794C89.098 119.302 88.5899 119.753 88.1102 120.233L87.4046 120.91C87.0942 121.193 86.699 121.362 86.3039 121.362ZM81.3368 107.364C81.365 107.928 81.4216 108.436 81.4498 108.634C81.732 110.638 82.2682 112.049 83.1148 113.065C83.7075 113.77 84.4977 114.448 85.6266 115.153C86.2475 115.548 86.7554 116.113 87.1505 116.762C87.2352 116.677 87.32 116.621 87.4046 116.536C88.3642 115.633 89.7188 115.492 90.7348 115.859C90.3115 115.21 89.7752 114.561 89.0696 113.94C88.8156 113.714 88.5335 113.488 88.2512 113.262C87.715 112.867 87.1223 112.416 86.6143 111.795C85.6548 110.666 85.4291 109.311 85.288 108.098C85.288 107.985 85.2597 107.872 85.2597 107.731L81.3651 107.392L81.3368 107.364Z" fill="#F5B2B2"/>
<path d="M73.83 107.985C65.8996 107.985 59.0699 104.993 58.6748 104.824C57.4895 104.288 56.9251 102.877 57.4613 101.663C57.9975 100.449 59.4086 99.9132 60.6221 100.449C60.735 100.506 72.0237 105.417 81.1677 101.973C82.4094 101.522 83.7642 102.143 84.2439 103.356C84.6955 104.598 84.0746 105.953 82.8611 106.432C79.8978 107.561 76.7934 107.956 73.8583 107.956L73.83 107.985Z" fill="#3F3B3A"/>
<path d="M90.17 107.985C87.2349 107.985 84.1304 107.561 81.1671 106.461C79.9254 106.009 79.3045 104.626 79.7843 103.385C80.2641 102.143 81.6188 101.522 82.8606 102.002C92.0609 105.473 103.293 100.506 103.406 100.478C104.62 99.9415 106.002 100.478 106.567 101.691C107.103 102.905 106.567 104.316 105.353 104.852C104.958 105.021 98.1286 108.013 90.1982 108.013L90.17 107.985Z" fill="#3F3B3A"/>
<path d="M67.4514 22.2461C68.0441 27.6647 65.3066 31.6158 62.2021 35.5951C64.2624 38.0786 74.3375 37.1755 76.9057 36.0467C82.0139 33.9864 85.3723 28.2856 85.9368 23.1774" fill="#A0C649"/>
<path d="M68.7496 39.5462C65.3347 39.5462 61.9197 38.9536 60.3675 37.0909C59.662 36.2443 59.6339 35.0025 60.3112 34.0994C63.3027 30.2612 65.5323 26.9592 65.0525 22.4719C64.9114 21.1737 65.8709 19.9884 67.1691 19.8473C68.4956 19.7062 69.6527 20.6657 69.7938 21.9639C70.33 27.0721 68.4391 30.9667 65.8709 34.6074C68.806 34.9743 74.1117 34.6074 75.9179 33.8172C80.3487 32.0392 83.0863 26.9592 83.5379 22.867C83.679 21.5688 84.8925 20.6093 86.1625 20.7504C87.4607 20.8915 88.4202 22.0768 88.2791 23.375C87.6865 28.709 84.1306 35.6234 77.7524 38.1916C76.5106 38.756 72.5877 39.4898 68.7213 39.4898L68.7496 39.5462Z" fill="#83AD35"/>
</svg>
