<svg width="164" height="154" viewBox="0 0 164 154" fill="none" xmlns="http://www.w3.org/2000/svg">
<path d="M160.758 106.792C159.572 99.0026 157.145 91.6931 152.432 85.3149C151.501 84.0449 150.033 82.3798 149.92 80.7429C148.961 66.6884 144.953 52.8314 135.979 41.8248C128.669 32.8502 119.215 25.71 108.406 21.5049C100.306 18.3441 89.8922 15.6348 81.1152 15.9452C69.0926 16.3403 57.0418 20.4043 46.515 25.9922C35.3673 31.8906 25.913 42.1634 20.6072 53.5651C16.7126 61.9753 14.6806 71.5143 14.0597 80.7429C13.9468 82.2669 12.6485 83.7627 11.83 84.948C10.8141 86.3591 9.7699 87.7702 8.89502 89.2942C5.93171 94.6 4.1537 100.809 3.22237 106.792C0.682391 123.584 9.45947 136.989 24.9533 143.226C42.1405 150.141 63.6175 151.467 81.9901 151.467C100.363 151.467 121.839 150.169 139.027 143.226C154.52 136.989 163.298 123.584 160.729 106.792H160.758Z" fill="#FFE55F"/>
<path d="M81.9904 153.838C66.0732 153.838 42.7617 152.963 24.0505 145.456C7.11734 138.626 -1.77266 123.697 0.880212 106.453C1.92443 99.595 3.98474 93.2451 6.80694 88.1369C7.59715 86.7258 8.50018 85.484 9.37506 84.2422L10.3064 82.9723C10.8427 82.2667 11.6328 81.1943 11.661 80.6016C12.3666 70.3006 14.7091 60.5922 18.4344 52.6054C24.0788 40.4699 33.9 29.9995 45.3864 23.9318C57.4089 17.5536 69.742 13.9694 81.0308 13.6025C81.5105 13.6025 81.9621 13.6025 82.4419 13.6025C90.09 13.6025 99.8549 15.691 109.281 19.3598C120.231 23.6214 130.109 30.9026 137.842 40.3852C146.336 50.8274 151.191 64.3739 152.32 80.6298C152.376 81.3071 153.279 82.5207 153.9 83.3391L154.38 83.96C158.895 90.1124 161.774 97.4784 163.129 106.481C165.753 123.725 156.863 138.683 139.958 145.484C121.247 153.019 97.9357 153.866 82.0185 153.866L81.9904 153.838ZM82.4419 18.3156C82.0185 18.3156 81.5952 18.3156 81.2001 18.3156C70.6168 18.6825 59.0175 22.0691 47.6158 28.1087C37.2019 33.6402 27.9169 43.5179 22.7805 54.5809C19.3092 62.0597 17.1079 71.1754 16.4588 80.912C16.3177 82.9158 15.0759 84.5809 14.1728 85.8227L13.2697 87.0644C12.4231 88.2215 11.6329 89.3222 11.012 90.4793C8.44378 95.1077 6.58121 100.893 5.62166 107.187C3.30746 122.37 10.8709 135.014 25.885 141.053C43.8342 148.278 66.5246 149.096 82.0467 149.096C97.5688 149.096 120.259 148.25 138.209 141.053C153.194 135.014 160.758 122.37 158.444 107.187C157.202 98.9459 154.606 92.2855 150.57 86.754L150.146 86.1896C149.13 84.8631 147.748 83.0287 147.607 80.9403C146.562 65.6722 142.047 53.0287 134.201 43.3768C127.004 34.5151 117.804 27.7418 107.616 23.7907C98.7541 20.3476 89.6103 18.3721 82.5266 18.3721L82.4419 18.3156Z" fill="#FDD23F"/>
<path d="M50.9179 110.009C50.9179 105.578 44.201 101.966 35.9038 101.966C27.6065 101.966 20.8896 105.578 20.8896 110.009C20.8896 114.44 27.6065 118.052 35.9038 118.052C44.201 118.052 50.9179 114.44 50.9179 110.009Z" fill="#FDD23F"/>
<path d="M113.062 110.009C113.062 105.578 119.779 101.966 128.077 101.966C136.374 101.966 143.091 105.578 143.091 110.009C143.091 114.44 136.374 118.052 128.077 118.052C119.779 118.052 113.062 114.44 113.062 110.009Z" fill="#FDD23F"/>
<path d="M65.6216 18.3441C65.6216 18.3441 85.0384 16.7636 87.4373 2.45508C87.4373 2.45508 95.6498 16.3685 83.9941 23.5087" fill="#FFE55F"/>
<path d="M83.9658 25.9075C83.1755 25.9075 82.3854 25.5124 81.9339 24.7786C81.2565 23.6497 81.5951 22.1822 82.724 21.5049C88.0862 18.2029 88.3121 13.0947 87.4654 9.20006C81.3695 19.3318 66.5246 20.6864 65.7908 20.7429C64.4926 20.8558 63.3355 19.868 63.2227 18.5698C63.1098 17.2716 64.0976 16.1145 65.3958 16.0016C65.678 16.0016 83.0062 14.3365 85.0382 2.11634C85.2075 1.12857 85.9695 0.338352 86.9573 0.16902C87.9451 -0.000311941 88.9328 0.451239 89.4408 1.2979C92.6864 6.80119 95.9883 18.9649 85.2075 25.5971C84.8124 25.8228 84.3891 25.9357 83.9658 25.9357V25.9075Z" fill="#FDD23F"/>
<path d="M96.9195 115.992C96.9195 111.787 90.2309 108.4 81.9901 108.4C73.7493 108.4 67.0605 111.787 67.0605 115.992C67.0605 120.197 73.7493 123.584 81.9901 123.584C90.2309 123.584 96.9195 120.197 96.9195 115.992Z" fill="#F6AD3C"/>
<path d="M67.2016 101.599C67.2016 104.901 64.5205 107.554 61.2468 107.554C57.973 107.554 55.292 104.873 55.292 101.599C55.292 98.3251 57.9448 95.644 61.2468 95.644C64.5488 95.644 67.2016 98.3251 67.2016 101.599Z" fill="#3F3B3A"/>
<path d="M108.716 101.599C108.716 104.901 106.035 107.554 102.761 107.554C99.4877 107.554 96.8066 104.873 96.8066 101.599C96.8066 98.3251 99.4595 95.644 102.761 95.644C106.063 95.644 108.716 98.3251 108.716 101.599Z" fill="#3F3B3A"/>
</svg>
