<svg width="168" height="160" viewBox="0 0 168 160" fill="none" xmlns="http://www.w3.org/2000/svg">
<path d="M72.3444 15.1461C54.1412 -1.16627 27.3021 -0.912276 12.3726 15.7387C-2.55681 32.3897 0.124237 59.1159 18.3274 75.4283C36.5306 91.7406 63.3697 91.4866 78.2992 74.8356C93.2286 58.1846 90.5476 31.4584 72.3444 15.1461Z" fill="#D4D4D3"/>
<path d="M49.1179 89.8779C37.3493 89.8779 25.8629 85.3905 16.7472 77.2062C7.49035 68.9089 1.76134 57.8176 0.576015 45.9644C-0.609308 34.0265 2.94666 22.7095 10.623 14.1582C18.3841 5.46581 29.3906 0.696289 41.5825 0.696289C53.7744 0.696289 64.8375 5.18359 73.9532 13.368C83.21 21.6652 88.939 32.7565 90.1244 44.638C91.3097 56.5759 87.7537 67.8647 80.0773 76.4159C72.2881 85.1083 61.3098 89.8779 49.1179 89.8779ZM41.5825 5.46581C30.7735 5.46581 21.037 9.67089 14.179 17.3473C7.40576 24.8826 4.27308 34.8731 5.31729 45.4846C6.38973 56.1525 11.5826 66.1714 19.9363 73.6502C28.1771 81.0444 38.5346 85.1083 49.1179 85.1083C59.9269 85.1083 69.6634 80.9032 76.5213 73.2269C83.2946 65.6916 86.4273 55.701 85.3831 45.0895C84.3389 34.4216 79.146 24.4028 70.7641 16.9239C62.5233 9.52978 52.1659 5.46581 41.5544 5.46581H41.5825Z" fill="#BEBAB7"/>
<path d="M95.6559 15.1461C113.859 -1.16627 140.698 -0.912276 155.628 15.7387C170.557 32.3897 167.876 59.1159 149.701 75.4283C131.498 91.7406 104.659 91.4866 89.7292 74.8356C74.7997 58.1846 77.4527 31.4584 95.6559 15.1461Z" fill="#D4D4D3"/>
<path d="M118.883 89.8779C106.691 89.8779 95.7126 85.1083 87.9233 76.4159C80.2469 67.8647 76.691 56.5759 77.8763 44.638C79.0616 32.7565 84.7906 21.6652 94.0475 13.368C103.163 5.21181 114.649 0.696289 126.418 0.696289C138.187 0.696289 149.617 5.46581 157.378 14.1582C165.054 22.7095 168.61 33.9983 167.425 45.9644C166.239 57.8176 160.51 68.9371 151.254 77.2062C142.138 85.3905 130.651 89.8779 118.883 89.8779ZM126.418 5.46581C115.835 5.46581 105.449 9.52978 97.2083 16.9239C88.8546 24.4028 83.6618 34.4216 82.5893 45.0895C81.5451 55.701 84.6778 65.6916 91.4511 73.2269C98.309 80.875 108.046 85.1083 118.855 85.1083C129.664 85.1083 139.795 81.0444 148.036 73.6502C156.39 66.1714 161.583 56.1525 162.655 45.4846C163.699 34.8731 160.567 24.8826 153.793 17.3473C146.935 9.69911 137.199 5.46581 126.39 5.46581H126.418Z" fill="#BEBAB7"/>
<path d="M158.309 134.948C158.45 134.722 158.619 134.497 158.76 134.271C160.171 131.985 161.244 129.501 161.949 126.961C161.949 126.933 161.949 126.877 161.978 126.848C162.203 126.086 162.373 125.296 162.514 124.534C162.57 124.28 162.627 124.026 162.655 123.772C162.768 123.095 162.881 122.418 162.965 121.712C162.994 121.373 163.022 121.035 163.05 120.696C163.107 120.047 163.135 119.37 163.163 118.721C163.163 118.438 163.163 118.128 163.163 117.846C163.163 117.027 163.163 116.237 163.106 115.419C163.106 115.334 163.106 115.249 163.106 115.193C163.022 114.205 162.909 113.217 162.768 112.258C162.034 107.347 160.708 102.493 158.648 97.9773C157.632 95.7478 156.418 93.6029 155.035 91.5709C153.963 90.047 152.072 88.1561 151.959 86.2088C151.225 75.682 148.798 65.2398 143.831 56.0394C142.194 52.9632 140.247 50.0564 138.017 47.2906C133.615 41.872 128.422 37.1307 122.636 33.2925C118.826 30.7807 114.762 28.6358 110.473 26.9708C102.345 23.8099 91.959 21.1006 83.1819 21.411C74.0098 21.7215 64.8376 24.1486 56.3145 27.7892C53.6617 28.9181 51.0653 30.1598 48.5817 31.4863C40.7078 35.6631 33.6804 42.0131 28.3464 49.4073C26.1451 52.4835 24.2262 55.729 22.6739 59.0592C18.7793 67.4693 16.7473 77.0084 16.1264 86.237C16.0135 88.0432 14.2637 89.9058 13.2477 91.3169C12.006 93.0385 10.8489 94.76 9.91754 96.6791C7.54689 101.562 6.10753 106.952 5.28909 112.286C2.72089 129.078 11.5262 142.483 27.0201 148.721C44.2073 155.635 65.6843 156.933 84.0568 156.933C102.429 156.933 123.906 155.635 141.093 148.721C148.346 145.814 154.076 141.326 157.914 135.654C158.083 135.428 158.224 135.202 158.365 134.976L158.309 134.948Z" fill="#D4D4D3"/>
<path d="M5.23242 112.229C5.96619 107.319 7.29269 102.465 9.3529 97.9491C10.3689 95.7196 11.5825 93.5747 12.9654 91.5427C14.0378 90.0188 15.9286 88.1279 16.0415 86.1806C16.747 75.6537 19.2024 65.2116 24.1694 56.0112" fill="#8F93AE"/>
<path d="M5.26096 114.629C5.26096 114.629 5.00695 114.629 4.89406 114.629C3.59585 114.431 2.69286 113.217 2.89041 111.919C3.70885 106.501 5.14808 101.477 7.20829 97.018C8.30895 94.591 9.60729 92.305 11.0466 90.2448C11.3288 89.8497 11.6391 89.4545 11.9778 89.003C12.7398 88.0434 13.6711 86.8299 13.7276 86.0679C14.546 74.2711 17.3683 63.8007 22.1096 54.939C22.7305 53.7819 24.1698 53.3586 25.3269 53.9795C26.484 54.6004 26.9355 56.0397 26.3146 57.1968C21.8838 65.4376 19.2308 75.2589 18.4688 86.4066C18.3277 88.6361 16.8885 90.4705 15.7314 91.9381C15.4492 92.305 15.1951 92.6436 14.9693 92.9541C13.6993 94.7885 12.5424 96.8205 11.5546 98.9936C9.69193 103.058 8.39368 107.658 7.63169 112.625C7.46235 113.81 6.44631 114.657 5.28921 114.657L5.26096 114.629Z" fill="#BEBAB7"/>
<path d="M110.416 26.9708C102.57 23.9229 92.5512 21.27 83.9717 21.3829L110.416 26.9708Z" fill="#8F93AE"/>
<path d="M110.416 29.3414C110.134 29.3414 109.851 29.285 109.569 29.1721C100.482 25.6443 91.1685 23.697 84.0284 23.7534C82.7584 23.7534 81.6294 22.7092 81.6294 21.3828C81.6294 20.0564 82.6737 18.9839 83.9719 18.9839C91.7047 18.8993 101.667 20.9877 111.291 24.7412C112.504 25.221 113.125 26.6039 112.646 27.8174C112.279 28.7487 111.375 29.3414 110.416 29.3414Z" fill="#BEBAB7"/>
<path d="M57.5845 26.9708C65.4302 23.9229 75.4207 21.27 84.0002 21.3829L57.5845 26.9708Z" fill="#8F93AE"/>
<path d="M57.5846 29.3415C56.625 29.3415 55.7218 28.7771 55.3549 27.8175C54.8751 26.604 55.4961 25.2211 56.7097 24.7413C66.3334 20.9878 76.2675 18.9276 84.0286 18.984C85.355 18.984 86.3991 20.0847 86.3709 21.3829C86.3709 22.6811 85.2985 23.7536 84.0003 23.7536C83.831 23.7536 83.6899 23.7536 83.5206 23.7536C76.4369 23.7536 67.3211 25.7291 58.4312 29.1722C58.149 29.2851 57.8668 29.3415 57.5846 29.3415Z" fill="#BEBAB7"/>
<path d="M75.0255 39.4732C72.7959 39.4168 70.0301 40.5457 68.2521 41.8439C66.6152 43.0856 65.1477 44.7507 64.3857 46.6698C63.2286 49.6331 63.1157 53.2738 64.5833 56.1524C65.4017 57.7893 67.0385 59.3133 68.7318 59.9624C70.8203 60.7526 73.2475 60.668 75.4206 60.1882C77.9324 59.6237 80.6417 58.6642 82.6454 56.9991C83.1817 56.5758 83.6613 56.0395 84.0846 55.4751C84.5079 54.8824 84.875 54.2051 85.1007 53.556C85.1572 55.9549 86.4553 58.0151 88.4027 59.3697C89.0518 59.8213 89.8984 60.1882 90.6886 60.3011C91.8457 60.4704 92.9464 60.3857 94.0753 60.1317C94.922 59.9342 95.7122 59.5955 96.4178 59.0875C98.224 57.7893 99.6633 55.9267 99.5786 53.6124C99.5222 52.286 99.1835 51.0725 98.6473 49.8871" fill="#D4D4D3"/>
<path d="M72.2597 62.9541C70.8768 62.9541 69.3811 62.7565 67.9136 62.2203C65.6841 61.3736 63.5956 59.4545 62.4668 57.2532C60.8017 53.9513 60.6888 49.6897 62.1846 45.8515C63.2571 43.0576 65.3172 41.1102 66.8411 39.9814C68.8167 38.5138 72.0904 37.0463 75.0819 37.1309C76.4084 37.1592 77.4244 38.2598 77.3961 39.5863C77.3679 40.9127 76.2391 41.9569 74.9408 41.9005C73.3604 41.844 71.1873 42.6907 69.6633 43.7913C68.1958 44.892 67.1235 46.2184 66.5872 47.5731C65.5712 50.1413 65.6276 53.0199 66.6718 55.1084C67.2645 56.2655 68.4499 57.3379 69.5505 57.7895C71.3567 58.4668 73.4169 58.241 74.8563 57.9023C77.5091 57.3097 79.6821 56.3783 81.0932 55.193C81.4601 54.8826 81.8271 54.5157 82.0811 54.1206C82.3633 53.7255 82.6173 53.2175 82.7866 52.7942C83.1535 51.6935 84.2824 51.0444 85.4113 51.2137C86.5401 51.3831 87.4151 52.3708 87.4151 53.5279C87.4433 55.5599 88.8544 56.8299 89.7011 57.4226C90.0962 57.6766 90.5758 57.8741 90.9992 57.9588C91.7612 58.0717 92.5514 58.0152 93.511 57.8177C94.019 57.7048 94.527 57.479 94.9786 57.1686C95.9946 56.4348 97.208 55.2495 97.1515 53.7255C97.1233 52.8506 96.8977 51.9193 96.4179 50.8468C95.9099 49.6333 96.446 48.2504 97.6595 47.7142C98.8731 47.178 100.284 47.7424 100.792 48.956C101.498 50.5928 101.836 52.0604 101.893 53.5562C101.977 56.3784 100.51 59.0594 97.7443 61.035C96.7847 61.7405 95.684 62.2203 94.5269 62.4743C93.0029 62.813 91.6201 62.8694 90.2936 62.6719C89.1365 62.5025 87.9795 62.0228 86.9917 61.3454C85.9193 60.6117 85.0161 59.7086 84.3106 58.6926C84.2541 58.749 84.1694 58.8054 84.113 58.8619C82.081 60.527 79.3153 61.7688 75.9005 62.5308C74.8563 62.7565 73.5863 62.9541 72.2034 62.9541H72.2597Z" fill="#BEBAB7"/>
<path d="M5.23245 112.23C2.66425 129.022 11.4695 142.428 26.9634 148.665C44.1506 155.579 65.6276 156.877 84.0001 156.877C102.373 156.877 123.85 155.579 141.037 148.665C156.531 142.428 165.308 129.022 162.768 112.23" fill="#D4D4D3"/>
<path d="M84.0005 159.304C68.0833 159.304 44.7718 158.429 26.0606 150.894C9.12742 144.093 0.237604 129.135 2.89047 111.891C3.08803 110.593 4.30146 109.69 5.59967 109.887C6.89789 110.085 7.80105 111.299 7.6035 112.597C5.28929 127.78 12.8528 140.424 27.8669 146.463C45.8161 153.688 68.5066 154.506 84.0005 154.506C99.4943 154.506 122.213 153.66 140.162 146.463C155.148 140.424 162.712 127.78 160.397 112.597C160.2 111.299 161.103 110.085 162.401 109.887C163.699 109.69 164.913 110.593 165.11 111.891C167.735 129.135 158.845 144.093 141.94 150.894C123.229 158.429 99.9177 159.304 84.0005 159.304Z" fill="#BEBAB7"/>
<path d="M162.768 112.229C162.006 107.319 160.708 102.465 158.648 97.9491C157.632 95.7196 156.418 93.5747 155.035 91.5427C153.963 90.0188 152.072 88.1279 151.959 86.1806C151.225 75.6537 148.798 65.2116 143.831 56.0112" fill="#8F93AE"/>
<path d="M162.74 114.628C161.583 114.628 160.567 113.782 160.397 112.596C159.635 107.601 158.309 103.001 156.474 98.9652C155.487 96.7921 154.329 94.7601 153.059 92.9257C152.834 92.6152 152.58 92.2766 152.298 91.9097C151.141 90.4139 149.729 88.5795 149.56 86.3499C148.798 75.2305 146.173 65.4092 141.714 57.1401C141.093 55.983 141.517 54.5437 142.674 53.9228C143.831 53.302 145.27 53.7253 145.891 54.8824C150.661 63.7441 153.483 74.2145 154.301 86.0113C154.358 86.8015 155.289 87.9868 156.051 88.9746C156.39 89.3979 156.7 89.793 156.982 90.1881C158.422 92.2483 159.72 94.5343 160.821 96.9614C162.853 101.42 164.292 106.444 165.139 111.863C165.336 113.161 164.433 114.374 163.135 114.572C163.022 114.572 162.881 114.572 162.768 114.572L162.74 114.628Z" fill="#BEBAB7"/>
<path d="M43.7272 118.918H23.7179C22.3915 118.918 21.3472 117.846 21.3472 116.547C21.3472 115.249 22.4197 114.177 23.7179 114.177H43.7272C45.0536 114.177 46.1262 115.249 46.1262 116.547C46.1262 117.846 45.0536 118.918 43.7272 118.918Z" fill="#BEBAB7"/>
<path d="M43.7272 129.586H23.7179C22.3915 129.586 21.3472 128.514 21.3472 127.215C21.3472 125.917 22.4197 124.845 23.7179 124.845H43.7272C45.0536 124.845 46.1262 125.917 46.1262 127.215C46.1262 128.514 45.0536 129.586 43.7272 129.586Z" fill="#BEBAB7"/>
<path d="M144.282 118.918H124.273C122.947 118.918 121.902 117.846 121.902 116.547C121.902 115.249 122.975 114.177 124.273 114.177H144.282C145.609 114.177 146.681 115.249 146.681 116.547C146.681 117.846 145.609 118.918 144.282 118.918Z" fill="#BEBAB7"/>
<path d="M144.282 129.586H124.273C122.947 129.586 121.902 128.514 121.902 127.215C121.902 125.917 122.975 124.845 124.273 124.845H144.282C145.609 124.845 146.681 125.917 146.681 127.215C146.681 128.514 145.609 129.586 144.282 129.586Z" fill="#BEBAB7"/>
<path d="M88.7695 110.565C88.7695 109.21 86.6246 108.109 84 108.109C81.3753 108.109 79.2305 109.21 79.2305 110.565C79.2305 111.919 81.3753 113.02 84 113.02C86.6246 113.02 88.7695 111.919 88.7695 110.565Z" fill="#3F3B3A"/>
<path d="M70.7921 107.037C70.7921 103.735 68.1393 101.082 64.8373 101.082C61.5353 101.082 58.8823 103.763 58.8823 107.037C58.8823 110.311 61.5635 112.992 64.8373 112.992C68.111 112.992 70.7921 110.339 70.7921 107.037Z" fill="#3F3B3A"/>
<path d="M97.208 107.037C97.208 103.735 99.8891 101.082 103.163 101.082C106.437 101.082 109.118 103.763 109.118 107.037C109.118 110.311 106.437 112.992 103.163 112.992C99.8891 112.992 97.208 110.339 97.208 107.037Z" fill="#3F3B3A"/>
</svg>
