<svg width="164" height="192" viewBox="0 0 164 192" fill="none" xmlns="http://www.w3.org/2000/svg">
<path d="M59.6909 60.309C58.3644 60.309 57.0664 59.6317 56.3044 58.4181C38.1858 28.9825 41.6571 4.93739 41.8265 3.9214C42.1651 1.7483 44.1971 0.280759 46.3702 0.591201C48.5433 0.929865 50.0109 2.96185 49.7005 5.10672C49.6441 5.44539 46.6525 27.515 63.106 54.2412C64.2631 56.1039 63.6702 58.5592 61.8075 59.7163C61.1584 60.1114 60.4529 60.309 59.7191 60.309H59.6909Z" fill="#7F5C45"/>
<path d="M47.7246 30.6757C46.7086 30.6757 45.6927 30.2806 44.9024 29.5186C43.3502 27.9664 43.3502 25.4546 44.9024 23.9024C44.9871 23.8177 49.785 18.9353 51.3936 13.4885C52.0145 11.3718 54.2158 10.1865 56.3325 10.8074C58.4491 11.4283 59.6343 13.6296 59.0134 15.7462C56.8121 23.1969 50.7726 29.2646 50.5186 29.5186C49.7566 30.3088 48.7406 30.6757 47.6964 30.6757H47.7246Z" fill="#7F5C45"/>
<path d="M49.2203 41.1465C39.5966 41.1465 31.9767 33.6112 31.6663 33.2725C30.1141 31.7203 30.1423 29.2086 31.6663 27.6563C33.2185 26.1041 35.7302 26.1041 37.2824 27.6563C37.3671 27.741 43.2655 33.4419 49.6154 33.1879C51.7603 33.1032 53.6511 34.7965 53.7357 36.9978C53.8204 39.1992 52.0989 41.0336 49.9258 41.1182C49.7001 41.1182 49.4461 41.1182 49.2203 41.1182V41.1465Z" fill="#7F5C45"/>
<path d="M104.338 60.3091C103.632 60.3091 102.898 60.1115 102.249 59.7164C100.387 58.5593 99.7938 56.1322 100.951 54.2414C117.433 27.4587 114.385 5.33262 114.356 5.10685C114.046 2.93375 115.514 0.901768 117.687 0.591326C119.832 0.252661 121.863 1.74843 122.202 3.8933C122.371 4.90929 125.815 28.9544 107.724 58.39C106.962 59.6036 105.664 60.2809 104.338 60.2809V60.3091Z" fill="#7F5C45"/>
<path d="M116.276 30.6762C115.26 30.6762 114.244 30.2811 113.453 29.5191C113.199 29.2651 107.188 23.1691 104.959 15.7467C104.338 13.6301 105.551 11.4288 107.639 10.8079C109.756 10.187 111.957 11.3723 112.578 13.489C114.187 18.9358 119.013 23.8465 119.07 23.9029C120.622 25.4551 120.622 27.9669 119.07 29.5191C118.279 30.3093 117.263 30.6762 116.247 30.6762H116.276Z" fill="#7F5C45"/>
<path d="M114.78 41.1462C114.554 41.1462 114.3 41.1462 114.074 41.1462C111.873 41.0615 110.18 39.2271 110.264 37.0258C110.349 34.8244 112.183 33.1029 114.385 33.2158C120.791 33.4698 126.661 27.7689 126.718 27.7125C128.27 26.1603 130.782 26.1603 132.334 27.7125C133.886 29.2647 133.886 31.7765 132.334 33.3287C132.023 33.6673 124.403 41.2026 114.78 41.2026V41.1462Z" fill="#7F5C45"/>
<path d="M105.213 57.9384C105.213 57.9384 114.103 50.2902 123.839 51.4473C123.839 51.4473 147.828 49.9798 143.256 90.9864" fill="#9E7B5D"/>
<path d="M143.228 93.3569C143.228 93.3569 143.058 93.3569 142.974 93.3569C141.676 93.2158 140.716 92.0305 140.857 90.7323C142.522 75.7181 140.406 64.6269 134.733 58.672C129.851 53.5356 124.009 53.8461 123.952 53.8461C123.811 53.8461 123.67 53.8461 123.529 53.8461C114.949 52.8301 106.821 59.7163 106.737 59.8009C105.749 60.6476 104.225 60.5347 103.378 59.5469C102.532 58.5592 102.645 57.0352 103.632 56.1885C104.028 55.8498 113.312 47.9759 123.896 49.1048C125.307 49.0766 132.334 49.2741 138.176 55.3983C144.949 62.5102 147.433 74.5893 145.57 91.2967C145.429 92.5102 144.413 93.4133 143.2 93.4133L143.228 93.3569Z" fill="#89664C"/>
<path d="M58.8159 57.9384C58.8159 57.9384 49.9261 50.2902 40.1895 51.4473C40.1895 51.4473 16.2008 49.9798 20.7727 90.9864" fill="#9E7B5D"/>
<path d="M20.7725 93.3572C19.5872 93.3572 18.5427 92.4541 18.4016 91.2405C16.539 74.5613 19.0507 62.4823 25.824 55.3421C31.666 49.1897 38.6652 48.9922 40.1045 49.0486C50.6878 47.9197 59.9726 55.7937 60.3677 56.1324C61.3837 56.979 61.4686 58.503 60.622 59.4908C59.7753 60.4785 58.2511 60.5914 57.2634 59.7448C57.2634 59.7448 49.0227 52.8022 40.4714 53.7899C40.3303 53.7899 40.1891 53.7899 40.048 53.7899C39.8222 53.7899 34.0368 53.5641 29.2108 58.7006C23.5947 64.6836 21.5062 75.7467 23.1713 90.7043C23.3124 92.0025 22.3811 93.1879 21.0547 93.329C20.97 93.329 20.8854 93.329 20.7725 93.329V93.3572Z" fill="#89664C"/>
<path d="M108.43 59.1237C100.584 56.0757 90.5653 53.4228 81.9858 53.5357L108.43 59.1237Z" fill="#9E7B5D"/>
<path d="M108.43 61.5226C108.147 61.5226 107.837 61.4661 107.555 61.3532C98.4675 57.8255 89.2106 55.8782 82.014 55.9346C80.6875 55.9346 79.6151 54.8904 79.5869 53.5639C79.5869 52.2375 80.631 51.1651 81.9575 51.1651C89.6903 51.0804 99.6528 53.1688 109.277 56.9224C110.518 57.4021 111.111 58.785 110.631 59.9986C110.264 60.9581 109.361 61.5226 108.401 61.5226H108.43Z" fill="#89664C"/>
<path d="M55.5698 59.1237C63.4155 56.0757 73.4061 53.4228 81.9856 53.5357L55.5698 59.1237Z" fill="#9E7B5D"/>
<path d="M55.5699 61.5227C54.6104 61.5227 53.7072 60.9582 53.3403 59.9987C52.8605 58.7851 53.4813 57.4023 54.6949 56.9225C64.3186 53.169 74.2811 51.1087 82.0139 51.1652C83.3122 51.1652 84.3845 52.2659 84.3562 53.5641C84.3562 54.8905 83.2839 55.9065 81.9574 55.9347C74.7891 55.85 65.5042 57.8256 56.4167 61.3533C56.1345 61.4662 55.8239 61.5227 55.5417 61.5227H55.5699Z" fill="#89664C"/>
<path d="M160.754 144.411C159.935 139.077 158.496 133.658 156.125 128.804C155.194 126.885 154.037 125.164 152.795 123.442C151.779 122.031 150.057 120.196 149.916 118.362C149.324 109.698 147.489 100.78 144.046 92.7929C143.962 92.7929 143.877 92.7929 143.821 92.7646C144.921 96.7722 147.602 107.13 147.8 107.581C93.7828 63.4702 85.6551 142.605 85.6551 142.605H78.3454C78.3454 142.605 70.246 63.4702 16.2008 107.581C16.3984 107.158 19.0792 96.7722 20.1799 92.7646C20.0952 92.7646 20.0107 92.7647 19.9542 92.7929C16.5111 100.808 14.6768 109.726 14.0842 118.362C13.9713 120.168 12.2215 122.031 11.2055 123.442C9.96371 125.164 8.80645 126.885 7.87513 128.804C5.50448 133.687 4.06512 139.077 3.24668 144.411C0.678476 161.203 9.4557 174.608 24.9496 180.846C42.1368 187.76 63.6136 189.058 81.9861 189.058C100.359 189.058 121.835 187.76 139.023 180.846C154.517 174.608 163.294 161.203 160.754 144.411Z" fill="#E7BE8F"/>
<path d="M3.24665 144.411C0.678449 161.203 9.48389 174.608 24.9495 180.845C42.1367 187.76 63.6136 189.058 81.9861 189.058C100.359 189.058 121.835 187.76 139.023 180.845C154.517 174.608 163.294 161.203 160.754 144.411" fill="#E7BE8F"/>
<path d="M82.0141 191.457C66.0969 191.457 42.7854 190.582 24.0743 183.046C7.14105 176.245 -1.74879 161.287 0.875853 144.044C1.07341 142.745 2.28684 141.842 3.58505 142.04C4.88327 142.237 5.7866 143.451 5.58905 144.749C3.27485 159.933 10.8381 172.604 25.824 178.616C43.7732 185.84 66.4638 186.659 81.9859 186.659C97.508 186.659 120.199 185.812 138.148 178.616C153.134 172.576 160.697 159.933 158.411 144.749C158.213 143.451 159.117 142.237 160.415 142.04C161.713 141.842 162.927 142.745 163.124 144.044C165.749 161.287 156.859 176.245 139.954 183.046C121.243 190.582 97.9313 191.457 82.0141 191.457Z" fill="#89664C"/>
<path d="M143.82 94.7117C143.595 93.7803 143.425 93.1877 143.369 93.0748C141.817 89.5753 139.897 86.1604 137.696 82.9431C132.39 75.182 125.335 68.4934 117.461 64.119C114.977 62.7361 112.381 61.4379 109.728 60.2526C101.205 56.4426 92.0049 53.8744 82.861 53.564C82.5787 53.564 82.2964 53.564 82.0142 53.564C81.7319 53.564 81.4496 53.564 81.1674 53.564C71.9952 53.8744 62.8234 56.4426 54.3003 60.2526C51.6474 61.4379 49.0507 62.7361 46.5672 64.119C38.6932 68.4934 31.6662 75.182 26.3322 82.9431C24.1309 86.1604 22.2118 89.5753 20.6596 93.0748C20.6031 93.1877 20.4337 93.7803 20.2079 94.7117C19.1073 98.9167 16.4261 109.81 16.2285 110.29C70.2736 63.9497 78.3734 147.092 78.3734 147.092H85.6832C85.6832 147.092 93.7826 63.9779 147.828 110.29C147.63 109.839 144.949 98.945 143.849 94.7117H143.82Z" fill="#9E7B5D"/>
<path d="M3.24658 144.411C3.98035 139.528 5.30702 134.646 7.36723 130.13C8.38322 127.901 9.5965 125.756 10.9794 123.724C12.0518 122.2 13.9147 120.309 14.0558 118.362C14.7614 107.835 17.2167 97.3928 22.1838 88.1924" fill="#F6AD3C"/>
<path d="M3.24631 146.781C3.24631 146.781 3.02052 146.781 2.87941 146.781C1.5812 146.584 0.678209 145.37 0.875763 144.072C1.6942 138.653 3.16183 133.63 5.19381 129.171C6.29447 126.744 7.59264 124.458 9.03196 122.398C9.28596 122.002 9.62447 121.607 9.93491 121.156C10.6969 120.196 11.6282 118.983 11.6847 118.221C12.5031 106.424 15.3256 95.9536 20.0669 87.0919C20.6877 85.9348 22.155 85.5114 23.2839 86.1323C24.441 86.7532 24.8928 88.1925 24.2437 89.3496C19.8128 97.5904 17.1599 107.412 16.3979 118.559C16.2568 120.789 14.8175 122.623 13.6604 124.091C13.3782 124.458 13.1241 124.796 12.8984 125.107C11.6284 126.941 10.4714 128.973 9.48361 131.146C7.62096 135.21 6.32271 139.811 5.56071 144.778C5.39138 145.963 4.37517 146.81 3.21806 146.81L3.24631 146.781Z" fill="#89664C"/>
<path d="M160.754 144.411C160.02 139.528 158.693 134.646 156.633 130.13C155.617 127.901 154.404 125.756 153.021 123.724C151.948 122.2 150.085 120.309 149.944 118.362C149.239 107.835 146.783 97.3928 141.816 88.1924" fill="#9E7B5D"/>
<path d="M160.753 146.781C159.596 146.781 158.58 145.935 158.383 144.749C157.621 139.754 156.294 135.154 154.46 131.118C153.472 128.945 152.343 126.913 151.045 125.078C150.819 124.768 150.565 124.429 150.283 124.062C149.126 122.567 147.687 120.732 147.545 118.503C146.783 107.383 144.13 97.562 139.7 89.293C139.079 88.1359 139.502 86.6966 140.659 86.0757C141.817 85.4548 143.256 85.8781 143.877 87.0352C148.646 95.8969 151.468 106.367 152.287 118.164C152.343 118.954 153.275 120.14 154.037 121.127C154.375 121.551 154.686 121.946 154.968 122.341C156.407 124.401 157.705 126.687 158.806 129.114C160.838 133.573 162.277 138.597 163.124 144.015C163.322 145.314 162.419 146.527 161.12 146.725C161.007 146.725 160.895 146.725 160.753 146.725V146.781Z" fill="#89664C"/>
<path d="M68.7501 138.541C68.7501 141.843 66.0691 144.524 62.7671 144.524C59.4651 144.524 56.7837 141.843 56.7837 138.541C56.7837 135.239 59.4651 132.558 62.7671 132.558C66.0691 132.558 68.7501 135.239 68.7501 138.541Z" fill="#3F3B3A"/>
<path d="M107.216 138.541C107.216 141.843 104.535 144.524 101.233 144.524C97.9311 144.524 95.25 141.843 95.25 138.541C95.25 135.239 97.9311 132.558 101.233 132.558C104.535 132.558 107.216 135.239 107.216 138.541Z" fill="#3F3B3A"/>
<path d="M64.7143 135.21C64.7143 134.674 64.2911 134.279 63.7831 134.279C63.2751 134.279 62.8516 134.702 62.8516 135.21C62.8516 135.718 63.2751 136.141 63.7831 136.141C64.2911 136.141 64.7143 135.718 64.7143 135.21Z" fill="white"/>
<path d="M103.717 135.21C103.717 134.674 103.294 134.279 102.786 134.279C102.278 134.279 101.854 134.702 101.854 135.21C101.854 135.718 102.278 136.141 102.786 136.141C103.294 136.141 103.717 135.718 103.717 135.21Z" fill="white"/>
<path d="M82.0142 153.272C81.1393 153.272 80.4336 152.567 80.4336 151.692V147.346C80.4336 146.471 81.1393 145.765 82.0142 145.765C82.8891 145.765 83.5944 146.471 83.5944 147.346V151.692C83.5944 152.567 82.8891 153.272 82.0142 153.272Z" fill="#3F3B3A"/>
<path d="M53.2281 147.628C53.2281 143.507 46.9909 140.177 39.3145 140.177C31.6381 140.177 25.4009 143.507 25.4009 147.628C25.4009 151.748 31.6381 155.078 39.3145 155.078C46.9909 155.078 53.2281 151.748 53.2281 147.628Z" fill="#9E7B5D"/>
<path d="M110.772 147.628C110.772 143.507 117.01 140.177 124.686 140.177C132.362 140.177 138.6 143.507 138.6 147.628C138.6 151.748 132.362 155.078 124.686 155.078C117.01 155.078 110.772 151.748 110.772 147.628Z" fill="#9E7B5D"/>
<path d="M86.7837 147.628C86.7837 146.274 84.639 145.173 82.0143 145.173C79.3897 145.173 77.2446 146.274 77.2446 147.628C77.2446 148.983 79.3897 150.083 82.0143 150.083C84.639 150.083 86.7837 148.983 86.7837 147.628Z" fill="#3F3B3A"/>
</svg>
