<svg width="49" height="48" viewBox="0 0 49 48" fill="none" xmlns="http://www.w3.org/2000/svg">
<path fill-rule="evenodd" clip-rule="evenodd" d="M10.5 7.5C9.11929 7.5 8 8.61929 8 10V38C8 39.3807 9.11929 40.5 10.5 40.5H38.5C39.8807 40.5 41 39.3807 41 38V10C41 8.61929 39.8807 7.5 38.5 7.5H10.5ZM5 10C5 6.96243 7.46243 4.5 10.5 4.5H38.5C41.5376 4.5 44 6.96243 44 10V38C44 41.0376 41.5376 43.5 38.5 43.5H10.5C7.46243 43.5 5 41.0376 5 38V10Z" fill="#E9E6FF"/>
<path fill-rule="evenodd" clip-rule="evenodd" d="M31.4393 18.9393C32.0251 18.3536 32.9749 18.3536 33.5607 18.9393L43.5607 28.9393C44.1464 29.5251 44.1464 30.4749 43.5607 31.0607C42.9749 31.6464 42.0251 31.6464 41.4393 31.0607L32.5 22.1213L11.5607 43.0607C10.9749 43.6464 10.0251 43.6464 9.43934 43.0607C8.85355 42.4749 8.85355 41.5251 9.43934 40.9393L31.4393 18.9393Z" fill="#E9E6FF"/>
<path fill-rule="evenodd" clip-rule="evenodd" d="M17.5 15.5C16.6716 15.5 16 16.1716 16 17C16 17.8284 16.6716 18.5 17.5 18.5C18.3284 18.5 19 17.8284 19 17C19 16.1716 18.3284 15.5 17.5 15.5ZM13 17C13 14.5147 15.0147 12.5 17.5 12.5C19.9853 12.5 22 14.5147 22 17C22 19.4853 19.9853 21.5 17.5 21.5C15.0147 21.5 13 19.4853 13 17Z" fill="#E9E6FF"/>
</svg>
