<svg width="130" height="28" viewBox="0 0 130 28" fill="none" xmlns="http://www.w3.org/2000/svg">
<path d="M1.56701 6H13.3746C16.4182 6 18.8889 8.52672 18.8889 11.6389C18.8889 14.7511 16.4179 17.2778 13.3743 17.2778H9.15654C4.65483 17.2775 1 13.5403 1 8.93677V6.57979C1 6.25967 1.25395 6 1.56701 6Z" fill="url(#paint0_linear_3243_11737)"/>
<g filter="url(#filter0_b_3243_11737)">
<path d="M25.9057 22.7227H14.0983C11.0547 22.7227 8.58377 20.2831 8.58377 17.2782C8.58377 14.2734 11.0547 11.8338 14.0983 11.8338H18.316C22.8176 11.8338 26.4727 15.4421 26.4727 19.8869V22.1629C26.4727 22.4719 26.2187 22.7227 25.9057 22.7227Z" fill="#AFA1FF" fill-opacity="0.5"/>
</g>
<g filter="url(#filter1_b_3243_11737)">
<path fill-rule="evenodd" clip-rule="evenodd" d="M14.0983 22.5282H25.9057C26.1137 22.5282 26.2782 22.3622 26.2782 22.1629V19.8869C26.2782 15.5518 22.7126 12.0282 18.316 12.0282H14.0983C11.1598 12.0282 8.77821 14.3831 8.77821 17.2782C8.77821 20.1733 11.1598 22.5282 14.0983 22.5282ZM14.0983 22.7227H25.9057C26.2187 22.7227 26.4727 22.4719 26.4727 22.1629V19.8869C26.4727 15.4421 22.8176 11.8338 18.316 11.8338H14.0983C11.0547 11.8338 8.58377 14.2734 8.58377 17.2782C8.58377 20.2831 11.0547 22.7227 14.0983 22.7227Z" fill="url(#paint1_linear_3243_11737)"/>
</g>
<path d="M40.9415 19.8242C36.5049 19.8242 33 16.3297 33 11.9121C33 7.49451 36.5049 4 40.9415 4C43.3594 4 45.4446 5.03297 46.7977 6.54945C47.0417 6.79121 47.1527 7.14286 47.1527 7.42857C47.1527 8.13187 46.5759 8.7033 45.8439 8.7033C45.5111 8.7033 45.134 8.5055 44.8013 8.1978C43.8696 7.16483 42.5386 6.48352 40.9415 6.48352C38.0133 6.48352 35.6841 8.87912 35.6841 11.9121C35.6841 14.9231 38.0133 17.3187 40.9415 17.3187C43.2485 17.3187 45.2227 15.8242 45.9104 13.5385H42.1171C41.4295 13.5385 40.8971 13.011 40.8971 12.3516C40.8971 11.6703 41.4295 11.1429 42.1171 11.1429H47.6407C48.3062 11.1429 48.8385 11.6703 48.8385 12.4176C48.7276 16.044 45.4889 19.8242 40.9415 19.8242Z" fill="url(#paint2_linear_3243_11737)"/>
<path d="M56.4038 19.8242C53.032 19.8242 50.5253 17.2527 50.5253 14C50.5253 10.7473 53.032 8.17582 56.4038 8.17582C59.7977 8.17582 62.2822 10.7473 62.2822 14C62.2822 17.2527 59.7977 19.8242 56.4038 19.8242ZM56.4038 17.5824C58.3558 17.5824 59.8199 15.956 59.8199 14C59.8199 12.022 58.3558 10.4176 56.4038 10.4176C54.4517 10.4176 52.9876 12.022 52.9876 14C52.9876 15.956 54.4517 17.5824 56.4038 17.5824Z" fill="url(#paint3_linear_3243_11737)"/>
<path d="M64.6605 18.5714V13.2967C64.6605 10.1538 66.8566 8.17582 69.6516 8.17582C72.4466 8.17582 74.6427 10.1538 74.6427 13.2967V18.5714C74.6427 19.2527 74.0882 19.8022 73.4227 19.8022C72.735 19.8022 72.2026 19.2527 72.2026 18.5714V13.2088C72.2026 11.3846 71.0713 10.4176 69.6516 10.4176C68.2319 10.4176 67.1006 11.3846 67.1006 13.2088V18.5714C67.1006 19.2527 66.5682 19.8022 65.8805 19.8022C65.1928 19.8022 64.6605 19.2527 64.6605 18.5714Z" fill="url(#paint4_linear_3243_11737)"/>
<path d="M82.6097 19.8242C79.4153 19.8242 76.9974 17.2527 76.9974 14C76.9974 10.7473 79.4153 8.17582 82.6097 8.17582C84.0294 8.17582 85.316 8.68132 86.292 9.56044V9.40659C86.292 8.72527 86.8244 8.1978 87.5121 8.1978C88.1997 8.1978 88.7321 8.72527 88.7321 9.40659V18.1758C88.7321 21.4725 86.0702 24 82.7428 24C80.8572 24 79.371 23.2088 78.5058 22.2418C78.284 21.978 78.1509 21.6703 78.1509 21.4286C78.1509 20.7473 78.6833 20.2857 79.3488 20.2857C79.8368 20.2857 80.103 20.5714 80.4136 20.8352C81.0125 21.3846 81.7667 21.7582 82.7428 21.7582C84.6727 21.7582 86.1367 20.2857 86.2698 18.4615C85.2938 19.3187 84.0294 19.8242 82.6097 19.8242ZM82.8759 17.5824C84.7392 17.5824 86.2033 16.1319 86.292 14.1538V14C86.292 11.956 84.7836 10.4176 82.8759 10.4176C80.9681 10.4176 79.4597 11.956 79.4597 14C79.4597 16.044 80.9681 17.5824 82.8759 17.5824Z" fill="url(#paint5_linear_3243_11737)"/>
<path d="M91.5658 10.6374C90.9447 10.6374 90.4345 10.1319 90.4345 9.51648C90.4345 8.87912 90.9447 8.3956 91.5658 8.3956H92.3644V6.74725C92.3644 6.06593 92.8968 5.53846 93.5844 5.53846C94.2721 5.53846 94.8045 6.06593 94.8045 6.74725V8.3956H97.3999C98.021 8.3956 98.5312 8.87912 98.5312 9.51648C98.5312 10.1319 98.021 10.6374 97.3999 10.6374H94.8045V14.6154C94.8045 16.5495 95.8915 17.5385 97.3999 17.5385C98.021 17.5385 98.5312 18.044 98.5312 18.6593C98.5312 19.2967 98.021 19.8022 97.3999 19.8022C94.5383 19.8022 92.3644 17.8022 92.3644 14.6154V10.6374H91.5658Z" fill="url(#paint6_linear_3243_11737)"/>
<path d="M100.643 18.5714V9.40659C100.643 8.72527 101.175 8.1978 101.863 8.1978C102.55 8.1978 103.083 8.72527 103.083 9.40659V18.5714C103.083 19.2527 102.55 19.8022 101.863 19.8022C101.175 19.8022 100.643 19.2527 100.643 18.5714ZM101.863 6.92308C101.064 6.92308 100.421 6.26374 100.421 5.49451C100.421 4.7033 101.064 4.06593 101.863 4.06593C102.661 4.06593 103.305 4.7033 103.305 5.49451C103.305 6.26374 102.661 6.92308 101.863 6.92308Z" fill="url(#paint7_linear_3243_11737)"/>
<path d="M105.928 18.5714V13.2967C105.928 10.1538 108.124 8.17582 110.919 8.17582C113.714 8.17582 115.911 10.1538 115.911 13.2967V18.5714C115.911 19.2527 115.356 19.8022 114.691 19.8022C114.003 19.8022 113.47 19.2527 113.47 18.5714V13.2088C113.47 11.3846 112.339 10.4176 110.919 10.4176C109.5 10.4176 108.368 11.3846 108.368 13.2088V18.5714C108.368 19.2527 107.836 19.8022 107.148 19.8022C106.461 19.8022 105.928 19.2527 105.928 18.5714Z" fill="url(#paint8_linear_3243_11737)"/>
<path d="M123.878 19.8242C120.683 19.8242 118.265 17.2527 118.265 14C118.265 10.7473 120.683 8.17582 123.878 8.17582C125.297 8.17582 126.584 8.68132 127.56 9.56044V9.40659C127.56 8.72527 128.092 8.1978 128.78 8.1978C129.468 8.1978 130 8.72527 130 9.40659V18.1758C130 21.4725 127.338 24 124.011 24C122.125 24 120.639 23.2088 119.774 22.2418C119.552 21.978 119.419 21.6703 119.419 21.4286C119.419 20.7473 119.951 20.2857 120.617 20.2857C121.105 20.2857 121.371 20.5714 121.681 20.8352C122.28 21.3846 123.035 21.7582 124.011 21.7582C125.941 21.7582 127.405 20.2857 127.538 18.4615C126.562 19.3187 125.297 19.8242 123.878 19.8242ZM124.144 17.5824C126.007 17.5824 127.471 16.1319 127.56 14.1538V14C127.56 11.956 126.051 10.4176 124.144 10.4176C122.236 10.4176 120.728 11.956 120.728 14C120.728 16.044 122.236 17.5824 124.144 17.5824Z" fill="url(#paint9_linear_3243_11737)"/>
<defs>
<filter id="filter0_b_3243_11737" x="-11.416" y="-8.16602" width="57.8887" height="50.8887" filterUnits="userSpaceOnUse" color-interpolation-filters="sRGB">
<feFlood flood-opacity="0" result="BackgroundImageFix"/>
<feGaussianBlur in="BackgroundImageFix" stdDeviation="10"/>
<feComposite in2="SourceAlpha" operator="in" result="effect1_backgroundBlur_3243_11737"/>
<feBlend mode="normal" in="SourceGraphic" in2="effect1_backgroundBlur_3243_11737" result="shape"/>
</filter>
<filter id="filter1_b_3243_11737" x="-11.416" y="-8.16602" width="57.8887" height="50.8887" filterUnits="userSpaceOnUse" color-interpolation-filters="sRGB">
<feFlood flood-opacity="0" result="BackgroundImageFix"/>
<feGaussianBlur in="BackgroundImageFix" stdDeviation="10"/>
<feComposite in2="SourceAlpha" operator="in" result="effect1_backgroundBlur_3243_11737"/>
<feBlend mode="normal" in="SourceGraphic" in2="effect1_backgroundBlur_3243_11737" result="shape"/>
</filter>
<linearGradient id="paint0_linear_3243_11737" x1="18.9026" y1="17.3948" x2="0.858935" y2="6.28242" gradientUnits="userSpaceOnUse">
<stop offset="0.11069" stop-color="#646AFF"/>
<stop offset="1" stop-color="#7D67FF"/>
</linearGradient>
<linearGradient id="paint1_linear_3243_11737" x1="26.4727" y1="22.7227" x2="12.1772" y2="11.1334" gradientUnits="userSpaceOnUse">
<stop stop-color="#B3A6FF"/>
<stop offset="1" stop-color="white"/>
</linearGradient>
<linearGradient id="paint2_linear_3243_11737" x1="33" y1="4" x2="130" y2="24" gradientUnits="userSpaceOnUse">
<stop stop-color="#7C67FF"/>
<stop offset="0.545" stop-color="#9B8BFD"/>
<stop offset="1" stop-color="#B5A9FC"/>
</linearGradient>
<linearGradient id="paint3_linear_3243_11737" x1="33" y1="4" x2="130" y2="24" gradientUnits="userSpaceOnUse">
<stop stop-color="#7C67FF"/>
<stop offset="0.545" stop-color="#9B8BFD"/>
<stop offset="1" stop-color="#B5A9FC"/>
</linearGradient>
<linearGradient id="paint4_linear_3243_11737" x1="33" y1="4" x2="130" y2="24" gradientUnits="userSpaceOnUse">
<stop stop-color="#7C67FF"/>
<stop offset="0.545" stop-color="#9B8BFD"/>
<stop offset="1" stop-color="#B5A9FC"/>
</linearGradient>
<linearGradient id="paint5_linear_3243_11737" x1="33" y1="4" x2="130" y2="24" gradientUnits="userSpaceOnUse">
<stop stop-color="#7C67FF"/>
<stop offset="0.545" stop-color="#9B8BFD"/>
<stop offset="1" stop-color="#B5A9FC"/>
</linearGradient>
<linearGradient id="paint6_linear_3243_11737" x1="33" y1="4" x2="130" y2="24" gradientUnits="userSpaceOnUse">
<stop stop-color="#7C67FF"/>
<stop offset="0.545" stop-color="#9B8BFD"/>
<stop offset="1" stop-color="#B5A9FC"/>
</linearGradient>
<linearGradient id="paint7_linear_3243_11737" x1="33" y1="4" x2="130" y2="24" gradientUnits="userSpaceOnUse">
<stop stop-color="#7C67FF"/>
<stop offset="0.545" stop-color="#9B8BFD"/>
<stop offset="1" stop-color="#B5A9FC"/>
</linearGradient>
<linearGradient id="paint8_linear_3243_11737" x1="33" y1="4" x2="130" y2="24" gradientUnits="userSpaceOnUse">
<stop stop-color="#7C67FF"/>
<stop offset="0.545" stop-color="#9B8BFD"/>
<stop offset="1" stop-color="#B5A9FC"/>
</linearGradient>
<linearGradient id="paint9_linear_3243_11737" x1="33" y1="4" x2="130" y2="24" gradientUnits="userSpaceOnUse">
<stop stop-color="#7C67FF"/>
<stop offset="0.545" stop-color="#9B8BFD"/>
<stop offset="1" stop-color="#B5A9FC"/>
</linearGradient>
</defs>
</svg>
