<svg width="145" height="144" viewBox="0 0 145 144" fill="none" xmlns="http://www.w3.org/2000/svg">
<path d="M9.91605 29H70.6408C86.2934 29 99 41.9946 99 58C99 74.0054 86.2919 87 70.6393 87H48.9479C25.7963 86.9985 7 67.7785 7 44.1034V31.9818C7 30.3354 8.30601 29 9.91605 29Z" fill="url(#paint0_linear_3239_2807)"/>
<g filter="url(#filter0_b_3239_2807)">
<path d="M135.084 115L74.3602 115C58.7079 115 46 102.454 46 87C46 71.5465 58.7079 59 74.3602 59H96.0512C119.203 59 138 77.5572 138 100.416V112.121C138 113.711 136.694 115 135.084 115Z" fill="#AFA1FF" fill-opacity="0.5"/>
<path d="M135.084 114.5L74.3602 114.5C58.978 114.5 46.5 102.171 46.5 87C46.5 71.8286 58.978 59.5 74.3602 59.5H96.0512C118.932 59.5 137.5 77.8394 137.5 100.416V112.121C137.5 113.428 136.424 114.5 135.084 114.5Z" stroke="url(#paint1_linear_3239_2807)"/>
</g>
<defs>
<filter id="filter0_b_3239_2807" x="26" y="39" width="132" height="96" filterUnits="userSpaceOnUse" color-interpolation-filters="sRGB">
<feFlood flood-opacity="0" result="BackgroundImageFix"/>
<feGaussianBlur in="BackgroundImageFix" stdDeviation="10"/>
<feComposite in2="SourceAlpha" operator="in" result="effect1_backgroundBlur_3239_2807"/>
<feBlend mode="normal" in="SourceGraphic" in2="effect1_backgroundBlur_3239_2807" result="shape"/>
</filter>
<linearGradient id="paint0_linear_3239_2807" x1="99.0704" y1="87.6019" x2="6.27452" y2="30.4524" gradientUnits="userSpaceOnUse">
<stop offset="0.11069" stop-color="#646AFF"/>
<stop offset="1" stop-color="#7D67FF"/>
</linearGradient>
<linearGradient id="paint1_linear_3239_2807" x1="138" y1="115" x2="64.4804" y2="55.3979" gradientUnits="userSpaceOnUse">
<stop stop-color="#B3A6FF"/>
<stop offset="1" stop-color="white"/>
</linearGradient>
</defs>
</svg>
