<svg width="25" height="24" viewBox="0 0 25 24" fill="none" xmlns="http://www.w3.org/2000/svg">
<mask id="mask0_1513_1659" style="mask-type:alpha" maskUnits="userSpaceOnUse" x="0" y="0" width="25" height="24">
<rect x="0.25" width="24" height="24" fill="#D9D9D9"/>
</mask>
<g mask="url(#mask0_1513_1659)">
<path d="M4.75003 18.9999V10.1537C4.75003 9.86752 4.81406 9.59638 4.94211 9.34029C5.07016 9.08421 5.24716 8.87332 5.47311 8.70762L11.1654 4.41917C11.4813 4.17813 11.8423 4.05762 12.2485 4.05762C12.6546 4.05762 13.0167 4.17813 13.3346 4.41917L19.0269 8.70762C19.2529 8.87332 19.4299 9.08421 19.5579 9.34029C19.686 9.59638 19.75 9.86752 19.75 10.1537V18.9999C19.75 19.4089 19.6022 19.7611 19.3067 20.0566C19.0112 20.3521 18.659 20.4999 18.25 20.4999H15.0577C14.8016 20.4999 14.5869 20.4132 14.4137 20.24C14.2405 20.0668 14.1539 19.8521 14.1539 19.596V14.7114C14.1539 14.4553 14.0672 14.2406 13.894 14.0674C13.7207 13.8942 13.5061 13.8076 13.25 13.8076H11.25C10.9939 13.8076 10.7793 13.8942 10.606 14.0674C10.4328 14.2406 10.3462 14.4553 10.3462 14.7114V19.596C10.3462 19.8521 10.2595 20.0668 10.0863 20.24C9.91307 20.4132 9.69841 20.4999 9.44233 20.4999H6.25001C5.84104 20.4999 5.48881 20.3521 5.19331 20.0566C4.89779 19.7611 4.75003 19.4089 4.75003 18.9999Z" fill="#111111"/>
</g>
</svg>
