<svg width="25" height="24" viewBox="0 0 25 24" fill="none" xmlns="http://www.w3.org/2000/svg">
<mask id="mask0_1513_1665" style="mask-type:alpha" maskUnits="userSpaceOnUse" x="0" y="0" width="25" height="24">
<rect x="0.25" width="24" height="24" fill="#D9D9D9"/>
</mask>
<g mask="url(#mask0_1513_1665)">
<path d="M22.2423 10.7075C22.3872 10.8562 22.4596 11.0329 22.4596 11.2373C22.4596 11.4418 22.3872 11.6216 22.2423 11.7767L18.8077 15.196C18.6436 15.3703 18.4343 15.4575 18.1798 15.4575C17.9253 15.4575 17.7128 15.3703 17.5423 15.196L16.2231 13.8921C16.0744 13.7434 16 13.5668 16 13.3623C16 13.1579 16.0776 12.9813 16.2327 12.8325C16.3814 12.6877 16.558 12.6152 16.7625 12.6152C16.967 12.6152 17.1436 12.6877 17.2923 12.8325L18.175 13.7056L21.1827 10.7075C21.3314 10.5627 21.508 10.4902 21.7125 10.4902C21.917 10.4902 22.0936 10.5627 22.2423 10.7075ZM10.6327 19.7998L9.08469 18.3806C7.7244 17.1434 6.57664 16.0614 5.64139 15.1344C4.70612 14.2075 3.9497 13.361 3.37214 12.595C2.79457 11.829 2.37982 11.1088 2.12789 10.4344C1.876 9.76007 1.75006 9.0652 1.75006 8.34983C1.75006 6.9306 2.22858 5.74503 3.18561 4.79311C4.14264 3.84119 5.33077 3.36523 6.74999 3.36523C7.62307 3.36523 8.44807 3.56684 9.22499 3.97006C10.0019 4.37326 10.6769 4.95628 11.25 5.71911C11.8231 4.95628 12.4981 4.37326 13.275 3.97006C14.0519 3.56684 14.8769 3.36523 15.75 3.36523C17.0641 3.36523 18.1682 3.77518 19.0625 4.59506C19.9567 5.41493 20.4884 6.39665 20.6576 7.54023C20.35 7.42613 20.0288 7.35082 19.6942 7.31428C19.3596 7.27773 19.0198 7.25946 18.675 7.25946C17.2391 7.25946 15.9535 7.79824 14.8182 8.87581C13.683 9.95338 13.1154 11.3248 13.1154 12.9902C13.1154 13.7197 13.2631 14.4537 13.5586 15.1921C13.8541 15.9306 14.2865 16.5613 14.8557 17.0844C14.5198 17.387 14.1186 17.7463 13.6519 18.1623C13.1852 18.5783 12.7525 18.969 12.3538 19.3344L11.8423 19.7998C11.6718 19.9536 11.4702 20.0306 11.2375 20.0306C11.0048 20.0306 10.8032 19.9536 10.6327 19.7998Z" fill="#111111"/>
</g>
</svg>
