<svg width="25" height="24" viewBox="0 0 25 24" fill="none" xmlns="http://www.w3.org/2000/svg">
<mask id="mask0_1513_1718" style="mask-type:alpha" maskUnits="userSpaceOnUse" x="0" y="0" width="25" height="24">
<rect x="0.75" width="24" height="24" fill="#D9D9D9"/>
</mask>
<g mask="url(#mask0_1513_1718)">
<path d="M11.1327 19.7998L9.58469 18.3806C8.2244 17.1434 7.07664 16.0614 6.14139 15.1344C5.20612 14.2075 4.4497 13.361 3.87214 12.595C3.29457 11.829 2.87982 11.1088 2.62789 10.4344C2.376 9.76007 2.25006 9.0652 2.25006 8.34983C2.25006 6.9306 2.72858 5.74503 3.68561 4.79311C4.64264 3.84119 5.83077 3.36523 7.24999 3.36523C8.12307 3.36523 8.94807 3.56684 9.72499 3.97006C10.5019 4.37326 11.1769 4.95628 11.75 5.71911C12.3231 4.95628 12.9981 4.37326 13.775 3.97006C14.5519 3.56684 15.3769 3.36523 16.25 3.36523C17.5641 3.36523 18.6682 3.77518 19.5625 4.59506C20.4567 5.41493 20.9884 6.39665 21.1576 7.54023C20.85 7.42613 20.5288 7.35082 20.1942 7.31428C19.8596 7.27773 19.5198 7.25946 19.175 7.25946C17.7391 7.25946 16.4535 7.79824 15.3182 8.87581C14.183 9.95338 13.6154 11.3248 13.6154 12.9902C13.6154 13.7197 13.7631 14.4537 14.0586 15.1921C14.3541 15.9306 14.7865 16.5613 15.3557 17.0844C15.0198 17.387 14.6186 17.7463 14.1519 18.1623C13.6852 18.5783 13.2525 18.969 12.8538 19.3344L12.3423 19.7998C12.1718 19.9536 11.9702 20.0306 11.7375 20.0306C11.5048 20.0306 11.3032 19.9536 11.1327 19.7998Z" fill="#111111"/>
<path d="M19.1153 13.3847V15.6347C19.1153 16.0489 19.4511 16.3847 19.8653 16.3847C20.2795 16.3847 20.6153 16.0489 20.6153 15.6347V13.3847H22.8653C23.2795 13.3847 23.6153 13.0489 23.6153 12.6347C23.6153 12.2205 23.2795 11.8848 22.8653 11.8848H20.6153V9.63475C20.6153 9.22055 20.2795 8.88477 19.8653 8.88477C19.4511 8.88477 19.1153 9.22055 19.1153 9.63475V11.8848H16.8653C16.4511 11.8848 16.1153 12.2205 16.1153 12.6347C16.1153 13.0489 16.4511 13.3847 16.8653 13.3847H19.1153Z" fill="#111111"/>
</g>
</svg>
