<svg width="25" height="24" viewBox="0 0 25 24" fill="none" xmlns="http://www.w3.org/2000/svg">
<mask id="mask0_1510_1724" style="mask-type:alpha" maskUnits="userSpaceOnUse" x="0" y="0" width="25" height="24">
<rect x="0.75" width="24" height="24" fill="#D9D9D9"/>
</mask>
<g mask="url(#mask0_1510_1724)">
<path d="M6.77308 17.2923C7.62308 16.6615 8.54903 16.1635 9.55095 15.7981C10.5529 15.4327 11.6192 15.25 12.75 15.25C13.8807 15.25 14.9471 15.4327 15.949 15.7981C16.9509 16.1635 17.8769 16.6615 18.7269 17.2923C19.3487 16.609 19.8413 15.8179 20.2048 14.9192C20.5682 14.0205 20.75 13.0474 20.75 12C20.75 9.78331 19.9708 7.89581 18.4125 6.33748C16.8541 4.77914 14.9666 3.99998 12.75 3.99998C10.5333 3.99998 8.64581 4.77914 7.08748 6.33748C5.52914 7.89581 4.74998 9.78331 4.74998 12C4.74998 13.0474 4.93171 14.0205 5.29518 14.9192C5.65864 15.8179 6.15128 16.609 6.77308 17.2923ZM12.75 12.75C11.8372 12.75 11.0673 12.4365 10.4404 11.8096C9.81346 11.1827 9.5 10.4128 9.5 9.49998C9.5 8.58716 9.81346 7.81729 10.4404 7.19038C11.0673 6.56346 11.8372 6.25 12.75 6.25C13.6628 6.25 14.4327 6.56346 15.0596 7.19038C15.6865 7.81729 16 8.58716 16 9.49998C16 10.4128 15.6865 11.1827 15.0596 11.8096C14.4327 12.4365 13.6628 12.75 12.75 12.75ZM12.75 21.5C11.4307 21.5 10.1933 21.2519 9.0375 20.7557C7.88173 20.2596 6.87628 19.5839 6.02115 18.7288C5.16603 17.8737 4.4904 16.8682 3.99425 15.7125C3.49808 14.5567 3.25 13.3192 3.25 12C3.25 10.6807 3.49808 9.44325 3.99425 8.2875C4.4904 7.13173 5.16603 6.12628 6.02115 5.27115C6.87628 4.41603 7.88173 3.7404 9.0375 3.24425C10.1933 2.74808 11.4307 2.5 12.75 2.5C14.0692 2.5 15.3067 2.74808 16.4625 3.24425C17.6182 3.7404 18.6237 4.41603 19.4788 5.27115C20.3339 6.12628 21.0096 7.13173 21.5057 8.2875C22.0019 9.44325 22.25 10.6807 22.25 12C22.25 13.3192 22.0019 14.5567 21.5057 15.7125C21.0096 16.8682 20.3339 17.8737 19.4788 18.7288C18.6237 19.5839 17.6182 20.2596 16.4625 20.7557C15.3067 21.2519 14.0692 21.5 12.75 21.5Z" fill="#111111"/>
</g>
</svg>
