<svg width="2014" height="1696" viewBox="0 0 2014 1696" fill="none" xmlns="http://www.w3.org/2000/svg">
<mask id="path-1-outside-1_746_264" maskUnits="userSpaceOnUse" x="0" y="0" width="2014" height="1178" fill="black">
<rect fill="white" width="2014" height="1178"/>
<path fill-rule="evenodd" clip-rule="evenodd" d="M33 1C15.3269 1 1 15.3269 1 33V1177H2013V33C2013 15.3269 1998.67 1 1981 1H33ZM1967 49H47V1129H1967V49Z"/>
</mask>
<path fill-rule="evenodd" clip-rule="evenodd" d="M33 1C15.3269 1 1 15.3269 1 33V1177H2013V33C2013 15.3269 1998.67 1 1981 1H33ZM1967 49H47V1129H1967V49Z" fill="#EDEEF0"/>
<path d="M1 1177H0V1178H1V1177ZM2013 1177V1178H2014V1177H2013ZM47 49V48H46V49H47ZM1967 49H1968V48H1967V49ZM47 1129H46V1130H47V1129ZM1967 1129V1130H1968V1129H1967ZM2 33C2 15.8792 15.8792 2 33 2V0C14.7746 0 0 14.7746 0 33H2ZM2 1177V33H0V1177H2ZM2013 1176H1V1178H2013V1176ZM2012 33V1177H2014V33H2012ZM1981 2C1998.12 2 2012 15.8792 2012 33H2014C2014 14.7746 1999.23 0 1981 0V2ZM33 2H1981V0H33V2ZM47 50H1967V48H47V50ZM48 1129V49H46V1129H48ZM1967 1128H47V1130H1967V1128ZM1966 49V1129H1968V49H1966Z" fill="url(#paint0_linear_746_264)" mask="url(#path-1-outside-1_746_264)"/>
<path d="M1.5 1177.5H2012.5V1347C2012.5 1364.4 1998.4 1378.5 1981 1378.5H32.9999C15.603 1378.5 1.5 1364.4 1.5 1347V1177.5Z" fill="#D4D5D7" stroke="url(#paint1_linear_746_264)"/>
<circle cx="1006.5" cy="23.5" r="7" fill="#55575E" stroke="#3B3B3B"/>
<mask id="mask0_746_264" style="mask-type:alpha" maskUnits="userSpaceOnUse" x="1004" y="21" width="5" height="5">
<circle cx="1006.5" cy="23.5" r="2.5" fill="#494C51"/>
</mask>
<g mask="url(#mask0_746_264)">
<circle cx="1006.5" cy="23.5" r="2.5" fill="#494C51"/>
<rect x="1004" y="21" width="1" height="5" fill="#617189"/>
<rect x="1008" y="21" width="1" height="5" fill="#617189"/>
<circle cx="1006.5" cy="23.5" r="1.5" fill="#7B6A77"/>
<circle cx="1007" cy="23" r="1" fill="white" fill-opacity="0.2"/>
</g>
<rect x="768" y="1379" width="478" height="291" fill="url(#paint2_linear_746_264)"/>
<path d="M768 1672H1246V1689C1246 1690.1 1245.1 1691 1244 1691H770C768.895 1691 768 1690.1 768 1689V1672Z" fill="#D5D6D8"/>
<path d="M768 1672H832V1691H770C768.895 1691 768 1690.1 768 1689V1672Z" fill="#707173"/>
<path d="M1246 1672H1182V1691H1244C1245.1 1691 1246 1690.1 1246 1689V1672Z" fill="#707173"/>
<path d="M1178 1691H1238V1694C1238 1695.1 1237.1 1696 1236 1696H1180C1178.9 1696 1178 1695.1 1178 1694V1691Z" fill="url(#paint3_linear_746_264)"/>
<path d="M1178 1691H1238V1694C1238 1695.1 1237.1 1696 1236 1696H1180C1178.9 1696 1178 1695.1 1178 1694V1691Z" fill="#707173"/>
<rect x="768" y="1670" width="478" height="1" fill="#707173"/>
<rect x="768" y="1671" width="478" height="1" fill="#C7C8CA"/>
<rect x="768" y="1672" width="478" height="1" fill="#EBECEE"/>
<path d="M776 1691H836V1694C836 1695.1 835.105 1696 834 1696H778C776.895 1696 776 1695.1 776 1694V1691Z" fill="#707173"/>
<defs>
<linearGradient id="paint0_linear_746_264" x1="1007" y1="1" x2="1007" y2="1177" gradientUnits="userSpaceOnUse">
<stop stop-color="white"/>
<stop offset="1" stop-color="white" stop-opacity="0"/>
</linearGradient>
<linearGradient id="paint1_linear_746_264" x1="1007" y1="1177" x2="1007" y2="1379" gradientUnits="userSpaceOnUse">
<stop stop-color="white"/>
<stop offset="1" stop-color="white" stop-opacity="0"/>
</linearGradient>
<linearGradient id="paint2_linear_746_264" x1="1007" y1="1379" x2="1007" y2="1670" gradientUnits="userSpaceOnUse">
<stop stop-color="#A4A5A7"/>
<stop offset="0.504809" stop-color="#C8C9CB"/>
<stop offset="0.931918" stop-color="#D0D1D3"/>
<stop offset="0.957961" stop-color="#E8E9EB"/>
<stop offset="1" stop-color="#727375"/>
</linearGradient>
<linearGradient id="paint3_linear_746_264" x1="1208" y1="1691" x2="1208" y2="1696" gradientUnits="userSpaceOnUse">
<stop stop-color="#B39867"/>
<stop offset="0.171456" stop-color="#D8BD86"/>
<stop offset="0.364176" stop-color="#F3DDA6"/>
<stop offset="1" stop-color="#EFD8A1"/>
</linearGradient>
</defs>
</svg>
