<svg width="167" height="75" viewBox="0 0 167 75" fill="none" xmlns="http://www.w3.org/2000/svg">
<path d="M4.83043 30.3713C4.01216 30.3713 3.16748 30.2907 2.29643 30.1293C1.42537 29.968 0.659894 29.7798 0 29.5647V24.8053C1.84771 24.9398 3.00911 25.007 3.48424 25.007C4.51367 25.007 5.27915 24.765 5.78067 24.281C6.30859 23.797 6.57255 23.0037 6.57255 21.9013V0.282349H12.4324V22.7887C12.4324 25.37 11.8253 27.2792 10.6111 28.516C9.42329 29.753 7.49639 30.3713 4.83043 30.3713Z" fill="black"/>
<path d="M28.836 30.3713C25.9588 30.3713 23.6623 29.9815 21.9466 29.2017C20.2309 28.4218 18.9375 26.943 18.0664 24.765C17.1954 22.587 16.7599 19.414 16.7599 15.2462C16.7599 11.0784 17.1954 7.90543 18.0664 5.7274C18.9638 3.52248 20.2705 2.0167 21.9862 1.21002C23.7019 0.403338 25.9852 0 28.836 0C31.713 0 33.9963 0.403338 35.6856 1.21002C37.4013 2.0167 38.6947 3.52248 39.5657 5.7274C40.4369 7.90543 40.8724 11.0784 40.8724 15.2462C40.8724 19.414 40.4369 22.587 39.5657 24.765C38.6947 26.943 37.4013 28.4218 35.6856 29.2017C33.9963 29.9815 31.713 30.3713 28.836 30.3713ZM28.836 25.007C30.4988 25.007 31.7526 24.765 32.5972 24.281C33.4684 23.77 34.0886 22.829 34.4582 21.4577C34.8277 20.0593 35.0125 17.9888 35.0125 15.2462C35.0125 12.3959 34.8277 10.2851 34.4582 8.91378C34.0886 7.51553 33.4684 6.57442 32.5972 6.09042C31.7526 5.6064 30.4988 5.3644 28.836 5.3644C27.1994 5.3644 25.9456 5.6064 25.0746 6.09042C24.2299 6.57442 23.6095 7.51553 23.2136 8.91378C22.8176 10.312 22.6197 12.4228 22.6197 15.2462C22.6197 18.0158 22.8045 20.0863 23.174 21.4577C23.5436 22.829 24.1506 23.77 24.9953 24.281C25.8663 24.765 27.1465 25.007 28.836 25.007Z" fill="black"/>
<path d="M51.7297 30.331C50.2515 30.331 48.9317 29.995 47.7704 29.3226C46.6089 28.6505 45.6982 27.7093 45.0384 26.4993C44.3785 25.2893 44.0486 23.9045 44.0486 22.345C44.0486 20.893 44.3521 19.5215 44.9592 18.2308C45.5663 16.9401 46.4506 15.7974 47.6119 14.8025L49.9875 12.7455L49.4728 11.9388C48.7337 10.7826 48.2455 9.78767 48.0079 8.9541C47.7704 8.09363 47.6515 7.21973 47.6515 6.3324C47.6515 4.28882 48.3378 2.79647 49.7103 1.85533C51.083 0.887325 52.8779 0.40332 55.0951 0.40332C56.5469 0.40332 57.9592 0.497432 59.3317 0.685657C60.7307 0.846992 61.8789 1.06211 62.7763 1.331V5.68705H56.2037C54.4353 5.68705 53.551 6.35928 53.551 7.70375C53.551 8.18775 53.6962 8.72553 53.9865 9.3171C54.2768 9.90867 54.7519 10.6481 55.4119 11.5355L60.8758 19.1988L66.5377 13.9958L68.6758 16.6981L66.023 20.8123L63.7662 23.0306L68.9925 30.1293H62.9346L60.0444 26.4186L58.5794 27.7093C57.5235 28.6505 56.4545 29.3227 55.3723 29.726C54.3164 30.1293 53.1022 30.331 51.7297 30.331ZM52.7591 24.886C53.3398 24.886 53.8809 24.7785 54.3824 24.5633C54.9104 24.3481 55.4383 23.9716 55.9661 23.434L56.956 22.4256L52.7987 16.8191L51.3337 18.1905C50.7002 18.7821 50.2515 19.3468 49.9875 19.8845C49.75 20.4223 49.6313 21.014 49.6313 21.6593C49.6313 22.6273 49.9085 23.407 50.4627 23.9986C51.0434 24.5901 51.8088 24.886 52.7591 24.886Z" fill="black"/>
<path d="M81.672 30.3713C80.1675 30.3713 78.5573 30.2773 76.8416 30.089C75.1259 29.9008 73.6742 29.6588 72.4863 29.363V24.644C74.8355 24.886 77.8051 25.007 81.3948 25.007C83.0051 25.007 84.2192 24.7918 85.0375 24.3617C85.8558 23.9045 86.2648 23.1113 86.2648 21.982V20.893C86.2648 20.0057 86.0009 19.3333 85.4731 18.8762C84.9716 18.3922 84.2456 18.1502 83.2953 18.1502H80.801C77.8975 18.1502 75.7198 17.5048 74.268 16.2142C72.8426 14.9235 72.1299 12.8127 72.1299 9.88179V8.42978C72.1299 2.83683 75.2843 0.0403442 81.5929 0.0403442C83.071 0.0403442 84.602 0.147902 86.1858 0.363016C87.7695 0.551241 89.1949 0.779799 90.4618 1.04869V5.76774C86.8456 5.52574 84.1136 5.40474 82.266 5.40474C80.7614 5.40474 79.6264 5.64674 78.8608 6.13076C78.0954 6.58788 77.7126 7.44833 77.7126 8.71213V9.51879C77.7126 10.5406 77.9898 11.2935 78.5442 11.7775C79.1249 12.2346 79.9959 12.4632 81.1572 12.4632H84.0477C86.5816 12.4632 88.5085 13.1757 89.8283 14.6009C91.1745 15.9991 91.8475 17.841 91.8475 20.1267V21.8207C91.8475 24.0793 91.4384 25.8405 90.6203 27.1043C89.802 28.3412 88.6537 29.2017 87.1755 29.6857C85.6974 30.1428 83.8628 30.3713 81.672 30.3713Z" fill="black"/>
<path d="M107.482 30.3713C104.605 30.3713 102.308 29.9815 100.593 29.2017C98.8768 28.4218 97.5835 26.943 96.7123 24.765C95.8413 22.587 95.4058 19.414 95.4058 15.2462C95.4058 11.0784 95.8413 7.90543 96.7123 5.7274C97.6099 3.52248 98.9164 2.0167 100.632 1.21002C102.348 0.403338 104.631 0 107.482 0C110.359 0 112.642 0.403338 114.331 1.21002C116.047 2.0167 117.341 3.52248 118.212 5.7274C119.083 7.90543 119.518 11.0784 119.518 15.2462C119.518 19.414 119.083 22.587 118.212 24.765C117.341 26.943 116.047 28.4218 114.331 29.2017C112.642 29.9815 110.359 30.3713 107.482 30.3713ZM107.482 25.007C109.145 25.007 110.399 24.765 111.243 24.281C112.114 23.77 112.734 22.829 113.104 21.4577C113.474 20.0593 113.658 17.9888 113.658 15.2462C113.658 12.3959 113.474 10.2851 113.104 8.91378C112.734 7.51553 112.114 6.57442 111.243 6.09042C110.399 5.6064 109.145 5.3644 107.482 5.3644C105.845 5.3644 104.591 5.6064 103.72 6.09042C102.876 6.57442 102.255 7.51553 101.86 8.91378C101.464 10.312 101.266 12.4228 101.266 15.2462C101.266 18.0158 101.45 20.0863 101.82 21.4577C102.189 22.829 102.797 23.77 103.641 24.281C104.512 24.765 105.793 25.007 107.482 25.007Z" fill="black"/>
<path d="M123.843 7.09876C123.843 4.67874 124.489 2.94438 125.783 1.89569C127.103 0.820132 128.686 0.282349 130.534 0.282349C135.787 0.282349 140.01 0.457127 143.204 0.806687V5.80808H132.157C131.365 5.80808 130.758 6.03664 130.336 6.49376C129.914 6.92398 129.703 7.48866 129.703 8.18778V13.3102L141.303 13.6328V18.3518L129.703 18.6745V30.1293H123.843V7.09876Z" fill="black"/>
<path d="M153.063 5.64674H145.026V0.282349H167V5.64674H158.923V30.1293H153.063V5.64674Z" fill="black"/>
<path d="M0.335968 47.5791C0.335968 46.828 0.462706 46.0826 0.716184 45.3433C0.981182 44.5921 1.3614 43.9231 1.85683 43.3363C2.35226 42.7493 2.95715 42.274 3.6715 41.9101C4.39736 41.5346 5.22116 41.3468 6.1429 41.3468C7.23746 41.3468 8.17071 41.605 8.94267 42.1215C9.71462 42.6261 10.2907 43.2775 10.6709 44.0756L9.94505 44.4981C9.72615 44.064 9.4669 43.7001 9.16734 43.4066C8.87929 43.1133 8.56245 42.8785 8.2168 42.7025C7.88266 42.5146 7.53126 42.3796 7.16257 42.2975C6.79387 42.2153 6.43094 42.1743 6.07376 42.1743C5.2903 42.1743 4.59899 42.3386 3.99987 42.6673C3.40073 42.9841 2.89379 43.4008 2.479 43.9173C2.06422 44.4336 1.74738 45.0205 1.52846 45.6778C1.32107 46.3233 1.21738 46.9748 1.21738 47.632C1.21738 48.3715 1.34412 49.0756 1.59759 49.7446C1.85107 50.4136 2.19672 51.0065 2.63454 51.5228C3.07236 52.0275 3.59085 52.4325 4.18997 52.7376C4.7891 53.0428 5.43431 53.1955 6.12561 53.1955C6.49431 53.1955 6.87452 53.1485 7.26625 53.0545C7.658 52.9606 8.03246 52.814 8.38962 52.6145C8.74679 52.4148 9.08092 52.1625 9.39202 51.8573C9.7031 51.5405 9.96234 51.1708 10.1697 50.7481L10.9302 51.118C10.7228 51.5875 10.4405 52.0041 10.0833 52.368C9.72615 52.7318 9.32864 53.037 8.89082 53.2835C8.453 53.53 7.98637 53.7176 7.49094 53.8468C7.00703 53.9641 6.52887 54.0228 6.05649 54.0228C5.2154 54.0228 4.44345 53.8351 3.74062 53.4595C3.04932 53.084 2.4502 52.5968 1.94324 51.9981C1.43629 51.3878 1.03879 50.7013 0.750749 49.9383C0.474229 49.1636 0.335968 48.3773 0.335968 47.5791Z" fill="black"/>
<path d="M15.6384 54.0933C13.7258 54.0933 12.7695 52.7435 12.7695 50.044V44.7623H13.6337V49.9208C13.6337 52.1743 14.3883 53.301 15.8977 53.301C16.2779 53.301 16.6466 53.2365 17.0037 53.1073C17.361 52.9665 17.6951 52.7788 18.0062 52.544C18.3173 52.2975 18.5879 52.0042 18.8185 51.6637C19.0604 51.3233 19.2505 50.9478 19.3887 50.537V44.7623H20.2529V52.6848C20.2529 52.9783 20.3738 53.125 20.6158 53.125V53.9173C20.5582 53.929 20.5063 53.9348 20.4603 53.9348C20.4141 53.9348 20.3796 53.9348 20.3565 53.9348C20.1261 53.9348 19.9187 53.8645 19.7343 53.7237C19.5616 53.571 19.4752 53.3715 19.4752 53.125V51.7518C19.0834 52.4912 18.5419 53.0663 17.8507 53.4772C17.1709 53.8878 16.4335 54.0933 15.6384 54.0933Z" fill="black"/>
<path d="M25.8509 54.0933C25.1597 54.0933 24.4971 53.976 23.8635 53.7412C23.2297 53.5065 22.6766 53.1543 22.2043 52.6848L22.6364 52.0863C23.1203 52.5323 23.6215 52.8608 24.14 53.0722C24.6584 53.2835 25.2288 53.3892 25.8509 53.3892C26.6344 53.3892 27.2623 53.2248 27.7348 52.8962C28.2186 52.5557 28.4606 52.0863 28.4606 51.4877C28.4606 51.206 28.3972 50.9712 28.2705 50.7835C28.1552 50.584 27.9766 50.4197 27.7348 50.2905C27.4928 50.1497 27.1932 50.0263 26.8361 49.9208C26.4788 49.8152 26.0641 49.7037 25.5916 49.5863C25.0847 49.4688 24.6412 49.3515 24.2608 49.2342C23.8923 49.1168 23.5869 48.976 23.345 48.8117C23.103 48.6473 22.9186 48.4478 22.7919 48.213C22.6766 47.9783 22.619 47.679 22.619 47.3152C22.619 46.8573 22.7054 46.4583 22.8783 46.118C23.0511 45.7775 23.2873 45.4958 23.5869 45.2728C23.898 45.0498 24.2494 44.8855 24.6412 44.78C25.0444 44.6625 25.4708 44.6038 25.92 44.6038C26.6229 44.6038 27.2451 44.7272 27.7865 44.9737C28.3281 45.2083 28.7486 45.5135 29.0482 45.889L28.5642 46.3645C28.2647 46.0123 27.873 45.7482 27.389 45.5722C26.9166 45.3962 26.4097 45.3082 25.8681 45.3082C25.5341 45.3082 25.2172 45.3433 24.9177 45.4137C24.6296 45.4842 24.3761 45.5957 24.1572 45.7482C23.9383 45.9008 23.7656 46.1003 23.6387 46.3468C23.512 46.5815 23.4486 46.8633 23.4486 47.1918C23.4486 47.4618 23.489 47.679 23.5696 47.8433C23.6618 48.0077 23.8001 48.1485 23.9845 48.2658C24.1803 48.3832 24.428 48.4888 24.7276 48.5827C25.0271 48.6648 25.3843 48.7588 25.799 48.8645C26.3636 49.0053 26.8649 49.1403 27.3027 49.2693C27.7405 49.3985 28.1035 49.557 28.3915 49.7447C28.6911 49.9325 28.9157 50.1555 29.0655 50.4137C29.2268 50.672 29.3074 51.0007 29.3074 51.3997C29.3074 52.2212 28.9905 52.8785 28.3569 53.3715C27.7348 53.8527 26.8994 54.0933 25.8509 54.0933Z" fill="black"/>
<path d="M35.3295 53.4771C35.2833 53.5006 35.2028 53.5475 35.0875 53.618C34.9837 53.6766 34.8455 53.7353 34.6726 53.794C34.5114 53.8526 34.327 53.9055 34.1197 53.9525C33.9123 53.9993 33.6877 54.0228 33.4457 54.0228C33.2037 54.0228 32.9733 53.9876 32.7543 53.9173C32.547 53.8468 32.3626 53.7411 32.2014 53.6003C32.0399 53.4595 31.9132 53.2893 31.821 53.0898C31.7288 52.8903 31.6828 52.6555 31.6828 52.3855V45.4841H30.4212V44.7623H31.6828V41.6285H32.547V44.7623H34.6381V45.4841H32.547V52.1743C32.547 52.5146 32.6621 52.7728 32.8926 52.949C33.123 53.1133 33.3823 53.1955 33.6703 53.1955C34.0276 53.1955 34.3327 53.1366 34.5863 53.0193C34.8513 52.8903 35.0125 52.8081 35.0702 52.7728L35.3295 53.4771Z" fill="black"/>
<path d="M40.4039 54.0933C39.7702 54.0933 39.1826 53.97 38.641 53.7237C38.1111 53.4653 37.6502 53.1192 37.2585 52.6848C36.8667 52.2507 36.5614 51.7458 36.3425 51.1708C36.1236 50.5957 36.0142 49.9912 36.0142 49.3573C36.0142 48.7118 36.1236 48.1015 36.3425 47.5263C36.573 46.9513 36.8841 46.4467 37.2757 46.0123C37.6675 45.578 38.1284 45.2377 38.6584 44.9912C39.1998 44.733 39.7817 44.6038 40.4039 44.6038C41.026 44.6038 41.6022 44.733 42.1322 44.9912C42.6621 45.2377 43.123 45.578 43.5148 46.0123C43.9181 46.4467 44.2291 46.9513 44.448 47.5263C44.6784 48.1015 44.7937 48.7118 44.7937 49.3573C44.7937 49.9912 44.6784 50.5957 44.448 51.1708C44.2291 51.7458 43.9238 52.2507 43.532 52.6848C43.1404 53.1192 42.6738 53.4653 42.1322 53.7237C41.6022 53.97 41.026 54.0933 40.4039 54.0933ZM36.8782 49.3927C36.8782 49.9325 36.9704 50.443 37.1547 50.9243C37.3391 51.3938 37.5868 51.8045 37.8979 52.1567C38.2206 52.5088 38.595 52.7905 39.0214 53.0018C39.4475 53.2013 39.9027 53.301 40.3867 53.301C40.8705 53.301 41.3256 53.2013 41.752 53.0018C42.1783 52.7905 42.5528 52.503 42.8753 52.1392C43.1978 51.7752 43.4515 51.3585 43.6358 50.8892C43.8202 50.4078 43.9123 49.8915 43.9123 49.3398C43.9123 48.7998 43.8202 48.2952 43.6358 47.8257C43.4515 47.3445 43.1978 46.9278 42.8753 46.5757C42.5528 46.2118 42.1783 45.9243 41.752 45.713C41.3371 45.5018 40.8878 45.3962 40.4039 45.3962C39.9201 45.3962 39.4649 45.5018 39.0386 45.713C38.6122 45.9243 38.2378 46.2118 37.9152 46.5757C37.6042 46.9395 37.3507 47.368 37.1547 47.8608C36.9704 48.3422 36.8782 48.8527 36.8782 49.3927Z" fill="black"/>
<path d="M60.0679 53.9173H59.2038V48.8117C59.2038 47.6497 59.0252 46.7928 58.6681 46.2412C58.3223 45.6895 57.7866 45.4137 57.0608 45.4137C56.6921 45.4137 56.3405 45.4842 56.0065 45.625C55.6724 45.7658 55.367 45.9653 55.0905 46.2237C54.814 46.47 54.572 46.7693 54.3647 47.1215C54.1687 47.4618 54.0132 47.8433 53.8981 48.2658V53.9173H53.0339V48.8117C53.0339 47.6378 52.861 46.7812 52.5154 46.2412C52.1698 45.6895 51.6339 45.4137 50.9081 45.4137C50.5394 45.4137 50.1881 45.4842 49.8539 45.625C49.5314 45.7542 49.2318 45.9478 48.9552 46.206C48.6787 46.4525 48.431 46.7518 48.2121 47.1038C48.0046 47.4442 47.8434 47.8257 47.7281 48.2482V53.9173H46.864V44.7623H47.6764V46.9455C48.0451 46.206 48.5289 45.6308 49.1281 45.22C49.7272 44.8093 50.3896 44.6038 51.1156 44.6038C51.8759 44.6038 52.4923 44.8327 52.9647 45.2905C53.4372 45.7482 53.7195 46.3468 53.8116 47.0863C54.6642 45.4313 55.8394 44.6038 57.3373 44.6038C58.3166 44.6038 59.0137 44.9618 59.4284 45.6778C59.8548 46.382 60.0679 47.3738 60.0679 48.6532V53.9173Z" fill="black"/>
<path d="M66.4976 54.0933C65.864 54.0933 65.2764 53.97 64.7349 53.7237C64.1933 53.4653 63.721 53.1192 63.3177 52.6848C62.9259 52.2388 62.6149 51.7283 62.3845 51.1532C62.1656 50.578 62.0561 49.9618 62.0561 49.3045C62.0561 48.659 62.1656 48.0545 62.3845 47.4912C62.6149 46.916 62.9259 46.4173 63.3177 45.9947C63.7094 45.5605 64.1703 45.22 64.7002 44.9737C65.2418 44.7272 65.8237 44.6038 66.4459 44.6038C67.0795 44.6038 67.6671 44.733 68.2087 44.9912C68.7501 45.2377 69.2168 45.578 69.6086 46.0123C70.0002 46.4348 70.3055 46.9337 70.5244 47.5088C70.7433 48.0722 70.8529 48.6708 70.8529 49.3045C70.8529 49.3633 70.8529 49.4395 70.8529 49.5335C70.8529 49.6157 70.8471 49.6685 70.8355 49.6918H62.9548C62.9893 50.22 63.1103 50.713 63.3177 51.1708C63.525 51.6168 63.7843 52.0042 64.0954 52.3327C64.418 52.6613 64.7867 52.9197 65.2016 53.1073C65.6163 53.2952 66.0598 53.3892 66.5323 53.3892C66.8434 53.3892 67.1486 53.348 67.4482 53.2658C67.7478 53.172 68.0243 53.0487 68.2778 52.8962C68.5427 52.7435 68.7732 52.5617 68.969 52.3503C69.1765 52.1273 69.3377 51.8867 69.453 51.6285L70.2134 51.8398C70.0866 52.1685 69.8965 52.4737 69.6431 52.7553C69.4011 53.0252 69.1131 53.26 68.779 53.4595C68.4564 53.659 68.0992 53.8117 67.7074 53.9173C67.3157 54.0347 66.9125 54.0933 66.4976 54.0933ZM70.0233 48.9877C69.9887 48.4478 69.8677 47.9548 69.6605 47.5088C69.4645 47.0628 69.2053 46.6813 68.8826 46.3645C68.5715 46.0358 68.2087 45.7835 67.7938 45.6073C67.3791 45.4197 66.9356 45.3257 66.4631 45.3257C65.9907 45.3257 65.5472 45.4197 65.1323 45.6073C64.7176 45.7835 64.3489 46.0358 64.0263 46.3645C63.7153 46.6813 63.4616 47.0687 63.2658 47.5263C63.0815 47.9723 62.9721 48.4595 62.9374 48.9877H70.0233Z" fill="black"/>
<path d="M77.0055 45.5545C76.199 45.578 75.4905 45.8245 74.8798 46.294C74.2808 46.7518 73.8602 47.3855 73.6182 48.1955V53.9173H72.754V44.7623H73.5836V47.0158C73.8947 46.3703 74.3037 45.848 74.8107 45.449C75.3291 45.0382 75.8822 44.8033 76.4698 44.7447C76.585 44.733 76.6887 44.7272 76.7809 44.7272C76.873 44.7272 76.948 44.7272 77.0055 44.7272V45.5545Z" fill="black"/>
<path d="M91.9592 50.6779C91.9592 51.1355 91.8728 51.564 91.6999 51.963C91.5271 52.3504 91.2909 52.6907 90.9913 52.9842C90.6918 53.2775 90.3403 53.5065 89.937 53.6709C89.5338 53.8352 89.1076 53.9174 88.6582 53.9174H82.9204V41.4174H88.641C89.0672 41.4174 89.4532 41.5112 89.7988 41.699C90.1445 41.8867 90.4384 42.1332 90.6802 42.4384C90.9222 42.7319 91.1065 43.0722 91.2332 43.4595C91.3716 43.8352 91.4407 44.2165 91.4407 44.6039C91.4407 45.2377 91.2851 45.8187 90.9741 46.3469C90.663 46.875 90.2309 47.2624 89.6779 47.5089C90.3807 47.72 90.9338 48.1192 91.337 48.706C91.7518 49.2812 91.9592 49.9384 91.9592 50.6779ZM91.0777 50.5545C91.0777 50.226 91.0201 49.909 90.905 49.6039C90.7897 49.287 90.6284 49.0112 90.421 48.7764C90.2136 48.53 89.9658 48.3364 89.6779 48.1955C89.4013 48.0545 89.1017 47.9842 88.7792 47.9842H83.8017V53.1074H88.6582C89.0038 53.1074 89.3206 53.037 89.6088 52.8962C89.9082 52.7554 90.1618 52.5675 90.3691 52.3327C90.588 52.0864 90.7609 51.8105 90.8876 51.5054C91.0143 51.2002 91.0777 50.8832 91.0777 50.5545ZM83.8017 42.2272V47.2272H88.2952C88.6294 47.2272 88.9347 47.1567 89.2112 47.0159C89.4878 46.875 89.724 46.693 89.9198 46.47C90.1273 46.2354 90.2885 45.9654 90.4036 45.6602C90.5189 45.355 90.5765 45.044 90.5765 44.7272C90.5765 44.3867 90.5189 44.0699 90.4036 43.7764C90.3 43.4712 90.1502 43.2072 89.9544 42.9842C89.77 42.7494 89.5454 42.5675 89.2803 42.4384C89.0154 42.2975 88.7215 42.2272 88.399 42.2272H83.8017Z" fill="black"/>
<path d="M96.8865 54.0933C94.9739 54.0933 94.0177 52.7435 94.0177 50.044V44.7623H94.8819V49.9208C94.8819 52.1743 95.6365 53.301 97.1459 53.301C97.526 53.301 97.8947 53.2365 98.2518 53.1073C98.6091 52.9665 98.9432 52.7788 99.2543 52.544C99.5654 52.2975 99.836 52.0042 100.067 51.6637C100.309 51.3233 100.499 50.9478 100.637 50.537V44.7623H101.501V52.6848C101.501 52.9783 101.622 53.125 101.864 53.125V53.9173C101.806 53.929 101.754 53.9348 101.708 53.9348C101.662 53.9348 101.628 53.9348 101.605 53.9348C101.374 53.9348 101.167 53.8645 100.982 53.7237C100.81 53.571 100.723 53.3715 100.723 53.125V51.7518C100.331 52.4912 99.79 53.0663 99.0988 53.4772C98.419 53.8878 97.6816 54.0933 96.8865 54.0933Z" fill="black"/>
<path d="M107.099 54.0933C106.408 54.0933 105.745 53.976 105.112 53.7412C104.478 53.5065 103.925 53.1543 103.452 52.6848L103.884 52.0863C104.368 52.5323 104.87 52.8608 105.388 53.0722C105.906 53.2835 106.477 53.3892 107.099 53.3892C107.882 53.3892 108.511 53.2248 108.983 52.8962C109.467 52.5557 109.709 52.0863 109.709 51.4877C109.709 51.206 109.645 50.9712 109.519 50.7835C109.403 50.584 109.225 50.4197 108.983 50.2905C108.741 50.1497 108.441 50.0263 108.084 49.9208C107.727 49.8152 107.312 49.7037 106.84 49.5863C106.333 49.4688 105.889 49.3515 105.509 49.2342C105.14 49.1168 104.835 48.976 104.593 48.8117C104.351 48.6473 104.167 48.4478 104.04 48.213C103.925 47.9783 103.867 47.679 103.867 47.3152C103.867 46.8573 103.954 46.4583 104.126 46.118C104.299 45.7775 104.535 45.4958 104.835 45.2728C105.146 45.0498 105.497 44.8855 105.889 44.78C106.293 44.6625 106.719 44.6038 107.168 44.6038C107.871 44.6038 108.493 44.7272 109.035 44.9737C109.576 45.2083 109.997 45.5135 110.296 45.889L109.812 46.3645C109.513 46.0123 109.121 45.7482 108.637 45.5722C108.165 45.3962 107.658 45.3082 107.116 45.3082C106.782 45.3082 106.465 45.3433 106.166 45.4137C105.878 45.4842 105.624 45.5957 105.405 45.7482C105.186 45.9008 105.014 46.1003 104.887 46.3468C104.76 46.5815 104.697 46.8633 104.697 47.1918C104.697 47.4618 104.737 47.679 104.818 47.8433C104.91 48.0077 105.048 48.1485 105.233 48.2658C105.428 48.3832 105.676 48.4888 105.976 48.5827C106.275 48.6648 106.632 48.7588 107.047 48.8645C107.612 49.0053 108.113 49.1403 108.551 49.2693C108.989 49.3985 109.352 49.557 109.64 49.7447C109.939 49.9325 110.164 50.1555 110.314 50.4137C110.475 50.672 110.555 51.0007 110.555 51.3997C110.555 52.2212 110.239 52.8785 109.605 53.3715C108.983 53.8527 108.148 54.0933 107.099 54.0933Z" fill="black"/>
<path d="M112.568 53.9174V44.7624H113.432V53.9174H112.568ZM112.568 42.6849V41.0652H113.432V42.6849H112.568Z" fill="black"/>
<path d="M123.491 53.9173H122.627V48.8117C122.627 47.6262 122.46 46.7635 122.126 46.2237C121.803 45.6837 121.285 45.4137 120.57 45.4137C120.19 45.4137 119.81 45.4842 119.43 45.625C119.061 45.7658 118.715 45.9653 118.393 46.2237C118.07 46.4818 117.788 46.787 117.546 47.1392C117.304 47.4795 117.125 47.8492 117.01 48.2482V53.9173H116.146V44.7623H116.958V46.9455C117.143 46.5933 117.367 46.2763 117.632 45.9947C117.909 45.7013 118.214 45.4548 118.548 45.2553C118.894 45.044 119.257 44.8855 119.637 44.78C120.017 44.6625 120.409 44.6038 120.812 44.6038C121.792 44.6038 122.483 44.956 122.886 45.6602C123.29 46.3527 123.491 47.3503 123.491 48.6532V53.9173Z" fill="black"/>
<path d="M129.923 54.0933C129.289 54.0933 128.702 53.97 128.16 53.7237C127.619 53.4653 127.146 53.1192 126.743 52.6848C126.352 52.2388 126.04 51.7283 125.81 51.1532C125.591 50.578 125.482 49.9618 125.482 49.3045C125.482 48.659 125.591 48.0545 125.81 47.4912C126.04 46.916 126.352 46.4173 126.743 45.9947C127.135 45.5605 127.596 45.22 128.126 44.9737C128.667 44.7272 129.249 44.6038 129.871 44.6038C130.505 44.6038 131.093 44.733 131.634 44.9912C132.176 45.2377 132.642 45.578 133.034 46.0123C133.426 46.4348 133.731 46.9337 133.95 47.5088C134.169 48.0722 134.278 48.6708 134.278 49.3045C134.278 49.3633 134.278 49.4395 134.278 49.5335C134.278 49.6157 134.273 49.6685 134.261 49.6918H126.38C126.415 50.22 126.536 50.713 126.743 51.1708C126.951 51.6168 127.21 52.0042 127.521 52.3327C127.844 52.6613 128.212 52.9197 128.627 53.1073C129.042 53.2952 129.485 53.3892 129.958 53.3892C130.269 53.3892 130.574 53.348 130.874 53.2658C131.173 53.172 131.45 53.0487 131.703 52.8962C131.968 52.7435 132.199 52.5617 132.395 52.3503C132.602 52.1273 132.763 51.8867 132.878 51.6285L133.639 51.8398C133.512 52.1685 133.322 52.4737 133.069 52.7553C132.827 53.0252 132.539 53.26 132.205 53.4595C131.882 53.659 131.525 53.8117 131.133 53.9173C130.741 54.0347 130.338 54.0933 129.923 54.0933ZM133.449 48.9877C133.414 48.4478 133.293 47.9548 133.086 47.5088C132.89 47.0628 132.631 46.6813 132.308 46.3645C131.997 46.0358 131.634 45.7835 131.219 45.6073C130.805 45.4197 130.361 45.3257 129.889 45.3257C129.416 45.3257 128.973 45.4197 128.558 45.6073C128.143 45.7835 127.774 46.0358 127.452 46.3645C127.141 46.6813 126.887 47.0687 126.691 47.5263C126.507 47.9723 126.398 48.4595 126.363 48.9877H133.449Z" fill="black"/>
<path d="M139.031 54.0933C138.34 54.0933 137.677 53.976 137.044 53.7412C136.41 53.5065 135.857 53.1543 135.385 52.6848L135.817 52.0863C136.301 52.5323 136.802 52.8608 137.32 53.0722C137.839 53.2835 138.409 53.3892 139.031 53.3892C139.815 53.3892 140.443 53.2248 140.915 52.8962C141.399 52.5557 141.641 52.0863 141.641 51.4877C141.641 51.206 141.578 50.9712 141.451 50.7835C141.336 50.584 141.157 50.4197 140.915 50.2905C140.673 50.1497 140.373 50.0263 140.016 49.9208C139.659 49.8152 139.244 49.7037 138.772 49.5863C138.265 49.4688 137.821 49.3515 137.441 49.2342C137.072 49.1168 136.767 48.976 136.525 48.8117C136.283 48.6473 136.099 48.4478 135.972 48.213C135.857 47.9783 135.799 47.679 135.799 47.3152C135.799 46.8573 135.886 46.4583 136.059 46.118C136.231 45.7775 136.468 45.4958 136.767 45.2728C137.078 45.0498 137.43 44.8855 137.821 44.78C138.225 44.6625 138.651 44.6038 139.1 44.6038C139.803 44.6038 140.425 44.7272 140.967 44.9737C141.508 45.2083 141.929 45.5135 142.228 45.889L141.745 46.3645C141.445 46.0123 141.053 45.7482 140.569 45.5722C140.097 45.3962 139.59 45.3082 139.048 45.3082C138.714 45.3082 138.397 45.3433 138.098 45.4137C137.81 45.4842 137.556 45.5957 137.338 45.7482C137.119 45.9008 136.946 46.1003 136.819 46.3468C136.692 46.5815 136.629 46.8633 136.629 47.1918C136.629 47.4618 136.669 47.679 136.75 47.8433C136.842 48.0077 136.98 48.1485 137.165 48.2658C137.361 48.3832 137.608 48.4888 137.908 48.5827C138.207 48.6648 138.565 48.7588 138.979 48.8645C139.544 49.0053 140.045 49.1403 140.483 49.2693C140.921 49.3985 141.284 49.557 141.572 49.7447C141.871 49.9325 142.096 50.1555 142.246 50.4137C142.407 50.672 142.488 51.0007 142.488 51.3997C142.488 52.2212 142.171 52.8785 141.537 53.3715C140.915 53.8527 140.08 54.0933 139.031 54.0933Z" fill="black"/>
<path d="M147.352 54.0933C146.661 54.0933 145.998 53.976 145.364 53.7412C144.731 53.5065 144.178 53.1543 143.705 52.6848L144.137 52.0863C144.621 52.5323 145.122 52.8608 145.641 53.0722C146.159 53.2835 146.73 53.3892 147.352 53.3892C148.135 53.3892 148.763 53.2248 149.236 52.8962C149.72 52.5557 149.961 52.0863 149.961 51.4877C149.961 51.206 149.898 50.9712 149.771 50.7835C149.656 50.584 149.478 50.4197 149.236 50.2905C148.994 50.1497 148.694 50.0263 148.337 49.9208C147.98 49.8152 147.565 49.7037 147.093 49.5863C146.586 49.4688 146.142 49.3515 145.762 49.2342C145.393 49.1168 145.088 48.976 144.846 48.8117C144.604 48.6473 144.419 48.4478 144.293 48.213C144.178 47.9783 144.12 47.679 144.12 47.3152C144.12 46.8573 144.206 46.4583 144.379 46.118C144.552 45.7775 144.788 45.4958 145.088 45.2728C145.399 45.0498 145.75 44.8855 146.142 44.78C146.545 44.6625 146.972 44.6038 147.421 44.6038C148.124 44.6038 148.746 44.7272 149.288 44.9737C149.829 45.2083 150.25 45.5135 150.549 45.889L150.065 46.3645C149.766 46.0123 149.374 45.7482 148.89 45.5722C148.418 45.3962 147.911 45.3082 147.369 45.3082C147.035 45.3082 146.718 45.3433 146.419 45.4137C146.131 45.4842 145.877 45.5957 145.658 45.7482C145.439 45.9008 145.266 46.1003 145.14 46.3468C145.013 46.5815 144.95 46.8633 144.95 47.1918C144.95 47.4618 144.99 47.679 145.071 47.8433C145.163 48.0077 145.301 48.1485 145.485 48.2658C145.681 48.3832 145.929 48.4888 146.228 48.5827C146.528 48.6648 146.885 48.7588 147.3 48.8645C147.865 49.0053 148.366 49.1403 148.804 49.2693C149.241 49.3985 149.604 49.557 149.892 49.7447C150.192 49.9325 150.417 50.1555 150.566 50.4137C150.728 50.672 150.808 51.0007 150.808 51.3997C150.808 52.2212 150.492 52.8785 149.858 53.3715C149.236 53.8527 148.4 54.0933 147.352 54.0933Z" fill="black"/>
<path d="M0.335968 68.4858C0.335968 67.7346 0.462706 66.9895 0.716184 66.25C0.981182 65.4988 1.3614 64.8298 1.85683 64.243C2.35226 63.6561 2.95715 63.1806 3.6715 62.8168C4.39736 62.4413 5.22116 62.2535 6.1429 62.2535C7.23746 62.2535 8.17071 62.5116 8.94267 63.0281C9.71462 63.5328 10.2907 64.1843 10.6709 64.9823L9.94505 65.405C9.72615 64.9706 9.4669 64.6068 9.16734 64.3133C8.87929 64.02 8.56245 63.7851 8.2168 63.6091C7.88266 63.4213 7.53126 63.2863 7.16257 63.2041C6.79387 63.122 6.43094 63.081 6.07376 63.081C5.2903 63.081 4.59899 63.2453 3.99987 63.574C3.40073 63.8908 2.89379 64.3075 2.479 64.824C2.06422 65.3403 1.74738 65.9271 1.52846 66.5845C1.32107 67.23 1.21738 67.8815 1.21738 68.5386C1.21738 69.2781 1.34412 69.9823 1.59759 70.6513C1.85107 71.3205 2.19672 71.9131 2.63454 72.4295C3.07236 72.9343 3.59085 73.3391 4.18997 73.6443C4.7891 73.9495 5.43431 74.1021 6.12561 74.1021C6.49431 74.1021 6.87452 74.0551 7.26625 73.9613C7.658 73.8673 8.03246 73.7206 8.38962 73.5211C8.74679 73.3216 9.08092 73.0691 9.39202 72.764C9.7031 72.4471 9.96234 72.0775 10.1697 71.655L10.9302 72.0246C10.7228 72.4941 10.4405 72.9108 10.0833 73.2746C9.72615 73.6385 9.32864 73.9436 8.89082 74.1901C8.453 74.4366 7.98637 74.6243 7.49094 74.7535C7.00703 74.8708 6.52887 74.9295 6.05649 74.9295C5.2154 74.9295 4.44345 74.7418 3.74062 74.3661C3.04932 73.9906 2.4502 73.5035 1.94324 72.905C1.43629 72.2946 1.03879 71.608 0.750749 70.845C0.474229 70.0705 0.335968 69.284 0.335968 68.4858Z" fill="black"/>
<path d="M16.6235 75C15.9898 75 15.4022 74.8768 14.8607 74.6303C14.3307 74.372 13.8699 74.0258 13.4781 73.5915C13.0864 73.1573 12.781 72.6525 12.5621 72.0775C12.3432 71.5023 12.2338 70.8978 12.2338 70.264C12.2338 69.6185 12.3432 69.0082 12.5621 68.4332C12.7926 67.858 13.1037 67.3533 13.4954 66.919C13.8871 66.4847 14.348 66.1443 14.878 65.8978C15.4195 65.6397 16.0014 65.5105 16.6235 65.5105C17.2457 65.5105 17.8218 65.6397 18.3518 65.8978C18.8818 66.1443 19.3427 66.4847 19.7343 66.919C20.1376 67.3533 20.4487 67.858 20.6677 68.4332C20.8981 69.0082 21.0133 69.6185 21.0133 70.264C21.0133 70.8978 20.8981 71.5023 20.6677 72.0775C20.4487 72.6525 20.1435 73.1573 19.7517 73.5915C19.3599 74.0258 18.8933 74.372 18.3518 74.6303C17.8218 74.8768 17.2457 75 16.6235 75ZM13.0979 70.2993C13.0979 70.8392 13.1901 71.3498 13.3744 71.831C13.5588 72.3005 13.8065 72.7113 14.1176 73.0633C14.4402 73.4155 14.8146 73.6972 15.2409 73.9085C15.6672 74.108 16.1223 74.2077 16.6062 74.2077C17.0902 74.2077 17.5453 74.108 17.9715 73.9085C18.3978 73.6972 18.7723 73.4097 19.095 73.0458C19.4175 72.682 19.671 72.2653 19.8553 71.7958C20.0397 71.3145 20.1318 70.7982 20.1318 70.2465C20.1318 69.7065 20.0397 69.2018 19.8553 68.7323C19.671 68.2512 19.4175 67.8345 19.095 67.4823C18.7723 67.1185 18.3978 66.831 17.9715 66.6197C17.5568 66.4085 17.1075 66.3028 16.6235 66.3028C16.1396 66.3028 15.6845 66.4085 15.2582 66.6197C14.8319 66.831 14.4575 67.1185 14.1348 67.4823C13.8238 67.8462 13.5703 68.2747 13.3744 68.7677C13.1901 69.2488 13.0979 69.7593 13.0979 70.2993Z" fill="black"/>
<path d="M30.4287 74.824H29.5646V69.7183C29.5646 68.5328 29.3976 67.6702 29.0634 67.1303C28.7409 66.5903 28.2223 66.3205 27.508 66.3205C27.1278 66.3205 26.7475 66.3908 26.3673 66.5317C25.9986 66.6725 25.653 66.872 25.3305 67.1303C25.0078 67.3885 24.7255 67.6937 24.4835 68.0458C24.2417 68.3862 24.0631 68.7558 23.9478 69.155V74.824H23.0836V65.669H23.8959V67.8522C24.0802 67.5 24.305 67.1832 24.5699 66.9013C24.8465 66.608 25.1518 66.3615 25.486 66.162C25.8316 65.9507 26.1946 65.7923 26.5748 65.6867C26.9549 65.5692 27.3467 65.5105 27.75 65.5105C28.7292 65.5105 29.4206 65.8627 29.8239 66.5668C30.2272 67.2593 30.4287 68.257 30.4287 69.5598V74.824Z" fill="black"/>
<path d="M36.9666 74.3838C36.9204 74.4073 36.8399 74.4542 36.7246 74.5247C36.621 74.5833 36.4826 74.642 36.3099 74.7007C36.1484 74.7593 35.9641 74.8122 35.7568 74.8592C35.5494 74.9062 35.3247 74.9295 35.0828 74.9295C34.8408 74.9295 34.6104 74.8943 34.3915 74.824C34.1841 74.7535 33.9997 74.6478 33.8384 74.507C33.6772 74.3662 33.5503 74.196 33.4581 73.9965C33.3659 73.797 33.3199 73.5622 33.3199 73.2923V66.3908H32.0583V65.669H33.3199V62.5352H34.1841V65.669H36.2752V66.3908H34.1841V73.081C34.1841 73.4213 34.2993 73.6795 34.5297 73.8557C34.7601 74.02 35.0194 74.1022 35.3074 74.1022C35.6646 74.1022 35.97 74.0435 36.2234 73.926C36.4883 73.797 36.6498 73.7148 36.7072 73.6795L36.9666 74.3838Z" fill="black"/>
<path d="M42.7443 66.4614C41.9378 66.4847 41.2292 66.7312 40.6185 67.2007C40.0194 67.6585 39.599 68.2924 39.357 69.1022V74.824H38.4929V65.669H39.3225V67.9225C39.6335 67.277 40.0425 66.7547 40.5494 66.3557C41.0679 65.9449 41.621 65.7102 42.2086 65.6514C42.3239 65.6397 42.4275 65.6339 42.5197 65.6339C42.6119 65.6339 42.6867 65.6339 42.7443 65.6339V66.4614Z" fill="black"/>
<path d="M44.383 74.824V65.669H45.2472V74.824H44.383ZM44.383 63.5915V61.9719H45.2472V63.5915H44.383Z" fill="black"/>
<path d="M52.1608 75C51.4579 75 50.8012 74.8122 50.1905 74.4367C49.5798 74.061 49.1018 73.5799 48.7561 72.993V74.824H47.9611V61.9719H48.8252V67.6585C49.2516 67.0247 49.7527 66.5082 50.3287 66.1092C50.9163 65.7102 51.5904 65.5105 52.3509 65.5105C52.9845 65.5105 53.5549 65.6514 54.0618 65.9332C54.5803 66.203 55.0124 66.5669 55.358 67.0247C55.7151 67.4707 55.9859 67.9812 56.1703 68.5564C56.3661 69.1197 56.464 69.6949 56.464 70.2817C56.464 70.9155 56.3546 71.52 56.1357 72.095C55.9168 72.6585 55.6115 73.1574 55.2197 73.5915C54.8395 74.0142 54.3844 74.3545 53.8544 74.6127C53.3359 74.8709 52.7713 75 52.1608 75ZM51.9879 74.2077C52.5179 74.2077 53.0019 74.0962 53.4397 73.8732C53.8775 73.6502 54.2519 73.3569 54.563 72.993C54.8855 72.6174 55.1332 72.1949 55.3061 71.7254C55.4905 71.2559 55.5827 70.7747 55.5827 70.2817C55.5827 69.7654 55.4962 69.2724 55.3235 68.8029C55.1621 68.3217 54.926 67.899 54.6149 67.5352C54.3153 67.1597 53.9523 66.8604 53.5261 66.6374C53.1112 66.4144 52.6504 66.3029 52.1435 66.3029C51.7633 66.3029 51.406 66.3732 51.0719 66.5142C50.7379 66.6432 50.4268 66.8192 50.1386 67.0424C49.8621 67.2654 49.6087 67.5235 49.3783 67.8169C49.1594 68.1104 48.975 68.4155 48.8252 68.7324V71.7605C48.8598 72.101 48.9865 72.4237 49.2054 72.7289C49.4243 73.0224 49.6836 73.2805 49.9831 73.5035C50.2942 73.7149 50.6283 73.885 50.9856 74.0142C51.3427 74.1432 51.6768 74.2077 51.9879 74.2077Z" fill="black"/>
<path d="M61.3257 75C59.4132 75 58.4569 73.6502 58.4569 70.9507V65.669H59.321V70.8275C59.321 73.081 60.0756 74.2077 61.585 74.2077C61.9652 74.2077 62.3339 74.1432 62.691 74.0142C63.0482 73.8732 63.3824 73.6855 63.6935 73.4507C64.0046 73.2042 64.2754 72.9108 64.5057 72.5705C64.7477 72.23 64.9378 71.8545 65.076 71.4437V65.669H65.9401V73.5915C65.9401 73.885 66.0611 74.0317 66.3031 74.0317V74.824C66.2455 74.8357 66.1937 74.8415 66.1476 74.8415C66.1016 74.8415 66.0668 74.8415 66.0439 74.8415C65.8134 74.8415 65.6061 74.7712 65.4218 74.6303C65.2489 74.4777 65.1624 74.2782 65.1624 74.0317V72.6585C64.7708 73.3978 64.2292 73.973 63.5379 74.3838C62.8581 74.7947 62.1207 75 61.3257 75Z" fill="black"/>
<path d="M72.6961 74.3838C72.6501 74.4073 72.5694 74.4542 72.4543 74.5247C72.3505 74.5833 72.2123 74.642 72.0394 74.7007C71.8781 74.7593 71.6938 74.8122 71.4863 74.8592C71.279 74.9062 71.0543 74.9295 70.8124 74.9295C70.5704 74.9295 70.3399 74.8943 70.121 74.824C69.9137 74.7535 69.7294 74.6478 69.568 74.507C69.4067 74.3662 69.28 74.196 69.1878 73.9965C69.0956 73.797 69.0496 73.5622 69.0496 73.2923V66.3908H67.7879V65.669H69.0496V62.5352H69.9137V65.669H72.0048V66.3908H69.9137V73.081C69.9137 73.4213 70.0288 73.6795 70.2594 73.8557C70.4897 74.02 70.7491 74.1022 71.0371 74.1022C71.3941 74.1022 71.6995 74.0435 71.9529 73.926C72.218 73.797 72.3793 73.7148 72.4369 73.6795L72.6961 74.3838Z" fill="black"/>
<path d="M74.2225 74.824V65.669H75.0865V74.824H74.2225ZM74.2225 63.5915V61.9719H75.0865V63.5915H74.2225Z" fill="black"/>
<path d="M81.568 75C80.9342 75 80.3468 74.8768 79.8052 74.6303C79.2752 74.372 78.8143 74.0258 78.4225 73.5915C78.0309 73.1573 77.7256 72.6525 77.5067 72.0775C77.2878 71.5023 77.1782 70.8978 77.1782 70.264C77.1782 69.6185 77.2878 69.0082 77.5067 68.4332C77.737 67.858 78.0481 67.3533 78.4399 66.919C78.8317 66.4847 79.2926 66.1443 79.8226 65.8978C80.364 65.6397 80.9459 65.5105 81.568 65.5105C82.1902 65.5105 82.7663 65.6397 83.2963 65.8978C83.8263 66.1443 84.2872 66.4847 84.6788 66.919C85.0821 67.3533 85.3932 67.858 85.6122 68.4332C85.8426 69.0082 85.9578 69.6185 85.9578 70.264C85.9578 70.8978 85.8426 71.5023 85.6122 72.0775C85.3932 72.6525 85.088 73.1573 84.6962 73.5915C84.3044 74.0258 83.8378 74.372 83.2963 74.6303C82.7663 74.8768 82.1902 75 81.568 75ZM78.0424 70.2993C78.0424 70.8392 78.1345 71.3498 78.3189 71.831C78.5032 72.3005 78.751 72.7113 79.062 73.0633C79.3846 73.4155 79.7592 73.6972 80.1854 73.9085C80.6117 74.108 81.0669 74.2077 81.5507 74.2077C82.0346 74.2077 82.4898 74.108 82.916 73.9085C83.3423 73.6972 83.7168 73.4097 84.0395 73.0458C84.362 72.682 84.6155 72.2653 84.7998 71.7958C84.9842 71.3145 85.0763 70.7982 85.0763 70.2465C85.0763 69.7065 84.9842 69.2018 84.7998 68.7323C84.6155 68.2512 84.362 67.8345 84.0395 67.4823C83.7168 67.1185 83.3423 66.831 82.916 66.6197C82.5013 66.4085 82.052 66.3028 81.568 66.3028C81.0841 66.3028 80.6291 66.4085 80.2027 66.6197C79.7764 66.831 79.4019 67.1185 79.0794 67.4823C78.7683 67.8462 78.5147 68.2747 78.3189 68.7677C78.1345 69.2488 78.0424 69.7593 78.0424 70.2993Z" fill="black"/>
<path d="M95.3732 74.824H94.5091V69.7183C94.5091 68.5328 94.3421 67.6702 94.0079 67.1303C93.6854 66.5903 93.1668 66.3205 92.4525 66.3205C92.0723 66.3205 91.692 66.3908 91.3118 66.5317C90.9431 66.6725 90.5975 66.872 90.2749 67.1303C89.9522 67.3885 89.67 67.6937 89.428 68.0458C89.1862 68.3862 89.0075 68.7558 88.8923 69.155V74.824H88.0281V65.669H88.8404V67.8522C89.0247 67.5 89.2495 67.1832 89.5144 66.9013C89.791 66.608 90.0963 66.3615 90.4305 66.162C90.7761 65.9507 91.1391 65.7923 91.5193 65.6867C91.8994 65.5692 92.2912 65.5105 92.6945 65.5105C93.6737 65.5105 94.3651 65.8627 94.7684 66.5668C95.1717 67.2593 95.3732 68.257 95.3732 69.5598V74.824Z" fill="black"/>
</svg>
